;Layer: Drill NPTH
;EasyEDA v6.3.43, 2020-05-15T22:20:22+02:00
;2a45f1baba6d49658d6ac03e146227c1,5baed10d790843e69a81d1d62c5cb733,10
;Gerber Generator version 0.2
M48
METRIC,LZ,000.000
;Holesize 1 = 3.200 METRIC
T01C3.200
%
G05
G90
T01
X+134747Y+041275
X+114427Y+041275
X+134747Y+014605
X+114427Y+014605
X+005334Y+027559
X+013716Y+008255
X+013970Y+027559
X+005461Y+047879
X+144018Y+027813
X+103632Y+028067
X+094488Y+021717
X+067564Y+021844
X+144018Y+005969
X+143891Y+094996
X+005461Y+004699
X+005588Y+095123
X+097790Y+047371
X+097917Y+087884
X+062865Y+088138
X+062738Y+047625
X+044450Y+050546
X+018288Y+050419
X+044577Y+079756
X+018415Y+079629
M30
