G04 Layer: TopLayer*
G04 EasyEDA v6.3.43, 2020-05-15T22:20:22+02:00*
G04 2a45f1baba6d49658d6ac03e146227c1,5baed10d790843e69a81d1d62c5cb733,10*
G04 Gerber Generator version 0.2*
G04 Scale: 100 percent, Rotated: No, Reflected: No *
G04 Dimensions in millimeters *
G04 leading zeros omitted , absolute positions ,3 integer and 3 decimal *
%FSLAX33Y33*%
%MOMM*%
G90*
G71D02*

%ADD10C,0.254000*%
%ADD11C,0.299999*%
%ADD12C,0.203200*%
%ADD13C,0.152400*%
%ADD14C,1.524000*%
%ADD15C,2.499995*%
%ADD16C,2.199996*%
%ADD17C,1.999996*%
%ADD18C,2.700020*%
%ADD19R,2.700020X2.700020*%
%ADD20C,1.270000*%

%LPD*%
G54D10*
G01X26543Y37084D02*
G01X26543Y37866D01*
G01X26827Y38151D01*
G01X27843Y38151D01*
G01X39506Y38151D01*
G01X51520Y26137D01*
G01X59919Y17738D01*
G01X59919Y13335D01*
G01X59919Y7578D01*
G01X63983Y3514D01*
G01X64336Y3161D01*
G01X77675Y3161D01*
G01X81467Y6952D01*
G01X81467Y8131D01*
G01X81475Y8409D01*
G01X81767Y8685D01*
G01X83566Y8636D01*
G01X26543Y39624D02*
G01X26543Y38841D01*
G01X26827Y38556D01*
G01X27843Y38556D01*
G01X39675Y38556D01*
G01X51689Y26543D01*
G01X60325Y17906D01*
G01X60325Y13335D01*
G01X60325Y7747D01*
G01X64389Y3683D01*
G01X64505Y3566D01*
G01X77507Y3566D01*
G01X81061Y7120D01*
G01X81061Y8136D01*
G01X81069Y8421D01*
G01X80792Y8713D01*
G01X78994Y8763D01*
G54D11*
G01X135646Y65938D02*
G01X70840Y65938D01*
G01X69418Y64516D01*
G01X68707Y64516D01*
G01X68707Y59436D02*
G01X67190Y60952D01*
G01X67190Y65031D01*
G01X67663Y65504D01*
G01X69314Y65504D01*
G01X72252Y68440D01*
G01X135646Y68440D01*
G01X135646Y63439D02*
G01X100650Y63439D01*
G01X91567Y54356D01*
G01X135646Y75938D02*
G01X103004Y75938D01*
G01X91567Y87376D01*
G01X135646Y73439D02*
G01X92870Y73439D01*
G01X91567Y72136D01*
G01X135646Y70939D02*
G01X92910Y70939D01*
G01X91567Y69596D01*
G01X11107Y73197D02*
G01X20045Y73197D01*
G01X30894Y84046D01*
G01X11076Y56116D02*
G01X15923Y51269D01*
G01X15923Y31663D01*
G01X24610Y22976D01*
G01X24610Y12981D01*
G01X26035Y11557D01*
G01X135646Y80939D02*
G01X125544Y91038D01*
G01X69832Y91038D01*
G01X68707Y89916D01*
G01X91567Y89916D02*
G01X103042Y78440D01*
G01X135646Y78440D01*
G01X132207Y46355D02*
G01X126746Y51816D01*
G01X91567Y51816D01*
G54D12*
G01X6858Y20464D02*
G01X6858Y18526D01*
G01X6858Y20464D02*
G01X7688Y20464D01*
G01X7965Y20373D01*
G01X8059Y20281D01*
G01X8150Y20096D01*
G01X8150Y19911D01*
G01X8059Y19725D01*
G01X7965Y19634D01*
G01X7688Y19542D01*
G01X6858Y19542D02*
G01X7688Y19542D01*
G01X7965Y19448D01*
G01X8059Y19357D01*
G01X8150Y19171D01*
G01X8150Y18895D01*
G01X8059Y18709D01*
G01X7965Y18618D01*
G01X7688Y18526D01*
G01X6858Y18526D01*
G01X9499Y20464D02*
G01X8760Y18526D01*
G01X9499Y20464D02*
G01X10238Y18526D01*
G01X9037Y19171D02*
G01X9961Y19171D01*
G01X11493Y20464D02*
G01X11493Y18526D01*
G01X10848Y20464D02*
G01X12141Y20464D01*
G01X5969Y39133D02*
G01X5969Y37195D01*
G01X5969Y39133D02*
G01X6799Y39133D01*
G01X7076Y39042D01*
G01X7170Y38950D01*
G01X7261Y38765D01*
G01X7261Y38488D01*
G01X7170Y38303D01*
G01X7076Y38211D01*
G01X6799Y38117D01*
G01X5969Y38117D01*
G01X7871Y39133D02*
G01X7871Y37195D01*
G01X7871Y39133D02*
G01X8702Y39133D01*
G01X8978Y39042D01*
G01X9072Y38950D01*
G01X9164Y38765D01*
G01X9164Y38580D01*
G01X9072Y38394D01*
G01X8978Y38303D01*
G01X8702Y38211D01*
G01X7871Y38211D01*
G01X8519Y38211D02*
G01X9164Y37195D01*
G01X10327Y39133D02*
G01X10144Y39042D01*
G01X9959Y38856D01*
G01X9867Y38671D01*
G01X9773Y38394D01*
G01X9773Y37934D01*
G01X9867Y37655D01*
G01X9959Y37472D01*
G01X10144Y37287D01*
G01X10327Y37195D01*
G01X10698Y37195D01*
G01X10883Y37287D01*
G01X11066Y37472D01*
G01X11160Y37655D01*
G01X11252Y37934D01*
G01X11252Y38394D01*
G01X11160Y38671D01*
G01X11066Y38856D01*
G01X10883Y39042D01*
G01X10698Y39133D01*
G01X10327Y39133D01*
G01X13246Y38671D02*
G01X13154Y38856D01*
G01X12969Y39042D01*
G01X12786Y39133D01*
G01X12415Y39133D01*
G01X12230Y39042D01*
G01X12047Y38856D01*
G01X11953Y38671D01*
G01X11861Y38394D01*
G01X11861Y37934D01*
G01X11953Y37655D01*
G01X12047Y37472D01*
G01X12230Y37287D01*
G01X12415Y37195D01*
G01X12786Y37195D01*
G01X12969Y37287D01*
G01X13154Y37472D01*
G01X13246Y37655D01*
G01X13246Y37934D01*
G01X12786Y37934D02*
G01X13246Y37934D01*
G01X19522Y23766D02*
G01X18600Y23766D01*
G01X18506Y22936D01*
G01X18600Y23027D01*
G01X18877Y23121D01*
G01X19154Y23121D01*
G01X19431Y23027D01*
G01X19616Y22844D01*
G01X19707Y22567D01*
G01X19707Y22382D01*
G01X19616Y22105D01*
G01X19431Y21920D01*
G01X19154Y21828D01*
G01X18877Y21828D01*
G01X18600Y21920D01*
G01X18506Y22011D01*
G01X18415Y22197D01*
G01X20317Y23766D02*
G01X21056Y21828D01*
G01X21795Y23766D02*
G01X21056Y21828D01*
G01X18415Y21226D02*
G01X18415Y19288D01*
G01X18415Y21226D02*
G01X19062Y21226D01*
G01X19339Y21135D01*
G01X19522Y20949D01*
G01X19616Y20764D01*
G01X19707Y20487D01*
G01X19707Y20027D01*
G01X19616Y19748D01*
G01X19522Y19565D01*
G01X19339Y19380D01*
G01X19062Y19288D01*
G01X18415Y19288D01*
G01X20317Y20119D02*
G01X21981Y20119D01*
G01X18415Y18686D02*
G01X18415Y16748D01*
G01X18415Y18686D02*
G01X19062Y18686D01*
G01X19339Y18595D01*
G01X19522Y18409D01*
G01X19616Y18224D01*
G01X19707Y17947D01*
G01X19707Y17487D01*
G01X19616Y17208D01*
G01X19522Y17025D01*
G01X19339Y16840D01*
G01X19062Y16748D01*
G01X18415Y16748D01*
G01X21148Y18409D02*
G01X21148Y16748D01*
G01X20317Y17579D02*
G01X21981Y17579D01*
G01X18415Y16146D02*
G01X18415Y14208D01*
G01X19024Y16146D02*
G01X19024Y14208D01*
G01X19024Y16146D02*
G01X19672Y16146D01*
G01X19949Y16055D01*
G01X20132Y15869D01*
G01X20226Y15684D01*
G01X20317Y15407D01*
G01X20317Y14947D01*
G01X20226Y14668D01*
G01X20132Y14485D01*
G01X19949Y14300D01*
G01X19672Y14208D01*
G01X19024Y14208D01*
G01X19799Y13144D02*
G01X19707Y13329D01*
G01X19522Y13515D01*
G01X19339Y13606D01*
G01X18968Y13606D01*
G01X18783Y13515D01*
G01X18600Y13329D01*
G01X18506Y13144D01*
G01X18415Y12867D01*
G01X18415Y12407D01*
G01X18506Y12128D01*
G01X18600Y11945D01*
G01X18783Y11760D01*
G01X18968Y11668D01*
G01X19339Y11668D01*
G01X19522Y11760D01*
G01X19707Y11945D01*
G01X19799Y12128D01*
G01X19799Y12407D01*
G01X19339Y12407D02*
G01X19799Y12407D01*
G01X20408Y13606D02*
G01X20408Y11668D01*
G01X20408Y13606D02*
G01X21704Y11668D01*
G01X21704Y13606D02*
G01X21704Y11668D01*
G01X22313Y13606D02*
G01X22313Y11668D01*
G01X22313Y13606D02*
G01X22959Y13606D01*
G01X23235Y13515D01*
G01X23421Y13329D01*
G01X23512Y13144D01*
G01X23606Y12867D01*
G01X23606Y12407D01*
G01X23512Y12128D01*
G01X23421Y11945D01*
G01X23235Y11760D01*
G01X22959Y11668D01*
G01X22313Y11668D01*
G01X18923Y44213D02*
G01X19662Y42275D01*
G01X20401Y44213D02*
G01X19662Y42275D01*
G01X22395Y43751D02*
G01X22303Y43936D01*
G01X22118Y44122D01*
G01X21932Y44213D01*
G01X21564Y44213D01*
G01X21379Y44122D01*
G01X21196Y43936D01*
G01X21102Y43751D01*
G01X21010Y43474D01*
G01X21010Y43014D01*
G01X21102Y42735D01*
G01X21196Y42552D01*
G01X21379Y42367D01*
G01X21564Y42275D01*
G01X21932Y42275D01*
G01X22118Y42367D01*
G01X22303Y42552D01*
G01X22395Y42735D01*
G01X24391Y43751D02*
G01X24297Y43936D01*
G01X24114Y44122D01*
G01X23929Y44213D01*
G01X23558Y44213D01*
G01X23375Y44122D01*
G01X23190Y43936D01*
G01X23098Y43751D01*
G01X23004Y43474D01*
G01X23004Y43014D01*
G01X23098Y42735D01*
G01X23190Y42552D01*
G01X23375Y42367D01*
G01X23558Y42275D01*
G01X23929Y42275D01*
G01X24114Y42367D01*
G01X24297Y42552D01*
G01X24391Y42735D01*
G01X18923Y41673D02*
G01X18923Y39735D01*
G01X18923Y41673D02*
G01X19570Y41673D01*
G01X19847Y41582D01*
G01X20030Y41396D01*
G01X20124Y41211D01*
G01X20215Y40934D01*
G01X20215Y40474D01*
G01X20124Y40195D01*
G01X20030Y40012D01*
G01X19847Y39827D01*
G01X19570Y39735D01*
G01X18923Y39735D01*
G01X20825Y40566D02*
G01X22489Y40566D01*
G01X18923Y39133D02*
G01X18923Y37195D01*
G01X18923Y39133D02*
G01X19570Y39133D01*
G01X19847Y39042D01*
G01X20030Y38856D01*
G01X20124Y38671D01*
G01X20215Y38394D01*
G01X20215Y37934D01*
G01X20124Y37655D01*
G01X20030Y37472D01*
G01X19847Y37287D01*
G01X19570Y37195D01*
G01X18923Y37195D01*
G01X21656Y38856D02*
G01X21656Y37195D01*
G01X20825Y38026D02*
G01X22489Y38026D01*
G01X18923Y36593D02*
G01X18923Y34655D01*
G01X19532Y36593D02*
G01X19532Y34655D01*
G01X19532Y36593D02*
G01X20180Y36593D01*
G01X20457Y36502D01*
G01X20640Y36316D01*
G01X20734Y36131D01*
G01X20825Y35854D01*
G01X20825Y35394D01*
G01X20734Y35115D01*
G01X20640Y34932D01*
G01X20457Y34747D01*
G01X20180Y34655D01*
G01X19532Y34655D01*
G01X20307Y33591D02*
G01X20215Y33776D01*
G01X20030Y33962D01*
G01X19847Y34053D01*
G01X19476Y34053D01*
G01X19291Y33962D01*
G01X19108Y33776D01*
G01X19014Y33591D01*
G01X18923Y33314D01*
G01X18923Y32854D01*
G01X19014Y32575D01*
G01X19108Y32392D01*
G01X19291Y32207D01*
G01X19476Y32115D01*
G01X19847Y32115D01*
G01X20030Y32207D01*
G01X20215Y32392D01*
G01X20307Y32575D01*
G01X20307Y32854D01*
G01X19847Y32854D02*
G01X20307Y32854D01*
G01X20916Y34053D02*
G01X20916Y32115D01*
G01X20916Y34053D02*
G01X22212Y32115D01*
G01X22212Y34053D02*
G01X22212Y32115D01*
G01X22821Y34053D02*
G01X22821Y32115D01*
G01X22821Y34053D02*
G01X23467Y34053D01*
G01X23743Y33962D01*
G01X23929Y33776D01*
G01X24020Y33591D01*
G01X24114Y33314D01*
G01X24114Y32854D01*
G01X24020Y32575D01*
G01X23929Y32392D01*
G01X23743Y32207D01*
G01X23467Y32115D01*
G01X22821Y32115D01*
G54D13*
G01X134655Y44965D02*
G01X134307Y44965D01*
G01X134274Y44653D01*
G01X134307Y44688D01*
G01X134411Y44721D01*
G01X134515Y44721D01*
G01X134620Y44688D01*
G01X134688Y44617D01*
G01X134724Y44513D01*
G01X134724Y44444D01*
G01X134688Y44340D01*
G01X134620Y44272D01*
G01X134515Y44236D01*
G01X134411Y44236D01*
G01X134307Y44272D01*
G01X134274Y44307D01*
G01X134239Y44376D01*
G01X134952Y44965D02*
G01X135229Y44236D01*
G01X135506Y44965D02*
G01X135229Y44236D01*
G01X132034Y44965D02*
G01X131930Y44930D01*
G01X131861Y44825D01*
G01X131826Y44653D01*
G01X131826Y44549D01*
G01X131861Y44376D01*
G01X131930Y44272D01*
G01X132034Y44236D01*
G01X132102Y44236D01*
G01X132207Y44272D01*
G01X132275Y44376D01*
G01X132311Y44549D01*
G01X132311Y44653D01*
G01X132275Y44825D01*
G01X132207Y44930D01*
G01X132102Y44965D01*
G01X132034Y44965D01*
G01X132539Y44965D02*
G01X132816Y44236D01*
G01X133093Y44965D02*
G01X132816Y44236D01*
G01X128846Y44965D02*
G01X129227Y44965D01*
G01X129019Y44688D01*
G01X129123Y44688D01*
G01X129194Y44653D01*
G01X129227Y44617D01*
G01X129263Y44513D01*
G01X129263Y44444D01*
G01X129227Y44340D01*
G01X129159Y44272D01*
G01X129054Y44236D01*
G01X128950Y44236D01*
G01X128846Y44272D01*
G01X128813Y44307D01*
G01X128778Y44376D01*
G01X129527Y44411D02*
G01X129491Y44376D01*
G01X129527Y44340D01*
G01X129560Y44376D01*
G01X129527Y44411D01*
G01X129857Y44965D02*
G01X130238Y44965D01*
G01X130032Y44688D01*
G01X130136Y44688D01*
G01X130205Y44653D01*
G01X130238Y44617D01*
G01X130274Y44513D01*
G01X130274Y44444D01*
G01X130238Y44340D01*
G01X130169Y44272D01*
G01X130065Y44236D01*
G01X129961Y44236D01*
G01X129857Y44272D01*
G01X129824Y44307D01*
G01X129788Y44376D01*
G01X130502Y44965D02*
G01X130779Y44236D01*
G01X131056Y44965D02*
G01X130779Y44236D01*
G01X126723Y44861D02*
G01X126654Y44930D01*
G01X126550Y44965D01*
G01X126410Y44965D01*
G01X126306Y44930D01*
G01X126238Y44861D01*
G01X126238Y44792D01*
G01X126273Y44721D01*
G01X126306Y44688D01*
G01X126377Y44653D01*
G01X126583Y44584D01*
G01X126654Y44549D01*
G01X126687Y44513D01*
G01X126723Y44444D01*
G01X126723Y44340D01*
G01X126654Y44272D01*
G01X126550Y44236D01*
G01X126410Y44236D01*
G01X126306Y44272D01*
G01X126238Y44340D01*
G01X126951Y44965D02*
G01X126951Y44236D01*
G01X126951Y44965D02*
G01X127193Y44965D01*
G01X127297Y44930D01*
G01X127368Y44861D01*
G01X127401Y44792D01*
G01X127436Y44688D01*
G01X127436Y44513D01*
G01X127401Y44411D01*
G01X127368Y44340D01*
G01X127297Y44272D01*
G01X127193Y44236D01*
G01X126951Y44236D01*
G01X127942Y44965D02*
G01X127665Y44236D01*
G01X127942Y44965D02*
G01X128219Y44236D01*
G01X127769Y44480D02*
G01X128115Y44480D01*
G01X126977Y48417D02*
G01X126908Y48486D01*
G01X126804Y48521D01*
G01X126664Y48521D01*
G01X126560Y48486D01*
G01X126492Y48417D01*
G01X126492Y48348D01*
G01X126527Y48277D01*
G01X126560Y48244D01*
G01X126631Y48209D01*
G01X126837Y48140D01*
G01X126908Y48105D01*
G01X126941Y48069D01*
G01X126977Y48000D01*
G01X126977Y47896D01*
G01X126908Y47828D01*
G01X126804Y47792D01*
G01X126664Y47792D01*
G01X126560Y47828D01*
G01X126492Y47896D01*
G01X127205Y48521D02*
G01X127205Y47792D01*
G01X127205Y48521D02*
G01X127447Y48521D01*
G01X127551Y48486D01*
G01X127622Y48417D01*
G01X127655Y48348D01*
G01X127690Y48244D01*
G01X127690Y48069D01*
G01X127655Y47967D01*
G01X127622Y47896D01*
G01X127551Y47828D01*
G01X127447Y47792D01*
G01X127205Y47792D01*
G01X127919Y48521D02*
G01X127919Y47792D01*
G01X124183Y48417D02*
G01X124114Y48486D01*
G01X124010Y48521D01*
G01X123870Y48521D01*
G01X123766Y48486D01*
G01X123698Y48417D01*
G01X123698Y48348D01*
G01X123733Y48277D01*
G01X123766Y48244D01*
G01X123837Y48209D01*
G01X124043Y48140D01*
G01X124114Y48105D01*
G01X124147Y48069D01*
G01X124183Y48000D01*
G01X124183Y47896D01*
G01X124114Y47828D01*
G01X124010Y47792D01*
G01X123870Y47792D01*
G01X123766Y47828D01*
G01X123698Y47896D01*
G01X124929Y48348D02*
G01X124896Y48417D01*
G01X124828Y48486D01*
G01X124757Y48521D01*
G01X124620Y48521D01*
G01X124548Y48486D01*
G01X124480Y48417D01*
G01X124447Y48348D01*
G01X124411Y48244D01*
G01X124411Y48069D01*
G01X124447Y47967D01*
G01X124480Y47896D01*
G01X124548Y47828D01*
G01X124620Y47792D01*
G01X124757Y47792D01*
G01X124828Y47828D01*
G01X124896Y47896D01*
G01X124929Y47967D01*
G01X125158Y48521D02*
G01X125158Y47792D01*
G01X125643Y48521D02*
G01X125158Y48036D01*
G01X125333Y48209D02*
G01X125643Y47792D01*
G01X124183Y44861D02*
G01X124114Y44930D01*
G01X124010Y44965D01*
G01X123870Y44965D01*
G01X123766Y44930D01*
G01X123698Y44861D01*
G01X123698Y44792D01*
G01X123733Y44721D01*
G01X123766Y44688D01*
G01X123837Y44653D01*
G01X124043Y44584D01*
G01X124114Y44549D01*
G01X124147Y44513D01*
G01X124183Y44444D01*
G01X124183Y44340D01*
G01X124114Y44272D01*
G01X124010Y44236D01*
G01X123870Y44236D01*
G01X123766Y44272D01*
G01X123698Y44340D01*
G01X124929Y44792D02*
G01X124896Y44861D01*
G01X124828Y44930D01*
G01X124757Y44965D01*
G01X124620Y44965D01*
G01X124548Y44930D01*
G01X124480Y44861D01*
G01X124447Y44792D01*
G01X124411Y44688D01*
G01X124411Y44513D01*
G01X124447Y44411D01*
G01X124480Y44340D01*
G01X124548Y44272D01*
G01X124620Y44236D01*
G01X124757Y44236D01*
G01X124828Y44272D01*
G01X124896Y44340D01*
G01X124929Y44411D01*
G01X125158Y44965D02*
G01X125158Y44236D01*
G01X125158Y44236D02*
G01X125575Y44236D01*
G01X121643Y48417D02*
G01X121574Y48486D01*
G01X121470Y48521D01*
G01X121330Y48521D01*
G01X121226Y48486D01*
G01X121158Y48417D01*
G01X121158Y48348D01*
G01X121193Y48277D01*
G01X121226Y48244D01*
G01X121297Y48209D01*
G01X121503Y48140D01*
G01X121574Y48105D01*
G01X121607Y48069D01*
G01X121643Y48000D01*
G01X121643Y47896D01*
G01X121574Y47828D01*
G01X121470Y47792D01*
G01X121330Y47792D01*
G01X121226Y47828D01*
G01X121158Y47896D01*
G01X121871Y48521D02*
G01X121871Y47792D01*
G01X121871Y48521D02*
G01X122113Y48521D01*
G01X122217Y48486D01*
G01X122288Y48417D01*
G01X122321Y48348D01*
G01X122356Y48244D01*
G01X122356Y48069D01*
G01X122321Y47967D01*
G01X122288Y47896D01*
G01X122217Y47828D01*
G01X122113Y47792D01*
G01X121871Y47792D01*
G01X122793Y48521D02*
G01X122722Y48486D01*
G01X122654Y48417D01*
G01X122618Y48348D01*
G01X122585Y48244D01*
G01X122585Y48069D01*
G01X122618Y47967D01*
G01X122654Y47896D01*
G01X122722Y47828D01*
G01X122793Y47792D01*
G01X122930Y47792D01*
G01X122999Y47828D01*
G01X123070Y47896D01*
G01X123103Y47967D01*
G01X123139Y48069D01*
G01X123139Y48244D01*
G01X123103Y48348D01*
G01X123070Y48417D01*
G01X122999Y48486D01*
G01X122930Y48521D01*
G01X122793Y48521D01*
G01X121942Y44965D02*
G01X121666Y44236D01*
G01X121942Y44965D02*
G01X122219Y44236D01*
G01X121770Y44480D02*
G01X122115Y44480D01*
G01X119357Y44861D02*
G01X119288Y44930D01*
G01X119184Y44965D01*
G01X119044Y44965D01*
G01X118940Y44930D01*
G01X118872Y44861D01*
G01X118872Y44792D01*
G01X118907Y44721D01*
G01X118940Y44688D01*
G01X119011Y44653D01*
G01X119217Y44584D01*
G01X119288Y44549D01*
G01X119321Y44513D01*
G01X119357Y44444D01*
G01X119357Y44340D01*
G01X119288Y44272D01*
G01X119184Y44236D01*
G01X119044Y44236D01*
G01X118940Y44272D01*
G01X118872Y44340D01*
G01X120070Y44861D02*
G01X120002Y44930D01*
G01X119898Y44965D01*
G01X119758Y44965D01*
G01X119654Y44930D01*
G01X119585Y44861D01*
G01X119585Y44792D01*
G01X119621Y44721D01*
G01X119654Y44688D01*
G01X119722Y44653D01*
G01X119931Y44584D01*
G01X120002Y44549D01*
G01X120035Y44513D01*
G01X120070Y44444D01*
G01X120070Y44340D01*
G01X120002Y44272D01*
G01X119898Y44236D01*
G01X119758Y44236D01*
G01X119654Y44272D01*
G01X119585Y44340D01*
G01X116459Y44965D02*
G01X116459Y44236D01*
G01X116459Y44965D02*
G01X116771Y44965D01*
G01X116875Y44930D01*
G01X116908Y44894D01*
G01X116944Y44825D01*
G01X116944Y44757D01*
G01X116908Y44688D01*
G01X116875Y44653D01*
G01X116771Y44617D01*
G01X116459Y44617D01*
G01X116700Y44617D02*
G01X116944Y44236D01*
G01X117172Y44965D02*
G01X117657Y44236D01*
G01X117657Y44965D02*
G01X117172Y44236D01*
G01X114160Y44965D02*
G01X114160Y44236D01*
G01X113919Y44965D02*
G01X114404Y44965D01*
G01X114632Y44965D02*
G01X115117Y44236D01*
G01X115117Y44965D02*
G01X114632Y44236D01*
G54D14*
G01X26035Y21717D03*
G01X26035Y19177D03*
G01X26035Y16637D03*
G01X26035Y14097D03*
G01X26035Y11557D03*
G01X26543Y42164D03*
G01X26543Y39624D03*
G01X26543Y37084D03*
G01X26543Y34544D03*
G01X26543Y32004D03*
G54D15*
G01X33893Y84046D03*
G01X30894Y84046D03*
G01X27894Y84046D03*
G54D16*
G01X74803Y10414D03*
G01X53721Y33782D03*
G01X53848Y38227D03*
G01X78994Y8763D03*
G01X83566Y8636D03*
G01X87630Y10668D03*
G54D17*
G01X135645Y63439D03*
G01X135645Y65939D03*
G01X135645Y68441D03*
G01X135645Y70940D03*
G01X135645Y73439D03*
G01X135645Y75939D03*
G01X135645Y80940D03*
G01X135645Y78441D03*
G54D18*
G01X11076Y56116D03*
G54D19*
G01X11107Y73197D03*
G01X50705Y73137D03*
G54D18*
G01X50706Y56121D03*
G54D14*
G01X116967Y46355D03*
G01X119507Y46355D03*
G01X122047Y46355D03*
G01X124587Y46355D03*
G01X127127Y46355D03*
G01X129667Y46355D03*
G01X132207Y46355D03*
G01X134747Y46355D03*
G01X114427Y46355D03*
G54D20*
G01X91059Y59436D02*
G01X92075Y59436D01*
G01X91059Y61976D02*
G01X92075Y61976D01*
G01X91059Y64516D02*
G01X92075Y64516D01*
G01X91059Y67056D02*
G01X92075Y67056D01*
G01X91059Y51816D02*
G01X92075Y51816D01*
G01X91059Y69596D02*
G01X92075Y69596D01*
G01X91059Y72136D02*
G01X92075Y72136D01*
G01X91059Y87376D02*
G01X92075Y87376D01*
G01X91059Y74676D02*
G01X92075Y74676D01*
G01X68199Y54356D02*
G01X69215Y54356D01*
G01X91059Y56896D02*
G01X92075Y56896D01*
G01X91059Y77216D02*
G01X92075Y77216D01*
G01X91059Y84836D02*
G01X92075Y84836D01*
G01X91059Y79756D02*
G01X92075Y79756D01*
G01X91059Y82296D02*
G01X92075Y82296D01*
G01X91059Y89916D02*
G01X92075Y89916D01*
G01X68199Y89916D02*
G01X69215Y89916D01*
G01X68199Y87376D02*
G01X69215Y87376D01*
G01X68199Y84836D02*
G01X69215Y84836D01*
G01X68199Y82296D02*
G01X69215Y82296D01*
G01X68199Y79756D02*
G01X69215Y79756D01*
G01X68199Y77216D02*
G01X69215Y77216D01*
G01X68199Y74676D02*
G01X69215Y74676D01*
G01X91059Y54356D02*
G01X92075Y54356D01*
G01X68199Y56896D02*
G01X69215Y56896D01*
G01X68199Y59436D02*
G01X69215Y59436D01*
G01X68199Y61976D02*
G01X69215Y61976D01*
G01X68199Y64516D02*
G01X69215Y64516D01*
G01X68199Y67056D02*
G01X69215Y67056D01*
G01X68199Y69596D02*
G01X69215Y69596D01*
G01X68199Y72136D02*
G01X69215Y72136D01*
G01X68199Y51816D02*
G01X69215Y51816D01*
M00*
M02*
