;Layer: Drill PTH
;EasyEDA v6.3.43, 2020-05-15T22:20:22+02:00
;2a45f1baba6d49658d6ac03e146227c1,5baed10d790843e69a81d1d62c5cb733,10
;Gerber Generator version 0.2
M48
METRIC,LZ,000.000
;Holesize 1 = 0.889 METRIC
T01C0.889
;Holesize 2 = 0.915 METRIC
T02C0.915
;Holesize 3 = 1.000 METRIC
T03C1.000
;Holesize 4 = 1.199 METRIC
T04C1.199
;Holesize 5 = 1.501 METRIC
T05C1.501
%
G05
G90
T01
X+091567Y+059436
X+091567Y+061976
X+091567Y+064516
X+091567Y+067056
X+091567Y+051816
X+091567Y+069596
X+091567Y+072136
X+091567Y+087376
X+091567Y+074676
X+068707Y+054356
X+091567Y+056896
X+091567Y+077216
X+091567Y+084836
X+091567Y+079756
X+091567Y+082296
X+091567Y+089916
X+068707Y+089916
X+068707Y+087376
X+068707Y+084836
X+068707Y+082296
X+068707Y+079756
X+068707Y+077216
X+068707Y+074676
X+091567Y+054356
X+068707Y+056896
X+068707Y+059436
X+068707Y+061976
X+068707Y+064516
X+068707Y+067056
X+068707Y+069596
X+068707Y+072136
X+068707Y+051816
T02
X+026035Y+021717
X+026035Y+019177
X+026035Y+016637
X+026035Y+014097
X+026035Y+011557
X+026543Y+042164
X+026543Y+039624
X+026543Y+037084
X+026543Y+034544
X+026543Y+032004
X+116967Y+046355
X+119507Y+046355
X+122047Y+046355
X+124587Y+046355
X+127127Y+046355
X+129667Y+046355
X+132207Y+046355
X+134747Y+046355
X+114427Y+046355
T03
X+033893Y+084046
X+030894Y+084046
X+027894Y+084046
T04
X+135645Y+063439
X+135645Y+065939
X+135645Y+068441
X+135645Y+070940
X+135645Y+073439
X+135645Y+075939
X+135645Y+080940
X+135645Y+078441
T05
X+074803Y+010414
X+053721Y+033782
X+053848Y+038227
X+078994Y+008763
X+083566Y+008636
X+087630Y+010668
X+011076Y+056116
X+011107Y+073197
X+050705Y+073137
X+050706Y+056121
M30
