G04 Layer: TopSilkLayer*
G04 EasyEDA v6.3.43, 2020-05-15T22:20:22+02:00*
G04 2a45f1baba6d49658d6ac03e146227c1,5baed10d790843e69a81d1d62c5cb733,10*
G04 Gerber Generator version 0.2*
G04 Scale: 100 percent, Rotated: No, Reflected: No *
G04 Dimensions in millimeters *
G04 leading zeros omitted , absolute positions ,3 integer and 3 decimal *
%FSLAX33Y33*%
%MOMM*%
G90*
G71D02*

%ADD10C,0.254000*%
%ADD12C,0.203200*%
%ADD13C,0.152400*%
%ADD21C,0.384515*%
%ADD22C,0.101600*%
%ADD23C,0.200000*%

%LPD*%

%LPD*%
G36*
G01X112872Y87833D02*
G01X112862Y87834D01*
G01X112855Y87828D01*
G01X112850Y87815D01*
G01X112847Y87795D01*
G01X112846Y87768D01*
G01X112848Y87733D01*
G01X112851Y87691D01*
G01X112858Y87643D01*
G01X112866Y87586D01*
G01X112875Y87533D01*
G01X112883Y87479D01*
G01X112892Y87424D01*
G01X112900Y87367D01*
G01X112909Y87309D01*
G01X112917Y87250D01*
G01X112925Y87190D01*
G01X112933Y87128D01*
G01X112942Y87066D01*
G01X112950Y87002D01*
G01X112958Y86937D01*
G01X112967Y86871D01*
G01X112975Y86804D01*
G01X112991Y86668D01*
G01X113007Y86528D01*
G01X113015Y86457D01*
G01X113022Y86385D01*
G01X113038Y86239D01*
G01X113045Y86165D01*
G01X113053Y86091D01*
G01X113060Y86016D01*
G01X113068Y85940D01*
G01X113082Y85787D01*
G01X113097Y85633D01*
G01X113111Y85478D01*
G01X113117Y85399D01*
G01X113124Y85321D01*
G01X113138Y85163D01*
G01X113150Y85005D01*
G01X113157Y84926D01*
G01X113175Y84689D01*
G01X113197Y84375D01*
G01X113202Y84297D01*
G01X113208Y84219D01*
G01X113213Y84142D01*
G01X113217Y84065D01*
G01X113223Y83988D01*
G01X113227Y83912D01*
G01X113232Y83836D01*
G01X113236Y83761D01*
G01X113248Y83539D01*
G01X113252Y83466D01*
G01X113259Y83323D01*
G01X113263Y83253D01*
G01X113266Y83183D01*
G01X113269Y83114D01*
G01X113271Y83047D01*
G01X113274Y82980D01*
G01X113277Y82914D01*
G01X113279Y82849D01*
G01X113281Y82785D01*
G01X113283Y82722D01*
G01X113285Y82660D01*
G01X113287Y82600D01*
G01X113288Y82540D01*
G01X113289Y82482D01*
G01X113290Y82425D01*
G01X113292Y82315D01*
G01X113292Y82262D01*
G01X113293Y82211D01*
G01X113293Y82113D01*
G01X113292Y82065D01*
G01X113292Y82020D01*
G01X113291Y81976D01*
G01X113290Y81934D01*
G01X113289Y81894D01*
G01X113287Y81855D01*
G01X113286Y81818D01*
G01X113284Y81783D01*
G01X113282Y81749D01*
G01X113279Y81718D01*
G01X113277Y81688D01*
G01X113274Y81661D01*
G01X113271Y81635D01*
G01X113268Y81612D01*
G01X113264Y81590D01*
G01X113261Y81571D01*
G01X113257Y81553D01*
G01X113243Y81506D01*
G01X113224Y81455D01*
G01X113201Y81403D01*
G01X113173Y81350D01*
G01X113142Y81296D01*
G01X113108Y81241D01*
G01X113071Y81186D01*
G01X113032Y81131D01*
G01X112990Y81077D01*
G01X112946Y81024D01*
G01X112901Y80973D01*
G01X112855Y80923D01*
G01X112808Y80876D01*
G01X112761Y80832D01*
G01X112714Y80791D01*
G01X112666Y80754D01*
G01X112620Y80720D01*
G01X112575Y80692D01*
G01X112531Y80668D01*
G01X112489Y80650D01*
G01X112454Y80637D01*
G01X112421Y80627D01*
G01X112387Y80619D01*
G01X112354Y80612D01*
G01X112322Y80607D01*
G01X112289Y80605D01*
G01X112257Y80605D01*
G01X112225Y80606D01*
G01X112194Y80610D01*
G01X112162Y80617D01*
G01X112130Y80625D01*
G01X112099Y80636D01*
G01X112067Y80650D01*
G01X112036Y80665D01*
G01X112004Y80683D01*
G01X111972Y80704D01*
G01X111940Y80727D01*
G01X111908Y80753D01*
G01X111875Y80782D01*
G01X111842Y80813D01*
G01X111809Y80847D01*
G01X111776Y80884D01*
G01X111742Y80923D01*
G01X111707Y80966D01*
G01X111672Y81012D01*
G01X111637Y81061D01*
G01X111600Y81112D01*
G01X111564Y81167D01*
G01X111526Y81225D01*
G01X111488Y81286D01*
G01X111449Y81351D01*
G01X111409Y81418D01*
G01X111368Y81489D01*
G01X111327Y81563D01*
G01X111284Y81642D01*
G01X111241Y81723D01*
G01X111196Y81808D01*
G01X111150Y81896D01*
G01X111104Y81989D01*
G01X111055Y82084D01*
G01X111007Y82184D01*
G01X110956Y82287D01*
G01X110905Y82395D01*
G01X110852Y82505D01*
G01X110806Y82603D01*
G01X110783Y82655D01*
G01X110758Y82708D01*
G01X110734Y82763D01*
G01X110709Y82820D01*
G01X110684Y82879D01*
G01X110658Y82938D01*
G01X110632Y83000D01*
G01X110605Y83062D01*
G01X110579Y83126D01*
G01X110552Y83191D01*
G01X110525Y83258D01*
G01X110497Y83325D01*
G01X110470Y83393D01*
G01X110442Y83462D01*
G01X110386Y83602D01*
G01X110330Y83745D01*
G01X110303Y83817D01*
G01X110274Y83890D01*
G01X110246Y83963D01*
G01X110219Y84036D01*
G01X110191Y84110D01*
G01X110135Y84256D01*
G01X110109Y84330D01*
G01X110081Y84403D01*
G01X110055Y84476D01*
G01X110028Y84549D01*
G01X110002Y84621D01*
G01X109950Y84764D01*
G01X109925Y84835D01*
G01X109900Y84905D01*
G01X109852Y85043D01*
G01X109829Y85110D01*
G01X109806Y85176D01*
G01X109784Y85242D01*
G01X109762Y85306D01*
G01X109741Y85369D01*
G01X109721Y85431D01*
G01X109701Y85491D01*
G01X109682Y85550D01*
G01X109663Y85607D01*
G01X109646Y85663D01*
G01X109629Y85716D01*
G01X109614Y85768D01*
G01X109598Y85818D01*
G01X109584Y85867D01*
G01X109571Y85913D01*
G01X109558Y85957D01*
G01X109547Y85999D01*
G01X109536Y86038D01*
G01X109527Y86076D01*
G01X109519Y86111D01*
G01X109512Y86143D01*
G01X109505Y86173D01*
G01X109500Y86200D01*
G01X109496Y86225D01*
G01X109493Y86246D01*
G01X109492Y86265D01*
G01X109488Y86305D01*
G01X109483Y86333D01*
G01X109477Y86348D01*
G01X109468Y86352D01*
G01X109460Y86346D01*
G01X109450Y86331D01*
G01X109439Y86307D01*
G01X109428Y86274D01*
G01X109417Y86235D01*
G01X109405Y86189D01*
G01X109394Y86138D01*
G01X109383Y86081D01*
G01X109372Y86021D01*
G01X109362Y85958D01*
G01X109353Y85893D01*
G01X109344Y85826D01*
G01X109337Y85758D01*
G01X109332Y85690D01*
G01X109328Y85623D01*
G01X109325Y85558D01*
G01X109316Y85147D01*
G01X108986Y85465D01*
G01X108951Y85500D01*
G01X108913Y85539D01*
G01X108873Y85580D01*
G01X108831Y85623D01*
G01X108789Y85670D01*
G01X108745Y85718D01*
G01X108700Y85768D01*
G01X108610Y85870D01*
G01X108565Y85923D01*
G01X108520Y85974D01*
G01X108478Y86026D01*
G01X108436Y86077D01*
G01X108396Y86127D01*
G01X108357Y86175D01*
G01X108322Y86221D01*
G01X108254Y86308D01*
G01X108190Y86388D01*
G01X108130Y86460D01*
G01X108077Y86521D01*
G01X108032Y86570D01*
G01X107996Y86605D01*
G01X107971Y86625D01*
G01X107958Y86628D01*
G01X107957Y86620D01*
G01X107959Y86602D01*
G01X107966Y86575D01*
G01X107975Y86540D01*
G01X107988Y86496D01*
G01X108004Y86445D01*
G01X108023Y86386D01*
G01X108044Y86322D01*
G01X108068Y86251D01*
G01X108095Y86174D01*
G01X108123Y86092D01*
G01X108154Y86006D01*
G01X108187Y85916D01*
G01X108221Y85822D01*
G01X108256Y85726D01*
G01X108293Y85626D01*
G01X108320Y85556D01*
G01X108346Y85486D01*
G01X108397Y85346D01*
G01X108421Y85276D01*
G01X108446Y85207D01*
G01X108470Y85137D01*
G01X108494Y85069D01*
G01X108516Y85000D01*
G01X108539Y84932D01*
G01X108562Y84863D01*
G01X108584Y84795D01*
G01X108606Y84728D01*
G01X108627Y84660D01*
G01X108647Y84593D01*
G01X108668Y84527D01*
G01X108688Y84460D01*
G01X108727Y84329D01*
G01X108746Y84263D01*
G01X108764Y84199D01*
G01X108782Y84134D01*
G01X108799Y84070D01*
G01X108833Y83944D01*
G01X108849Y83881D01*
G01X108864Y83819D01*
G01X108880Y83757D01*
G01X108894Y83696D01*
G01X108909Y83635D01*
G01X108923Y83575D01*
G01X108936Y83515D01*
G01X108949Y83456D01*
G01X108961Y83397D01*
G01X108974Y83339D01*
G01X108996Y83225D01*
G01X109007Y83169D01*
G01X109016Y83113D01*
G01X109026Y83059D01*
G01X109035Y83004D01*
G01X109044Y82950D01*
G01X109052Y82897D01*
G01X109066Y82793D01*
G01X109073Y82742D01*
G01X109079Y82692D01*
G01X109084Y82642D01*
G01X109143Y82088D01*
G01X108779Y82541D01*
G01X108731Y82129D01*
G01X108727Y82099D01*
G01X108724Y82064D01*
G01X108719Y82026D01*
G01X108715Y81984D01*
G01X108710Y81938D01*
G01X108704Y81889D01*
G01X108699Y81836D01*
G01X108693Y81781D01*
G01X108687Y81723D01*
G01X108681Y81664D01*
G01X108674Y81601D01*
G01X108668Y81537D01*
G01X108661Y81471D01*
G01X108654Y81403D01*
G01X108647Y81334D01*
G01X108640Y81264D01*
G01X108626Y81122D01*
G01X108611Y80977D01*
G01X108604Y80905D01*
G01X108597Y80832D01*
G01X108583Y80690D01*
G01X108576Y80625D01*
G01X108563Y80497D01*
G01X108556Y80433D01*
G01X108548Y80370D01*
G01X108541Y80307D01*
G01X108525Y80181D01*
G01X108516Y80118D01*
G01X108498Y79994D01*
G01X108488Y79932D01*
G01X108479Y79870D01*
G01X108459Y79748D01*
G01X108449Y79686D01*
G01X108427Y79564D01*
G01X108416Y79504D01*
G01X108392Y79383D01*
G01X108368Y79263D01*
G01X108355Y79202D01*
G01X108328Y79082D01*
G01X108301Y78963D01*
G01X108287Y78903D01*
G01X108272Y78843D01*
G01X108257Y78784D01*
G01X108242Y78724D01*
G01X108226Y78664D01*
G01X108211Y78604D01*
G01X108194Y78545D01*
G01X108178Y78485D01*
G01X108161Y78426D01*
G01X108127Y78306D01*
G01X108091Y78186D01*
G01X108054Y78066D01*
G01X108035Y78006D01*
G01X108015Y77946D01*
G01X107996Y77886D01*
G01X107955Y77765D01*
G01X107892Y77582D01*
G01X107870Y77521D01*
G01X107623Y76836D01*
G01X107406Y77105D01*
G01X107386Y77132D01*
G01X107365Y77161D01*
G01X107343Y77193D01*
G01X107321Y77226D01*
G01X107298Y77262D01*
G01X107275Y77301D01*
G01X107252Y77341D01*
G01X107228Y77384D01*
G01X107203Y77428D01*
G01X107179Y77475D01*
G01X107154Y77523D01*
G01X107129Y77573D01*
G01X107103Y77624D01*
G01X107078Y77678D01*
G01X107052Y77733D01*
G01X107000Y77847D01*
G01X106974Y77907D01*
G01X106947Y77968D01*
G01X106921Y78030D01*
G01X106894Y78093D01*
G01X106842Y78223D01*
G01X106816Y78289D01*
G01X106789Y78357D01*
G01X106737Y78495D01*
G01X106712Y78564D01*
G01X106686Y78635D01*
G01X106661Y78706D01*
G01X106611Y78850D01*
G01X106587Y78922D01*
G01X106539Y79068D01*
G01X106515Y79142D01*
G01X106493Y79215D01*
G01X106470Y79289D01*
G01X106448Y79362D01*
G01X106427Y79436D01*
G01X106397Y79539D01*
G01X106367Y79638D01*
G01X106338Y79733D01*
G01X106309Y79823D01*
G01X106282Y79907D01*
G01X106256Y79985D01*
G01X106211Y80114D01*
G01X106175Y80204D01*
G01X106161Y80231D01*
G01X106152Y80246D01*
G01X106144Y80252D01*
G01X106136Y80254D01*
G01X106127Y80253D01*
G01X106118Y80249D01*
G01X106109Y80242D01*
G01X106099Y80231D01*
G01X106089Y80218D01*
G01X106079Y80201D01*
G01X106068Y80182D01*
G01X106057Y80159D01*
G01X106046Y80134D01*
G01X106034Y80106D01*
G01X106022Y80076D01*
G01X106009Y80043D01*
G01X105997Y80007D01*
G01X105984Y79969D01*
G01X105971Y79929D01*
G01X105958Y79886D01*
G01X105944Y79841D01*
G01X105931Y79794D01*
G01X105917Y79745D01*
G01X105903Y79694D01*
G01X105889Y79640D01*
G01X105875Y79585D01*
G01X105846Y79469D01*
G01X105832Y79410D01*
G01X105817Y79348D01*
G01X105802Y79284D01*
G01X105787Y79219D01*
G01X105773Y79153D01*
G01X105743Y79015D01*
G01X105729Y78945D01*
G01X105714Y78874D01*
G01X105699Y78801D01*
G01X105685Y78727D01*
G01X105670Y78653D01*
G01X105655Y78577D01*
G01X105627Y78425D01*
G01X105599Y78269D01*
G01X105585Y78190D01*
G01X105572Y78111D01*
G01X105558Y78031D01*
G01X105545Y77951D01*
G01X105531Y77871D01*
G01X105519Y77791D01*
G01X105506Y77710D01*
G01X105494Y77630D01*
G01X105470Y77468D01*
G01X105458Y77388D01*
G01X105447Y77307D01*
G01X105426Y77148D01*
G01X105405Y76990D01*
G01X105396Y76912D01*
G01X105387Y76835D01*
G01X105379Y76758D01*
G01X105370Y76682D01*
G01X105362Y76607D01*
G01X105355Y76532D01*
G01X105348Y76459D01*
G01X105342Y76386D01*
G01X105336Y76315D01*
G01X105327Y76195D01*
G01X105323Y76135D01*
G01X105319Y76076D01*
G01X105312Y75955D01*
G01X105309Y75894D01*
G01X105304Y75772D01*
G01X105300Y75650D01*
G01X105297Y75527D01*
G01X105295Y75403D01*
G01X105294Y75280D01*
G01X105294Y75218D01*
G01X105295Y75030D01*
G01X105296Y74968D01*
G01X105298Y74905D01*
G01X105299Y74842D01*
G01X105301Y74780D01*
G01X105305Y74654D01*
G01X105308Y74590D01*
G01X105314Y74464D01*
G01X105318Y74401D01*
G01X105321Y74337D01*
G01X105329Y74210D01*
G01X105334Y74146D01*
G01X105338Y74083D01*
G01X105343Y74019D01*
G01X105349Y73955D01*
G01X105354Y73891D01*
G01X105372Y73699D01*
G01X105400Y73443D01*
G01X105408Y73379D01*
G01X105416Y73314D01*
G01X105440Y73122D01*
G01X105450Y73057D01*
G01X105459Y72993D01*
G01X105468Y72928D01*
G01X105478Y72864D01*
G01X105488Y72799D01*
G01X105508Y72671D01*
G01X105519Y72606D01*
G01X105530Y72542D01*
G01X105552Y72413D01*
G01X105588Y72221D01*
G01X105601Y72156D01*
G01X105613Y72092D01*
G01X105652Y71900D01*
G01X105666Y71836D01*
G01X105709Y71644D01*
G01X105738Y71516D01*
G01X105753Y71452D01*
G01X105769Y71388D01*
G01X105800Y71261D01*
G01X105866Y71007D01*
G01X105936Y70755D01*
G01X105973Y70629D01*
G01X105991Y70567D01*
G01X106010Y70504D01*
G01X106068Y70317D01*
G01X106088Y70255D01*
G01X106132Y70121D01*
G01X106155Y70056D01*
G01X106179Y69990D01*
G01X106202Y69926D01*
G01X106227Y69862D01*
G01X106253Y69798D01*
G01X106305Y69672D01*
G01X106332Y69610D01*
G01X106359Y69549D01*
G01X106388Y69488D01*
G01X106416Y69428D01*
G01X106446Y69368D01*
G01X106476Y69309D01*
G01X106506Y69251D01*
G01X106537Y69193D01*
G01X106568Y69136D01*
G01X106600Y69079D01*
G01X106633Y69023D01*
G01X106699Y68913D01*
G01X106734Y68859D01*
G01X106768Y68806D01*
G01X106803Y68753D01*
G01X106839Y68700D01*
G01X106876Y68649D01*
G01X106912Y68598D01*
G01X106949Y68547D01*
G01X106987Y68498D01*
G01X107025Y68448D01*
G01X107103Y68352D01*
G01X107183Y68258D01*
G01X107265Y68168D01*
G01X107307Y68123D01*
G01X107349Y68079D01*
G01X107392Y68036D01*
G01X107435Y67994D01*
G01X107479Y67952D01*
G01X107567Y67870D01*
G01X107613Y67831D01*
G01X107658Y67792D01*
G01X107704Y67753D01*
G01X107750Y67716D01*
G01X107797Y67679D01*
G01X107844Y67643D01*
G01X107892Y67607D01*
G01X107940Y67573D01*
G01X108038Y67505D01*
G01X108138Y67441D01*
G01X108188Y67410D01*
G01X108290Y67350D01*
G01X108342Y67321D01*
G01X108394Y67293D01*
G01X108500Y67239D01*
G01X108553Y67213D01*
G01X109099Y66954D01*
G01X108214Y66354D01*
G01X108156Y66314D01*
G01X108097Y66274D01*
G01X108038Y66233D01*
G01X107979Y66191D01*
G01X107920Y66150D01*
G01X107861Y66108D01*
G01X107742Y66022D01*
G01X107623Y65935D01*
G01X107504Y65846D01*
G01X107386Y65757D01*
G01X107327Y65711D01*
G01X107267Y65666D01*
G01X107149Y65574D01*
G01X107091Y65528D01*
G01X107032Y65482D01*
G01X106974Y65435D01*
G01X106916Y65389D01*
G01X106858Y65342D01*
G01X106743Y65249D01*
G01X106686Y65201D01*
G01X106630Y65154D01*
G01X106573Y65107D01*
G01X106462Y65013D01*
G01X106297Y64872D01*
G01X106244Y64825D01*
G01X106138Y64732D01*
G01X106086Y64685D01*
G01X106034Y64639D01*
G01X105932Y64546D01*
G01X105882Y64501D01*
G01X105833Y64456D01*
G01X105784Y64410D01*
G01X105737Y64365D01*
G01X105689Y64320D01*
G01X105597Y64232D01*
G01X105552Y64188D01*
G01X105422Y64058D01*
G01X105381Y64016D01*
G01X105339Y63974D01*
G01X105261Y63892D01*
G01X105223Y63852D01*
G01X105185Y63811D01*
G01X105149Y63772D01*
G01X105114Y63733D01*
G01X105079Y63695D01*
G01X105046Y63657D01*
G01X105014Y63620D01*
G01X104983Y63583D01*
G01X104953Y63547D01*
G01X104924Y63512D01*
G01X104896Y63478D01*
G01X104870Y63444D01*
G01X104845Y63410D01*
G01X104820Y63378D01*
G01X104797Y63346D01*
G01X104776Y63315D01*
G01X104755Y63285D01*
G01X104732Y63247D01*
G01X104712Y63204D01*
G01X104693Y63158D01*
G01X104675Y63108D01*
G01X104660Y63054D01*
G01X104647Y62998D01*
G01X104635Y62939D01*
G01X104626Y62878D01*
G01X104619Y62815D01*
G01X104613Y62751D01*
G01X104609Y62686D01*
G01X104607Y62619D01*
G01X104607Y62553D01*
G01X104609Y62487D01*
G01X104613Y62421D01*
G01X104619Y62355D01*
G01X104627Y62291D01*
G01X104637Y62228D01*
G01X104649Y62168D01*
G01X104662Y62109D01*
G01X104678Y62053D01*
G01X104696Y62000D01*
G01X104716Y61951D01*
G01X104737Y61905D01*
G01X104763Y61858D01*
G01X104793Y61810D01*
G01X104825Y61762D01*
G01X104861Y61713D01*
G01X104899Y61665D01*
G01X104940Y61617D01*
G01X104983Y61569D01*
G01X105028Y61522D01*
G01X105075Y61476D01*
G01X105125Y61430D01*
G01X105175Y61385D01*
G01X105226Y61342D01*
G01X105279Y61300D01*
G01X105333Y61260D01*
G01X105387Y61221D01*
G01X105442Y61184D01*
G01X105497Y61149D01*
G01X105552Y61116D01*
G01X105607Y61087D01*
G01X105661Y61059D01*
G01X105715Y61034D01*
G01X105768Y61012D01*
G01X105820Y60993D01*
G01X105871Y60977D01*
G01X105921Y60965D01*
G01X105974Y60953D01*
G01X106030Y60942D01*
G01X106089Y60933D01*
G01X106151Y60924D01*
G01X106216Y60916D01*
G01X106282Y60910D01*
G01X106350Y60904D01*
G01X106418Y60900D01*
G01X106488Y60896D01*
G01X106559Y60893D01*
G01X106629Y60892D01*
G01X106769Y60892D01*
G01X106838Y60894D01*
G01X106905Y60897D01*
G01X106971Y60901D01*
G01X107035Y60906D01*
G01X107097Y60912D01*
G01X107155Y60919D01*
G01X107211Y60927D01*
G01X107264Y60936D01*
G01X107312Y60946D01*
G01X107357Y60958D01*
G01X107388Y60968D01*
G01X107417Y60981D01*
G01X107445Y60999D01*
G01X107471Y61019D01*
G01X107498Y61044D01*
G01X107523Y61074D01*
G01X107549Y61108D01*
G01X107574Y61148D01*
G01X107600Y61194D01*
G01X107626Y61246D01*
G01X107652Y61304D01*
G01X107680Y61370D01*
G01X107708Y61442D01*
G01X107738Y61522D01*
G01X107769Y61610D01*
G01X107802Y61706D01*
G01X107818Y61755D01*
G01X107837Y61805D01*
G01X107856Y61857D01*
G01X107875Y61910D01*
G01X107897Y61965D01*
G01X107919Y62021D01*
G01X107941Y62078D01*
G01X107965Y62135D01*
G01X107989Y62193D01*
G01X108038Y62310D01*
G01X108064Y62369D01*
G01X108116Y62485D01*
G01X108142Y62541D01*
G01X108168Y62598D01*
G01X108194Y62653D01*
G01X108220Y62707D01*
G01X108246Y62759D01*
G01X108272Y62810D01*
G01X108296Y62859D01*
G01X108321Y62906D01*
G01X108345Y62951D01*
G01X108369Y62994D01*
G01X108387Y63027D01*
G01X108408Y63062D01*
G01X108430Y63098D01*
G01X108453Y63137D01*
G01X108478Y63177D01*
G01X108504Y63219D01*
G01X108531Y63262D01*
G01X108560Y63307D01*
G01X108590Y63353D01*
G01X108621Y63401D01*
G01X108653Y63450D01*
G01X108686Y63500D01*
G01X108720Y63551D01*
G01X108755Y63603D01*
G01X108791Y63656D01*
G01X108828Y63710D01*
G01X108866Y63765D01*
G01X108944Y63877D01*
G01X108983Y63934D01*
G01X109023Y63991D01*
G01X109065Y64049D01*
G01X109106Y64108D01*
G01X109147Y64166D01*
G01X109190Y64225D01*
G01X109318Y64402D01*
G01X109447Y64578D01*
G01X109491Y64637D01*
G01X109577Y64753D01*
G01X109620Y64810D01*
G01X109662Y64867D01*
G01X109705Y64922D01*
G01X109747Y64978D01*
G01X109789Y65033D01*
G01X109831Y65086D01*
G01X109872Y65139D01*
G01X109912Y65191D01*
G01X109992Y65291D01*
G01X110068Y65387D01*
G01X110142Y65477D01*
G01X110177Y65520D01*
G01X110212Y65561D01*
G01X110245Y65601D01*
G01X110278Y65639D01*
G01X110516Y65916D01*
G01X110463Y65500D01*
G01X110456Y65447D01*
G01X110449Y65392D01*
G01X110441Y65336D01*
G01X110433Y65279D01*
G01X110424Y65221D01*
G01X110416Y65161D01*
G01X110407Y65100D01*
G01X110397Y65038D01*
G01X110387Y64975D01*
G01X110377Y64911D01*
G01X110367Y64846D01*
G01X110356Y64780D01*
G01X110345Y64713D01*
G01X110334Y64645D01*
G01X110311Y64507D01*
G01X110286Y64366D01*
G01X110274Y64294D01*
G01X110261Y64221D01*
G01X110248Y64149D01*
G01X110234Y64076D01*
G01X110207Y63927D01*
G01X110193Y63853D01*
G01X110180Y63777D01*
G01X110165Y63702D01*
G01X110151Y63626D01*
G01X110136Y63550D01*
G01X110122Y63474D01*
G01X110107Y63397D01*
G01X110092Y63321D01*
G01X110062Y63168D01*
G01X110047Y63092D01*
G01X110016Y62938D01*
G01X110000Y62862D01*
G01X109985Y62786D01*
G01X109938Y62559D01*
G01X109906Y62409D01*
G01X109891Y62335D01*
G01X109875Y62261D01*
G01X109843Y62115D01*
G01X109828Y62043D01*
G01X109797Y61900D01*
G01X109781Y61830D01*
G01X109766Y61761D01*
G01X109750Y61693D01*
G01X109735Y61624D01*
G01X109719Y61558D01*
G01X109704Y61492D01*
G01X109689Y61427D01*
G01X109674Y61363D01*
G01X109659Y61300D01*
G01X109644Y61238D01*
G01X109629Y61177D01*
G01X109615Y61118D01*
G01X109601Y61060D01*
G01X109587Y61003D01*
G01X109573Y60947D01*
G01X109559Y60892D01*
G01X109545Y60840D01*
G01X109532Y60788D01*
G01X109519Y60738D01*
G01X109506Y60689D01*
G01X109493Y60642D01*
G01X109480Y60597D01*
G01X109468Y60553D01*
G01X109456Y60511D01*
G01X109444Y60470D01*
G01X109432Y60432D01*
G01X109421Y60395D01*
G01X109411Y60360D01*
G01X109400Y60327D01*
G01X109389Y60296D01*
G01X109379Y60267D01*
G01X109369Y60239D01*
G01X109360Y60214D01*
G01X109356Y60197D01*
G01X109357Y60181D01*
G01X109365Y60167D01*
G01X109379Y60154D01*
G01X109399Y60143D01*
G01X109428Y60132D01*
G01X109464Y60124D01*
G01X109509Y60116D01*
G01X109561Y60109D01*
G01X109624Y60104D01*
G01X109696Y60098D01*
G01X109778Y60095D01*
G01X109870Y60092D01*
G01X109974Y60089D01*
G01X110089Y60088D01*
G01X110216Y60086D01*
G01X110290Y60086D01*
G01X110366Y60084D01*
G01X110441Y60082D01*
G01X110517Y60080D01*
G01X110592Y60077D01*
G01X110666Y60073D01*
G01X110739Y60069D01*
G01X110811Y60064D01*
G01X110881Y60060D01*
G01X110949Y60054D01*
G01X111015Y60049D01*
G01X111078Y60043D01*
G01X111138Y60036D01*
G01X111195Y60029D01*
G01X111247Y60022D01*
G01X111296Y60015D01*
G01X111341Y60008D01*
G01X111381Y60000D01*
G01X111416Y59992D01*
G01X111446Y59985D01*
G01X111774Y59888D01*
G01X111888Y60499D01*
G01X111898Y60553D01*
G01X111910Y60607D01*
G01X111923Y60662D01*
G01X111937Y60719D01*
G01X111952Y60776D01*
G01X111968Y60835D01*
G01X111985Y60893D01*
G01X112003Y60953D01*
G01X112043Y61075D01*
G01X112064Y61136D01*
G01X112108Y61260D01*
G01X112156Y61385D01*
G01X112207Y61510D01*
G01X112233Y61573D01*
G01X112260Y61635D01*
G01X112316Y61759D01*
G01X112374Y61881D01*
G01X112403Y61940D01*
G01X112433Y62000D01*
G01X112463Y62059D01*
G01X112494Y62117D01*
G01X112524Y62174D01*
G01X112555Y62230D01*
G01X112587Y62284D01*
G01X112618Y62338D01*
G01X112649Y62391D01*
G01X112713Y62491D01*
G01X112744Y62539D01*
G01X112776Y62586D01*
G01X112807Y62631D01*
G01X112838Y62675D01*
G01X112870Y62716D01*
G01X112901Y62755D01*
G01X113184Y63106D01*
G01X113592Y62566D01*
G01X113625Y62520D01*
G01X113658Y62472D01*
G01X113692Y62424D01*
G01X113725Y62375D01*
G01X113757Y62325D01*
G01X113790Y62274D01*
G01X113854Y62170D01*
G01X113886Y62116D01*
G01X113948Y62008D01*
G01X113979Y61952D01*
G01X114039Y61840D01*
G01X114097Y61726D01*
G01X114154Y61610D01*
G01X114182Y61552D01*
G01X114209Y61493D01*
G01X114235Y61435D01*
G01X114261Y61376D01*
G01X114311Y61258D01*
G01X114335Y61199D01*
G01X114381Y61081D01*
G01X114403Y61022D01*
G01X114424Y60964D01*
G01X114445Y60905D01*
G01X114465Y60847D01*
G01X114484Y60788D01*
G01X114503Y60731D01*
G01X114520Y60673D01*
G01X114537Y60617D01*
G01X114552Y60560D01*
G01X114567Y60504D01*
G01X114595Y60394D01*
G01X114621Y60287D01*
G01X114648Y60188D01*
G01X114675Y60098D01*
G01X114702Y60019D01*
G01X114727Y59954D01*
G01X114751Y59905D01*
G01X114771Y59874D01*
G01X114787Y59863D01*
G01X114810Y59866D01*
G01X114846Y59875D01*
G01X114894Y59891D01*
G01X114952Y59910D01*
G01X115019Y59934D01*
G01X115093Y59962D01*
G01X115171Y59992D01*
G01X115251Y60025D01*
G01X115293Y60041D01*
G01X115335Y60056D01*
G01X115425Y60084D01*
G01X115473Y60096D01*
G01X115522Y60108D01*
G01X115574Y60119D01*
G01X115626Y60129D01*
G01X115681Y60138D01*
G01X115738Y60146D01*
G01X115797Y60154D01*
G01X115857Y60160D01*
G01X115920Y60167D01*
G01X115984Y60172D01*
G01X116051Y60176D01*
G01X116119Y60179D01*
G01X116190Y60182D01*
G01X116263Y60184D01*
G01X116338Y60185D01*
G01X116416Y60185D01*
G01X117185Y60183D01*
G01X117128Y60462D01*
G01X117117Y60514D01*
G01X117107Y60568D01*
G01X117096Y60624D01*
G01X117085Y60681D01*
G01X117075Y60740D01*
G01X117065Y60800D01*
G01X117054Y60862D01*
G01X117044Y60925D01*
G01X117034Y60989D01*
G01X117023Y61054D01*
G01X117003Y61188D01*
G01X116973Y61395D01*
G01X116964Y61466D01*
G01X116954Y61537D01*
G01X116936Y61680D01*
G01X116927Y61752D01*
G01X116901Y61968D01*
G01X116893Y62041D01*
G01X116885Y62113D01*
G01X116878Y62184D01*
G01X116870Y62255D01*
G01X116863Y62327D01*
G01X116856Y62397D01*
G01X116849Y62466D01*
G01X116837Y62604D01*
G01X116831Y62671D01*
G01X116826Y62738D01*
G01X116821Y62803D01*
G01X116816Y62867D01*
G01X116812Y62930D01*
G01X116807Y62992D01*
G01X116801Y63110D01*
G01X116798Y63167D01*
G01X116795Y63223D01*
G01X116793Y63276D01*
G01X116792Y63328D01*
G01X116789Y63423D01*
G01X116785Y63609D01*
G01X116783Y63701D01*
G01X116782Y63792D01*
G01X116781Y63882D01*
G01X116780Y63971D01*
G01X116779Y64059D01*
G01X116779Y64145D01*
G01X116778Y64229D01*
G01X116779Y64313D01*
G01X116779Y64474D01*
G01X116780Y64553D01*
G01X116781Y64629D01*
G01X116782Y64703D01*
G01X116784Y64776D01*
G01X116785Y64846D01*
G01X116787Y64914D01*
G01X116789Y64980D01*
G01X116791Y65044D01*
G01X116794Y65105D01*
G01X116796Y65163D01*
G01X116799Y65219D01*
G01X116802Y65272D01*
G01X116805Y65322D01*
G01X116809Y65370D01*
G01X116813Y65414D01*
G01X116817Y65456D01*
G01X116821Y65494D01*
G01X116825Y65529D01*
G01X116829Y65560D01*
G01X116834Y65589D01*
G01X116838Y65613D01*
G01X116844Y65635D01*
G01X116849Y65652D01*
G01X116854Y65666D01*
G01X116859Y65676D01*
G01X116865Y65682D01*
G01X116870Y65683D01*
G01X116879Y65682D01*
G01X116888Y65678D01*
G01X116899Y65670D01*
G01X116911Y65661D01*
G01X116925Y65648D01*
G01X116940Y65633D01*
G01X116956Y65615D01*
G01X116974Y65595D01*
G01X116992Y65573D01*
G01X117012Y65548D01*
G01X117033Y65520D01*
G01X117055Y65491D01*
G01X117078Y65459D01*
G01X117103Y65425D01*
G01X117128Y65390D01*
G01X117154Y65352D01*
G01X117181Y65313D01*
G01X117209Y65271D01*
G01X117238Y65227D01*
G01X117268Y65183D01*
G01X117298Y65135D01*
G01X117329Y65087D01*
G01X117361Y65037D01*
G01X117427Y64933D01*
G01X117461Y64878D01*
G01X117496Y64822D01*
G01X117530Y64765D01*
G01X117566Y64708D01*
G01X117602Y64648D01*
G01X117639Y64588D01*
G01X117713Y64464D01*
G01X117750Y64401D01*
G01X117788Y64336D01*
G01X117826Y64272D01*
G01X117865Y64206D01*
G01X117903Y64140D01*
G01X117942Y64073D01*
G01X118019Y63937D01*
G01X118097Y63800D01*
G01X118175Y63662D01*
G01X118291Y63453D01*
G01X118367Y63314D01*
G01X118405Y63244D01*
G01X118479Y63106D01*
G01X118552Y62969D01*
G01X118588Y62901D01*
G01X118624Y62834D01*
G01X118659Y62767D01*
G01X118693Y62700D01*
G01X118727Y62635D01*
G01X118760Y62570D01*
G01X118855Y62380D01*
G01X118915Y62258D01*
G01X118943Y62199D01*
G01X118971Y62141D01*
G01X118998Y62084D01*
G01X119024Y62028D01*
G01X119049Y61974D01*
G01X119073Y61921D01*
G01X119118Y61819D01*
G01X119161Y61727D01*
G01X119199Y61644D01*
G01X119235Y61569D01*
G01X119268Y61501D01*
G01X119300Y61441D01*
G01X119329Y61388D01*
G01X119358Y61342D01*
G01X119385Y61301D01*
G01X119412Y61265D01*
G01X119439Y61235D01*
G01X119466Y61208D01*
G01X119494Y61187D01*
G01X119523Y61167D01*
G01X119553Y61152D01*
G01X119586Y61138D01*
G01X119621Y61127D01*
G01X119658Y61116D01*
G01X119699Y61107D01*
G01X119743Y61099D01*
G01X119802Y61089D01*
G01X119859Y61082D01*
G01X119913Y61079D01*
G01X119967Y61080D01*
G01X120020Y61083D01*
G01X120072Y61091D01*
G01X120125Y61102D01*
G01X120178Y61116D01*
G01X120231Y61134D01*
G01X120286Y61157D01*
G01X120343Y61183D01*
G01X120401Y61212D01*
G01X120450Y61239D01*
G01X120496Y61268D01*
G01X120541Y61299D01*
G01X120583Y61330D01*
G01X120624Y61364D01*
G01X120662Y61399D01*
G01X120699Y61436D01*
G01X120733Y61475D01*
G01X120766Y61515D01*
G01X120796Y61557D01*
G01X120825Y61602D01*
G01X120852Y61648D01*
G01X120878Y61697D01*
G01X120901Y61747D01*
G01X120922Y61800D01*
G01X120942Y61855D01*
G01X120960Y61913D01*
G01X120977Y61972D01*
G01X120991Y62034D01*
G01X121004Y62099D01*
G01X121016Y62167D01*
G01X121025Y62236D01*
G01X121034Y62309D01*
G01X121040Y62384D01*
G01X121045Y62462D01*
G01X121049Y62543D01*
G01X121051Y62627D01*
G01X121052Y62713D01*
G01X121052Y63392D01*
G01X119874Y64565D01*
G01X119820Y64618D01*
G01X119661Y64774D01*
G01X119610Y64824D01*
G01X119557Y64874D01*
G01X119455Y64973D01*
G01X119403Y65020D01*
G01X119353Y65068D01*
G01X119302Y65115D01*
G01X119253Y65161D01*
G01X119203Y65207D01*
G01X119153Y65252D01*
G01X119104Y65297D01*
G01X119055Y65340D01*
G01X119007Y65384D01*
G01X118958Y65426D01*
G01X118910Y65469D01*
G01X118862Y65510D01*
G01X118721Y65630D01*
G01X118675Y65669D01*
G01X118583Y65745D01*
G01X118537Y65782D01*
G01X118492Y65819D01*
G01X118403Y65890D01*
G01X118358Y65925D01*
G01X118314Y65959D01*
G01X118271Y65992D01*
G01X118227Y66025D01*
G01X118140Y66089D01*
G01X118056Y66151D01*
G01X118014Y66181D01*
G01X117972Y66210D01*
G01X117931Y66239D01*
G01X117890Y66267D01*
G01X117848Y66294D01*
G01X117808Y66321D01*
G01X116920Y66904D01*
G01X117904Y67889D01*
G01X117988Y67973D01*
G01X118031Y68018D01*
G01X118074Y68062D01*
G01X118117Y68108D01*
G01X118161Y68153D01*
G01X118204Y68200D01*
G01X118248Y68247D01*
G01X118292Y68295D01*
G01X118381Y68392D01*
G01X118513Y68539D01*
G01X118644Y68689D01*
G01X118688Y68739D01*
G01X118773Y68839D01*
G01X118815Y68888D01*
G01X118897Y68987D01*
G01X118938Y69036D01*
G01X118978Y69085D01*
G01X119056Y69181D01*
G01X119093Y69228D01*
G01X119131Y69275D01*
G01X119167Y69321D01*
G01X119202Y69367D01*
G01X119237Y69412D01*
G01X119270Y69456D01*
G01X119303Y69499D01*
G01X119334Y69541D01*
G01X119364Y69583D01*
G01X119394Y69623D01*
G01X119422Y69663D01*
G01X119448Y69701D01*
G01X119474Y69738D01*
G01X119527Y69816D01*
G01X119577Y69891D01*
G01X119624Y69960D01*
G01X119668Y70025D01*
G01X119708Y70087D01*
G01X119746Y70146D01*
G01X119781Y70201D01*
G01X119814Y70253D01*
G01X119845Y70304D01*
G01X119873Y70352D01*
G01X119899Y70399D01*
G01X119923Y70444D01*
G01X119945Y70488D01*
G01X119966Y70532D01*
G01X119985Y70575D01*
G01X120002Y70618D01*
G01X120018Y70662D01*
G01X120033Y70706D01*
G01X120046Y70751D01*
G01X120059Y70798D01*
G01X120071Y70846D01*
G01X120082Y70896D01*
G01X120092Y70949D01*
G01X120102Y71005D01*
G01X120112Y71064D01*
G01X120122Y71125D01*
G01X120131Y71191D01*
G01X120140Y71261D01*
G01X120151Y71334D01*
G01X120160Y71413D01*
G01X120171Y71497D01*
G01X120189Y71643D01*
G01X120196Y71700D01*
G01X120203Y71758D01*
G01X120210Y71815D01*
G01X120216Y71873D01*
G01X120223Y71931D01*
G01X120235Y72049D01*
G01X120242Y72108D01*
G01X120266Y72348D01*
G01X120284Y72531D01*
G01X120295Y72654D01*
G01X120300Y72716D01*
G01X120306Y72778D01*
G01X120311Y72841D01*
G01X120316Y72903D01*
G01X120336Y73155D01*
G01X120341Y73219D01*
G01X120345Y73283D01*
G01X120350Y73346D01*
G01X120354Y73410D01*
G01X120359Y73475D01*
G01X120363Y73539D01*
G01X120368Y73603D01*
G01X120376Y73732D01*
G01X120380Y73797D01*
G01X120383Y73862D01*
G01X120387Y73927D01*
G01X120398Y74122D01*
G01X120402Y74188D01*
G01X120408Y74318D01*
G01X120414Y74449D01*
G01X120423Y74647D01*
G01X120431Y74843D01*
G01X120435Y74975D01*
G01X120445Y75302D01*
G01X120447Y75368D01*
G01X120448Y75433D01*
G01X120450Y75498D01*
G01X120453Y75629D01*
G01X120456Y75824D01*
G01X120457Y75888D01*
G01X120458Y75953D01*
G01X120459Y76017D01*
G01X120460Y76082D01*
G01X120461Y76274D01*
G01X120461Y76401D01*
G01X120462Y76464D01*
G01X120462Y76528D01*
G01X120461Y76591D01*
G01X120461Y76654D01*
G01X120460Y76779D01*
G01X120459Y76903D01*
G01X120458Y76965D01*
G01X120453Y77270D01*
G01X120448Y77450D01*
G01X120447Y77509D01*
G01X120443Y77627D01*
G01X120435Y77859D01*
G01X120432Y77916D01*
G01X120430Y77973D01*
G01X120421Y78141D01*
G01X120412Y78306D01*
G01X120407Y78401D01*
G01X120401Y78495D01*
G01X120396Y78588D01*
G01X120389Y78680D01*
G01X120384Y78771D01*
G01X120378Y78861D01*
G01X120372Y78950D01*
G01X120366Y79037D01*
G01X120360Y79123D01*
G01X120354Y79207D01*
G01X120349Y79289D01*
G01X120343Y79369D01*
G01X120337Y79447D01*
G01X120331Y79523D01*
G01X120326Y79596D01*
G01X120320Y79668D01*
G01X120315Y79736D01*
G01X120310Y79801D01*
G01X120305Y79864D01*
G01X120299Y79924D01*
G01X120294Y79980D01*
G01X120290Y80033D01*
G01X120285Y80083D01*
G01X120281Y80129D01*
G01X120276Y80172D01*
G01X120272Y80211D01*
G01X120269Y80245D01*
G01X120264Y80276D01*
G01X120261Y80303D01*
G01X120258Y80324D01*
G01X120255Y80342D01*
G01X120252Y80355D01*
G01X120247Y80371D01*
G01X120242Y80384D01*
G01X120234Y80393D01*
G01X120227Y80399D01*
G01X120218Y80401D01*
G01X120207Y80400D01*
G01X120196Y80395D01*
G01X120183Y80385D01*
G01X120168Y80372D01*
G01X120152Y80354D01*
G01X120134Y80333D01*
G01X120116Y80306D01*
G01X120094Y80276D01*
G01X120071Y80240D01*
G01X120047Y80201D01*
G01X120021Y80155D01*
G01X119992Y80106D01*
G01X119961Y80051D01*
G01X119928Y79991D01*
G01X119893Y79926D01*
G01X119855Y79855D01*
G01X119816Y79778D01*
G01X119774Y79697D01*
G01X119729Y79609D01*
G01X119682Y79516D01*
G01X119631Y79416D01*
G01X119579Y79311D01*
G01X119524Y79199D01*
G01X119444Y79039D01*
G01X119403Y78960D01*
G01X119363Y78882D01*
G01X119283Y78728D01*
G01X119243Y78653D01*
G01X119204Y78579D01*
G01X119165Y78507D01*
G01X119127Y78436D01*
G01X119089Y78368D01*
G01X119052Y78301D01*
G01X119016Y78236D01*
G01X118980Y78174D01*
G01X118946Y78114D01*
G01X118912Y78057D01*
G01X118880Y78002D01*
G01X118849Y77951D01*
G01X118819Y77902D01*
G01X118791Y77856D01*
G01X118764Y77814D01*
G01X118738Y77775D01*
G01X118715Y77740D01*
G01X118693Y77709D01*
G01X118673Y77682D01*
G01X118655Y77659D01*
G01X118638Y77640D01*
G01X118624Y77625D01*
G01X118401Y77416D01*
G01X118341Y78735D01*
G01X118335Y78867D01*
G01X118331Y78933D01*
G01X118328Y78999D01*
G01X118321Y79131D01*
G01X118317Y79196D01*
G01X118305Y79394D01*
G01X118300Y79460D01*
G01X118291Y79591D01*
G01X118286Y79657D01*
G01X118266Y79919D01*
G01X118260Y79984D01*
G01X118255Y80050D01*
G01X118244Y80180D01*
G01X118238Y80245D01*
G01X118231Y80310D01*
G01X118219Y80440D01*
G01X118213Y80504D01*
G01X118193Y80698D01*
G01X118186Y80762D01*
G01X118180Y80826D01*
G01X118172Y80890D01*
G01X118158Y81018D01*
G01X118151Y81081D01*
G01X118135Y81208D01*
G01X118128Y81271D01*
G01X118112Y81397D01*
G01X118087Y81585D01*
G01X118079Y81647D01*
G01X118070Y81709D01*
G01X118062Y81771D01*
G01X118053Y81833D01*
G01X118017Y82077D01*
G01X118007Y82138D01*
G01X117989Y82258D01*
G01X117969Y82378D01*
G01X117960Y82438D01*
G01X117940Y82556D01*
G01X117909Y82731D01*
G01X117889Y82847D01*
G01X117867Y82962D01*
G01X117857Y83019D01*
G01X117845Y83076D01*
G01X117835Y83132D01*
G01X117812Y83244D01*
G01X117801Y83299D01*
G01X117789Y83355D01*
G01X117778Y83410D01*
G01X117767Y83464D01*
G01X117755Y83519D01*
G01X117743Y83573D01*
G01X117732Y83626D01*
G01X117719Y83679D01*
G01X117708Y83733D01*
G01X117695Y83785D01*
G01X117683Y83838D01*
G01X117671Y83890D01*
G01X117653Y83964D01*
G01X117637Y84017D01*
G01X117621Y84045D01*
G01X117602Y84049D01*
G01X117578Y84027D01*
G01X117546Y83979D01*
G01X117504Y83902D01*
G01X117450Y83797D01*
G01X117412Y83729D01*
G01X117370Y83659D01*
G01X117326Y83589D01*
G01X117279Y83521D01*
G01X117233Y83458D01*
G01X117187Y83401D01*
G01X117144Y83352D01*
G01X117105Y83313D01*
G01X117048Y83262D01*
G01X117002Y83229D01*
G01X116964Y83212D01*
G01X116931Y83216D01*
G01X116899Y83240D01*
G01X116866Y83287D01*
G01X116827Y83356D01*
G01X116779Y83451D01*
G01X116764Y83479D01*
G01X116746Y83510D01*
G01X116724Y83546D01*
G01X116698Y83586D01*
G01X116669Y83630D01*
G01X116636Y83677D01*
G01X116601Y83727D01*
G01X116563Y83780D01*
G01X116522Y83836D01*
G01X116479Y83894D01*
G01X116434Y83954D01*
G01X116386Y84015D01*
G01X116338Y84079D01*
G01X116287Y84143D01*
G01X116235Y84208D01*
G01X116183Y84274D01*
G01X116075Y84406D01*
G01X116021Y84471D01*
G01X115966Y84536D01*
G01X115916Y84596D01*
G01X115867Y84655D01*
G01X115819Y84715D01*
G01X115772Y84773D01*
G01X115725Y84832D01*
G01X115680Y84890D01*
G01X115636Y84948D01*
G01X115593Y85006D01*
G01X115551Y85063D01*
G01X115469Y85177D01*
G01X115430Y85234D01*
G01X115392Y85290D01*
G01X115355Y85346D01*
G01X115319Y85402D01*
G01X115283Y85457D01*
G01X115249Y85513D01*
G01X115216Y85568D01*
G01X115152Y85676D01*
G01X115122Y85730D01*
G01X115093Y85784D01*
G01X115065Y85837D01*
G01X115038Y85890D01*
G01X115012Y85943D01*
G01X114986Y85995D01*
G01X114962Y86047D01*
G01X114939Y86099D01*
G01X114917Y86150D01*
G01X114896Y86201D01*
G01X114876Y86252D01*
G01X114857Y86302D01*
G01X114839Y86352D01*
G01X114822Y86402D01*
G01X114806Y86451D01*
G01X114791Y86500D01*
G01X114777Y86548D01*
G01X114764Y86596D01*
G01X114742Y86692D01*
G01X114732Y86738D01*
G01X114724Y86785D01*
G01X114716Y86831D01*
G01X114709Y86878D01*
G01X114696Y86960D01*
G01X114682Y87032D01*
G01X114666Y87091D01*
G01X114649Y87137D01*
G01X114632Y87173D01*
G01X114613Y87196D01*
G01X114596Y87208D01*
G01X114578Y87208D01*
G01X114561Y87197D01*
G01X114545Y87174D01*
G01X114531Y87141D01*
G01X114518Y87096D01*
G01X114508Y87040D01*
G01X114500Y86974D01*
G01X114495Y86896D01*
G01X114493Y86809D01*
G01X114491Y86749D01*
G01X114486Y86686D01*
G01X114479Y86621D01*
G01X114469Y86553D01*
G01X114456Y86484D01*
G01X114442Y86415D01*
G01X114426Y86345D01*
G01X114408Y86275D01*
G01X114389Y86205D01*
G01X114368Y86136D01*
G01X114346Y86070D01*
G01X114323Y86005D01*
G01X114299Y85943D01*
G01X114275Y85884D01*
G01X114250Y85828D01*
G01X114224Y85777D01*
G01X114199Y85730D01*
G01X114174Y85688D01*
G01X114150Y85652D01*
G01X114125Y85622D01*
G01X114101Y85599D01*
G01X114079Y85582D01*
G01X114057Y85574D01*
G01X114037Y85574D01*
G01X114016Y85579D01*
G01X113995Y85589D01*
G01X113972Y85603D01*
G01X113949Y85621D01*
G01X113926Y85642D01*
G01X113901Y85667D01*
G01X113875Y85696D01*
G01X113849Y85729D01*
G01X113822Y85765D01*
G01X113795Y85804D01*
G01X113766Y85847D01*
G01X113738Y85893D01*
G01X113708Y85942D01*
G01X113679Y85995D01*
G01X113648Y86051D01*
G01X113618Y86110D01*
G01X113587Y86172D01*
G01X113555Y86237D01*
G01X113524Y86304D01*
G01X113492Y86375D01*
G01X113460Y86448D01*
G01X113427Y86524D01*
G01X113395Y86602D01*
G01X113362Y86683D01*
G01X113329Y86767D01*
G01X113296Y86853D01*
G01X113264Y86941D01*
G01X113231Y87032D01*
G01X113196Y87128D01*
G01X113162Y87219D01*
G01X113130Y87304D01*
G01X113099Y87383D01*
G01X113070Y87455D01*
G01X113042Y87522D01*
G01X113016Y87582D01*
G01X112992Y87636D01*
G01X112969Y87684D01*
G01X112948Y87725D01*
G01X112929Y87760D01*
G01X112912Y87788D01*
G01X112896Y87810D01*
G01X112883Y87825D01*
G01X112872Y87833D01*
G37*

%LPC*%
G36*
G01X115045Y72400D02*
G01X114969Y72406D01*
G01X114906Y72399D01*
G01X114855Y72379D01*
G01X114816Y72345D01*
G01X114789Y72298D01*
G01X114773Y72237D01*
G01X114768Y72161D01*
G01X114765Y72126D01*
G01X114757Y72084D01*
G01X114744Y72035D01*
G01X114728Y71982D01*
G01X114707Y71925D01*
G01X114685Y71868D01*
G01X114659Y71810D01*
G01X114610Y71713D01*
G01X114592Y71673D01*
G01X114576Y71635D01*
G01X114565Y71599D01*
G01X114557Y71562D01*
G01X114551Y71525D01*
G01X114550Y71486D01*
G01X114553Y71444D01*
G01X114559Y71399D01*
G01X114569Y71349D01*
G01X114584Y71294D01*
G01X114602Y71233D01*
G01X114625Y71164D01*
G01X114652Y71087D01*
G01X114683Y71002D01*
G01X114719Y70906D01*
G01X114743Y70843D01*
G01X114768Y70780D01*
G01X114795Y70716D01*
G01X114823Y70652D01*
G01X114852Y70588D01*
G01X114882Y70523D01*
G01X114913Y70458D01*
G01X114977Y70328D01*
G01X115045Y70199D01*
G01X115080Y70135D01*
G01X115151Y70009D01*
G01X115188Y69947D01*
G01X115225Y69886D01*
G01X115262Y69826D01*
G01X115299Y69767D01*
G01X115337Y69709D01*
G01X115374Y69653D01*
G01X115412Y69598D01*
G01X115450Y69544D01*
G01X115487Y69493D01*
G01X115525Y69443D01*
G01X115562Y69394D01*
G01X115598Y69349D01*
G01X115635Y69304D01*
G01X115671Y69263D01*
G01X115706Y69223D01*
G01X115741Y69186D01*
G01X115775Y69152D01*
G01X115809Y69120D01*
G01X116043Y68905D01*
G01X116751Y70303D01*
G01X116801Y70402D01*
G01X116849Y70498D01*
G01X116895Y70592D01*
G01X116940Y70682D01*
G01X116982Y70768D01*
G01X117022Y70852D01*
G01X117060Y70933D01*
G01X117097Y71011D01*
G01X117132Y71086D01*
G01X117165Y71158D01*
G01X117195Y71227D01*
G01X117224Y71293D01*
G01X117251Y71356D01*
G01X117276Y71416D01*
G01X117300Y71474D01*
G01X117321Y71528D01*
G01X117340Y71579D01*
G01X117358Y71628D01*
G01X117374Y71673D01*
G01X117388Y71715D01*
G01X117399Y71755D01*
G01X117409Y71792D01*
G01X117418Y71825D01*
G01X117424Y71856D01*
G01X117428Y71884D01*
G01X117431Y71909D01*
G01X117432Y71931D01*
G01X117431Y71951D01*
G01X117424Y72005D01*
G01X117416Y72052D01*
G01X117404Y72089D01*
G01X117389Y72120D01*
G01X117368Y72143D01*
G01X117340Y72160D01*
G01X117304Y72172D01*
G01X117257Y72179D01*
G01X117199Y72181D01*
G01X117128Y72180D01*
G01X117042Y72177D01*
G01X116940Y72171D01*
G01X116890Y72168D01*
G01X116836Y72166D01*
G01X116717Y72166D01*
G01X116653Y72168D01*
G01X116587Y72170D01*
G01X116451Y72176D01*
G01X116381Y72181D01*
G01X116312Y72186D01*
G01X116243Y72192D01*
G01X116175Y72199D01*
G01X116108Y72206D01*
G01X116044Y72214D01*
G01X115983Y72222D01*
G01X115924Y72232D01*
G01X115846Y72244D01*
G01X115768Y72257D01*
G01X115689Y72271D01*
G01X115612Y72285D01*
G01X115536Y72299D01*
G01X115463Y72313D01*
G01X115394Y72326D01*
G01X115329Y72339D01*
G01X115270Y72351D01*
G01X115217Y72362D01*
G01X115172Y72372D01*
G01X115135Y72381D01*
G01X115045Y72400D01*
G37*
G36*
G01X111262Y72779D02*
G01X111228Y72782D01*
G01X111186Y72780D01*
G01X111137Y72772D01*
G01X111079Y72759D01*
G01X111012Y72741D01*
G01X110934Y72717D01*
G01X110845Y72688D01*
G01X110745Y72654D01*
G01X110633Y72615D01*
G01X110581Y72597D01*
G01X110527Y72578D01*
G01X110471Y72561D01*
G01X110412Y72542D01*
G01X110352Y72525D01*
G01X110291Y72507D01*
G01X110230Y72491D01*
G01X110168Y72474D01*
G01X110107Y72459D01*
G01X110048Y72444D01*
G01X109989Y72430D01*
G01X109932Y72417D01*
G01X109877Y72406D01*
G01X109826Y72396D01*
G01X109777Y72387D01*
G01X109732Y72380D01*
G01X109641Y72366D01*
G01X109564Y72352D01*
G01X109501Y72338D01*
G01X109449Y72323D01*
G01X109408Y72305D01*
G01X109376Y72283D01*
G01X109353Y72257D01*
G01X109336Y72225D01*
G01X109326Y72187D01*
G01X109320Y72140D01*
G01X109317Y72085D01*
G01X109316Y72020D01*
G01X109314Y71975D01*
G01X109308Y71925D01*
G01X109298Y71869D01*
G01X109285Y71808D01*
G01X109268Y71744D01*
G01X109249Y71677D01*
G01X109227Y71609D01*
G01X109202Y71539D01*
G01X109176Y71470D01*
G01X109148Y71401D01*
G01X109118Y71334D01*
G01X109087Y71270D01*
G01X108858Y70818D01*
G01X109394Y70298D01*
G01X109450Y70243D01*
G01X109506Y70192D01*
G01X109560Y70143D01*
G01X109613Y70095D01*
G01X109666Y70051D01*
G01X109717Y70009D01*
G01X109769Y69968D01*
G01X109819Y69930D01*
G01X109870Y69894D01*
G01X109920Y69860D01*
G01X109969Y69828D01*
G01X110019Y69798D01*
G01X110068Y69769D01*
G01X110118Y69742D01*
G01X110168Y69717D01*
G01X110218Y69693D01*
G01X110269Y69671D01*
G01X110320Y69650D01*
G01X110371Y69631D01*
G01X110423Y69613D01*
G01X110533Y69577D01*
G01X110626Y69547D01*
G01X110704Y69524D01*
G01X110768Y69508D01*
G01X110822Y69498D01*
G01X110866Y69495D01*
G01X110903Y69498D01*
G01X110933Y69509D01*
G01X110961Y69526D01*
G01X110987Y69550D01*
G01X111013Y69580D01*
G01X111041Y69617D01*
G01X111053Y69636D01*
G01X111068Y69661D01*
G01X111084Y69694D01*
G01X111104Y69733D01*
G01X111126Y69777D01*
G01X111149Y69828D01*
G01X111174Y69884D01*
G01X111201Y69943D01*
G01X111229Y70009D01*
G01X111259Y70077D01*
G01X111289Y70149D01*
G01X111321Y70223D01*
G01X111353Y70301D01*
G01X111386Y70380D01*
G01X111419Y70461D01*
G01X111453Y70543D01*
G01X111520Y70710D01*
G01X111586Y70876D01*
G01X111618Y70958D01*
G01X111649Y71039D01*
G01X111679Y71118D01*
G01X111708Y71194D01*
G01X111736Y71268D01*
G01X111762Y71339D01*
G01X111786Y71407D01*
G01X111809Y71470D01*
G01X111830Y71528D01*
G01X111848Y71583D01*
G01X111865Y71632D01*
G01X111878Y71674D01*
G01X111889Y71711D01*
G01X111897Y71742D01*
G01X111902Y71765D01*
G01X111904Y71781D01*
G01X111898Y71803D01*
G01X111881Y71834D01*
G01X111856Y71874D01*
G01X111822Y71920D01*
G01X111781Y71970D01*
G01X111734Y72025D01*
G01X111682Y72082D01*
G01X111626Y72139D01*
G01X111571Y72199D01*
G01X111519Y72262D01*
G01X111471Y72327D01*
G01X111430Y72392D01*
G01X111397Y72454D01*
G01X111371Y72512D01*
G01X111355Y72564D01*
G01X111349Y72608D01*
G01X111348Y72649D01*
G01X111344Y72684D01*
G01X111337Y72714D01*
G01X111326Y72738D01*
G01X111310Y72757D01*
G01X111289Y72771D01*
G01X111262Y72779D01*
G37*

%LPD*%
G36*
G01X67195Y12714D02*
G01X67127Y12715D01*
G01X67079Y12713D01*
G01X67030Y12706D01*
G01X66979Y12694D01*
G01X66927Y12679D01*
G01X66874Y12658D01*
G01X66819Y12633D01*
G01X66763Y12605D01*
G01X66707Y12571D01*
G01X66650Y12534D01*
G01X66592Y12492D01*
G01X66534Y12447D01*
G01X66475Y12397D01*
G01X66433Y12359D01*
G01X66392Y12318D01*
G01X66351Y12276D01*
G01X66312Y12232D01*
G01X66274Y12187D01*
G01X66237Y12140D01*
G01X66201Y12092D01*
G01X66166Y12043D01*
G01X66132Y11992D01*
G01X66100Y11940D01*
G01X66069Y11887D01*
G01X66039Y11832D01*
G01X66010Y11777D01*
G01X65982Y11722D01*
G01X65956Y11665D01*
G01X65930Y11607D01*
G01X65906Y11549D01*
G01X65862Y11431D01*
G01X65841Y11371D01*
G01X65822Y11310D01*
G01X65804Y11250D01*
G01X65788Y11189D01*
G01X65772Y11127D01*
G01X65758Y11066D01*
G01X65745Y11005D01*
G01X65734Y10943D01*
G01X65714Y10821D01*
G01X65707Y10760D01*
G01X65701Y10700D01*
G01X65696Y10640D01*
G01X65692Y10580D01*
G01X65689Y10521D01*
G01X65689Y10404D01*
G01X65691Y10347D01*
G01X65694Y10291D01*
G01X65699Y10236D01*
G01X65705Y10181D01*
G01X65712Y10127D01*
G01X65721Y10075D01*
G01X65731Y10024D01*
G01X65743Y9974D01*
G01X65756Y9925D01*
G01X65771Y9878D01*
G01X65787Y9831D01*
G01X65804Y9787D01*
G01X65823Y9744D01*
G01X65843Y9703D01*
G01X65866Y9664D01*
G01X65889Y9626D01*
G01X65914Y9590D01*
G01X65940Y9556D01*
G01X65968Y9525D01*
G01X65998Y9495D01*
G01X66029Y9467D01*
G01X66061Y9442D01*
G01X66095Y9418D01*
G01X66131Y9398D01*
G01X66171Y9378D01*
G01X66215Y9361D01*
G01X66262Y9345D01*
G01X66312Y9331D01*
G01X66365Y9319D01*
G01X66421Y9309D01*
G01X66478Y9301D01*
G01X66537Y9294D01*
G01X66598Y9289D01*
G01X66661Y9286D01*
G01X66724Y9285D01*
G01X66788Y9285D01*
G01X66852Y9287D01*
G01X66916Y9291D01*
G01X66980Y9296D01*
G01X67044Y9303D01*
G01X67107Y9311D01*
G01X67169Y9321D01*
G01X67229Y9333D01*
G01X67288Y9346D01*
G01X67344Y9360D01*
G01X67398Y9377D01*
G01X67450Y9394D01*
G01X67499Y9413D01*
G01X67545Y9434D01*
G01X67587Y9455D01*
G01X67625Y9479D01*
G01X67660Y9503D01*
G01X67716Y9549D01*
G01X67764Y9592D01*
G01X67803Y9632D01*
G01X67835Y9673D01*
G01X67860Y9716D01*
G01X67878Y9762D01*
G01X67891Y9815D01*
G01X67898Y9875D01*
G01X67901Y9944D01*
G01X67899Y10025D01*
G01X67894Y10118D01*
G01X67886Y10227D01*
G01X67843Y10740D01*
G01X68241Y10801D01*
G01X68345Y10818D01*
G01X68443Y10835D01*
G01X68535Y10853D01*
G01X68622Y10871D01*
G01X68702Y10890D01*
G01X68778Y10909D01*
G01X68848Y10930D01*
G01X68912Y10950D01*
G01X68971Y10972D01*
G01X69025Y10994D01*
G01X69073Y11016D01*
G01X69116Y11040D01*
G01X69154Y11064D01*
G01X69186Y11089D01*
G01X69213Y11115D01*
G01X69236Y11141D01*
G01X69254Y11168D01*
G01X69266Y11197D01*
G01X69273Y11226D01*
G01X69275Y11256D01*
G01X69275Y11284D01*
G01X69274Y11309D01*
G01X69273Y11332D01*
G01X69269Y11353D01*
G01X69264Y11371D01*
G01X69255Y11387D01*
G01X69243Y11400D01*
G01X69228Y11411D01*
G01X69208Y11419D01*
G01X69184Y11424D01*
G01X69154Y11427D01*
G01X69118Y11428D01*
G01X69076Y11426D01*
G01X69027Y11421D01*
G01X68971Y11414D01*
G01X68906Y11405D01*
G01X68833Y11392D01*
G01X68751Y11377D01*
G01X68659Y11359D01*
G01X68557Y11339D01*
G01X68445Y11316D01*
G01X68321Y11290D01*
G01X68186Y11262D01*
G01X68038Y11231D01*
G01X67932Y11209D01*
G01X67829Y11185D01*
G01X67731Y11162D01*
G01X67637Y11138D01*
G01X67548Y11115D01*
G01X67464Y11092D01*
G01X67387Y11069D01*
G01X67316Y11047D01*
G01X67252Y11026D01*
G01X67194Y11005D01*
G01X67144Y10986D01*
G01X67103Y10967D01*
G01X67070Y10949D01*
G01X67046Y10934D01*
G01X67031Y10919D01*
G01X67026Y10906D01*
G01X67031Y10879D01*
G01X67045Y10844D01*
G01X67068Y10804D01*
G01X67098Y10759D01*
G01X67134Y10711D01*
G01X67176Y10661D01*
G01X67222Y10612D01*
G01X67270Y10563D01*
G01X67316Y10519D01*
G01X67356Y10473D01*
G01X67391Y10428D01*
G01X67421Y10383D01*
G01X67447Y10338D01*
G01X67467Y10293D01*
G01X67483Y10249D01*
G01X67494Y10206D01*
G01X67501Y10163D01*
G01X67503Y10121D01*
G01X67500Y10081D01*
G01X67493Y10041D01*
G01X67482Y10003D01*
G01X67466Y9966D01*
G01X67447Y9931D01*
G01X67423Y9898D01*
G01X67395Y9866D01*
G01X67363Y9837D01*
G01X67327Y9809D01*
G01X67287Y9785D01*
G01X67244Y9762D01*
G01X67197Y9742D01*
G01X67146Y9725D01*
G01X67091Y9710D01*
G01X67033Y9699D01*
G01X66972Y9690D01*
G01X66907Y9685D01*
G01X66839Y9684D01*
G01X66777Y9685D01*
G01X66719Y9688D01*
G01X66664Y9694D01*
G01X66613Y9703D01*
G01X66564Y9714D01*
G01X66518Y9729D01*
G01X66475Y9746D01*
G01X66435Y9766D01*
G01X66398Y9789D01*
G01X66364Y9814D01*
G01X66332Y9843D01*
G01X66303Y9875D01*
G01X66277Y9910D01*
G01X66253Y9949D01*
G01X66232Y9990D01*
G01X66213Y10036D01*
G01X66197Y10084D01*
G01X66183Y10137D01*
G01X66172Y10192D01*
G01X66162Y10252D01*
G01X66155Y10315D01*
G01X66150Y10382D01*
G01X66147Y10453D01*
G01X66146Y10528D01*
G01X66147Y10589D01*
G01X66150Y10651D01*
G01X66156Y10713D01*
G01X66163Y10775D01*
G01X66173Y10838D01*
G01X66185Y10902D01*
G01X66199Y10965D01*
G01X66214Y11028D01*
G01X66231Y11091D01*
G01X66250Y11154D01*
G01X66271Y11217D01*
G01X66294Y11280D01*
G01X66318Y11342D01*
G01X66344Y11403D01*
G01X66372Y11464D01*
G01X66401Y11523D01*
G01X66431Y11582D01*
G01X66463Y11641D01*
G01X66497Y11698D01*
G01X66531Y11754D01*
G01X66567Y11808D01*
G01X66604Y11862D01*
G01X66642Y11914D01*
G01X66682Y11964D01*
G01X66723Y12013D01*
G01X66764Y12059D01*
G01X66807Y12105D01*
G01X66850Y12148D01*
G01X66894Y12189D01*
G01X66940Y12228D01*
G01X66986Y12265D01*
G01X67033Y12299D01*
G01X67113Y12358D01*
G01X67184Y12410D01*
G01X67244Y12458D01*
G01X67295Y12501D01*
G01X67335Y12539D01*
G01X67365Y12573D01*
G01X67385Y12603D01*
G01X67396Y12629D01*
G01X67396Y12651D01*
G01X67387Y12669D01*
G01X67368Y12684D01*
G01X67339Y12695D01*
G01X67300Y12705D01*
G01X67252Y12711D01*
G01X67195Y12714D01*
G37*

%LPD*%
G36*
G01X60938Y12765D02*
G01X60925Y12765D01*
G01X60913Y12758D01*
G01X60902Y12745D01*
G01X60892Y12725D01*
G01X60884Y12698D01*
G01X60878Y12665D01*
G01X60872Y12625D01*
G01X60868Y12579D01*
G01X60866Y12525D01*
G01X60865Y12465D01*
G01X60865Y12432D01*
G01X60866Y12395D01*
G01X60868Y12354D01*
G01X60870Y12310D01*
G01X60872Y12262D01*
G01X60875Y12212D01*
G01X60879Y12158D01*
G01X60883Y12102D01*
G01X60887Y12043D01*
G01X60892Y11981D01*
G01X60898Y11917D01*
G01X60904Y11852D01*
G01X60910Y11784D01*
G01X60916Y11713D01*
G01X60923Y11642D01*
G01X60931Y11568D01*
G01X60938Y11494D01*
G01X60946Y11418D01*
G01X60954Y11341D01*
G01X60963Y11263D01*
G01X60971Y11184D01*
G01X60980Y11104D01*
G01X60999Y10944D01*
G01X61008Y10864D01*
G01X61018Y10783D01*
G01X61037Y10622D01*
G01X61047Y10543D01*
G01X61058Y10463D01*
G01X61068Y10385D01*
G01X61077Y10307D01*
G01X61088Y10231D01*
G01X61098Y10155D01*
G01X61118Y10009D01*
G01X61128Y9938D01*
G01X61138Y9869D01*
G01X61148Y9802D01*
G01X61158Y9737D01*
G01X61167Y9675D01*
G01X61177Y9614D01*
G01X61186Y9557D01*
G01X61196Y9502D01*
G01X61204Y9450D01*
G01X61213Y9401D01*
G01X61222Y9355D01*
G01X61230Y9313D01*
G01X61238Y9274D01*
G01X61246Y9238D01*
G01X61253Y9207D01*
G01X61260Y9180D01*
G01X61288Y9084D01*
G01X61317Y8999D01*
G01X61348Y8925D01*
G01X61380Y8863D01*
G01X61413Y8811D01*
G01X61447Y8772D01*
G01X61482Y8744D01*
G01X61517Y8727D01*
G01X61553Y8723D01*
G01X61590Y8730D01*
G01X61627Y8750D01*
G01X61665Y8781D01*
G01X61670Y8789D01*
G01X61674Y8801D01*
G01X61678Y8816D01*
G01X61681Y8836D01*
G01X61683Y8860D01*
G01X61684Y8886D01*
G01X61685Y8916D01*
G01X61685Y8987D01*
G01X61684Y9027D01*
G01X61682Y9070D01*
G01X61679Y9116D01*
G01X61676Y9165D01*
G01X61673Y9216D01*
G01X61669Y9269D01*
G01X61664Y9325D01*
G01X61659Y9384D01*
G01X61652Y9444D01*
G01X61646Y9507D01*
G01X61639Y9571D01*
G01X61632Y9637D01*
G01X61624Y9705D01*
G01X61616Y9774D01*
G01X61607Y9845D01*
G01X61599Y9917D01*
G01X61589Y9990D01*
G01X61569Y10140D01*
G01X61558Y10215D01*
G01X61548Y10292D01*
G01X61537Y10369D01*
G01X61525Y10447D01*
G01X61514Y10525D01*
G01X61477Y10759D01*
G01X61452Y10915D01*
G01X61439Y10993D01*
G01X61425Y11069D01*
G01X61412Y11146D01*
G01X61399Y11221D01*
G01X61371Y11369D01*
G01X61358Y11441D01*
G01X61344Y11512D01*
G01X61330Y11582D01*
G01X61317Y11650D01*
G01X61303Y11717D01*
G01X61289Y11782D01*
G01X61275Y11845D01*
G01X61262Y11905D01*
G01X61248Y11964D01*
G01X61234Y12021D01*
G01X61221Y12075D01*
G01X61207Y12127D01*
G01X61185Y12211D01*
G01X61162Y12289D01*
G01X61140Y12361D01*
G01X61119Y12427D01*
G01X61098Y12488D01*
G01X61077Y12543D01*
G01X61057Y12592D01*
G01X61038Y12635D01*
G01X61019Y12672D01*
G01X61001Y12703D01*
G01X60984Y12728D01*
G01X60968Y12746D01*
G01X60952Y12759D01*
G01X60938Y12765D01*
G37*

%LPD*%
G36*
G01X64351Y13362D02*
G01X64331Y13367D01*
G01X64311Y13366D01*
G01X64292Y13361D01*
G01X64275Y13351D01*
G01X64258Y13338D01*
G01X64240Y13316D01*
G01X64224Y13291D01*
G01X64212Y13262D01*
G01X64203Y13230D01*
G01X64196Y13194D01*
G01X64193Y13155D01*
G01X64192Y13113D01*
G01X64194Y13067D01*
G01X64200Y13018D01*
G01X64208Y12965D01*
G01X64218Y12909D01*
G01X64232Y12850D01*
G01X64249Y12787D01*
G01X64268Y12721D01*
G01X64290Y12653D01*
G01X64315Y12581D01*
G01X64343Y12506D01*
G01X64374Y12428D01*
G01X64408Y12347D01*
G01X64468Y12207D01*
G01X64492Y12150D01*
G01X64516Y12092D01*
G01X64539Y12032D01*
G01X64561Y11972D01*
G01X64584Y11910D01*
G01X64606Y11847D01*
G01X64627Y11783D01*
G01X64649Y11718D01*
G01X64669Y11653D01*
G01X64690Y11586D01*
G01X64709Y11520D01*
G01X64728Y11453D01*
G01X64747Y11385D01*
G01X64783Y11250D01*
G01X64799Y11183D01*
G01X64831Y11047D01*
G01X64846Y10980D01*
G01X64873Y10847D01*
G01X64885Y10781D01*
G01X64897Y10716D01*
G01X64908Y10652D01*
G01X64918Y10589D01*
G01X64927Y10526D01*
G01X64936Y10465D01*
G01X64943Y10405D01*
G01X64950Y10346D01*
G01X64955Y10289D01*
G01X64959Y10233D01*
G01X64963Y10178D01*
G01X64966Y10125D01*
G01X64968Y10025D01*
G01X64967Y9903D01*
G01X64963Y9814D01*
G01X64956Y9753D01*
G01X64945Y9720D01*
G01X64926Y9713D01*
G01X64901Y9730D01*
G01X64866Y9769D01*
G01X64819Y9829D01*
G01X64811Y9841D01*
G01X64800Y9856D01*
G01X64788Y9876D01*
G01X64774Y9898D01*
G01X64757Y9924D01*
G01X64740Y9953D01*
G01X64721Y9985D01*
G01X64700Y10020D01*
G01X64678Y10058D01*
G01X64654Y10099D01*
G01X64628Y10143D01*
G01X64602Y10189D01*
G01X64574Y10238D01*
G01X64545Y10289D01*
G01X64514Y10342D01*
G01X64483Y10398D01*
G01X64451Y10455D01*
G01X64417Y10515D01*
G01X64383Y10576D01*
G01X64348Y10639D01*
G01X64312Y10704D01*
G01X64276Y10770D01*
G01X64239Y10837D01*
G01X64201Y10906D01*
G01X64162Y10976D01*
G01X64123Y11047D01*
G01X64084Y11120D01*
G01X64004Y11266D01*
G01X63963Y11341D01*
G01X63883Y11491D01*
G01X63836Y11578D01*
G01X63744Y11748D01*
G01X63654Y11912D01*
G01X63611Y11993D01*
G01X63568Y12072D01*
G01X63525Y12148D01*
G01X63484Y12224D01*
G01X63444Y12297D01*
G01X63405Y12368D01*
G01X63366Y12436D01*
G01X63330Y12502D01*
G01X63294Y12565D01*
G01X63260Y12626D01*
G01X63228Y12683D01*
G01X63197Y12738D01*
G01X63168Y12789D01*
G01X63141Y12837D01*
G01X63115Y12881D01*
G01X63092Y12921D01*
G01X63071Y12958D01*
G01X63051Y12990D01*
G01X63035Y13018D01*
G01X63019Y13042D01*
G01X63007Y13061D01*
G01X62998Y13076D01*
G01X62990Y13086D01*
G01X62970Y13109D01*
G01X62950Y13129D01*
G01X62932Y13144D01*
G01X62913Y13155D01*
G01X62896Y13162D01*
G01X62879Y13164D01*
G01X62863Y13161D01*
G01X62847Y13154D01*
G01X62832Y13142D01*
G01X62818Y13126D01*
G01X62804Y13105D01*
G01X62790Y13078D01*
G01X62777Y13047D01*
G01X62764Y13011D01*
G01X62752Y12969D01*
G01X62741Y12922D01*
G01X62729Y12870D01*
G01X62718Y12812D01*
G01X62708Y12749D01*
G01X62697Y12680D01*
G01X62687Y12606D01*
G01X62677Y12526D01*
G01X62667Y12439D01*
G01X62657Y12347D01*
G01X62648Y12249D01*
G01X62638Y12146D01*
G01X62629Y12036D01*
G01X62620Y11919D01*
G01X62616Y11861D01*
G01X62611Y11801D01*
G01X62606Y11740D01*
G01X62601Y11677D01*
G01X62595Y11614D01*
G01X62590Y11549D01*
G01X62578Y11417D01*
G01X62566Y11283D01*
G01X62559Y11215D01*
G01X62553Y11146D01*
G01X62540Y11009D01*
G01X62512Y10737D01*
G01X62491Y10539D01*
G01X62485Y10475D01*
G01X62477Y10412D01*
G01X62470Y10351D01*
G01X62464Y10290D01*
G01X62457Y10231D01*
G01X62450Y10174D01*
G01X62443Y10118D01*
G01X62437Y10065D01*
G01X62431Y10013D01*
G01X62424Y9964D01*
G01X62418Y9917D01*
G01X62404Y9805D01*
G01X62392Y9700D01*
G01X62380Y9601D01*
G01X62371Y9507D01*
G01X62364Y9418D01*
G01X62358Y9336D01*
G01X62354Y9259D01*
G01X62351Y9187D01*
G01X62351Y9121D01*
G01X62352Y9060D01*
G01X62354Y9004D01*
G01X62359Y8954D01*
G01X62365Y8909D01*
G01X62373Y8869D01*
G01X62383Y8833D01*
G01X62395Y8803D01*
G01X62408Y8777D01*
G01X62423Y8756D01*
G01X62440Y8740D01*
G01X62459Y8729D01*
G01X62479Y8722D01*
G01X62502Y8720D01*
G01X62526Y8722D01*
G01X62552Y8728D01*
G01X62573Y8738D01*
G01X62595Y8751D01*
G01X62617Y8770D01*
G01X62638Y8793D01*
G01X62659Y8820D01*
G01X62680Y8852D01*
G01X62701Y8887D01*
G01X62721Y8926D01*
G01X62741Y8969D01*
G01X62761Y9015D01*
G01X62780Y9065D01*
G01X62798Y9117D01*
G01X62817Y9173D01*
G01X62835Y9232D01*
G01X62852Y9293D01*
G01X62868Y9357D01*
G01X62884Y9424D01*
G01X62899Y9492D01*
G01X62914Y9564D01*
G01X62927Y9636D01*
G01X62940Y9711D01*
G01X62952Y9788D01*
G01X62964Y9866D01*
G01X62974Y9945D01*
G01X62983Y10026D01*
G01X62992Y10108D01*
G01X62999Y10190D01*
G01X63005Y10274D01*
G01X63010Y10358D01*
G01X63014Y10442D01*
G01X63017Y10527D01*
G01X63019Y10613D01*
G01X63020Y10697D01*
G01X63021Y10778D01*
G01X63022Y10856D01*
G01X63024Y10930D01*
G01X63026Y11000D01*
G01X63028Y11066D01*
G01X63031Y11129D01*
G01X63033Y11189D01*
G01X63036Y11244D01*
G01X63039Y11296D01*
G01X63043Y11345D01*
G01X63047Y11389D01*
G01X63052Y11431D01*
G01X63058Y11468D01*
G01X63064Y11502D01*
G01X63070Y11532D01*
G01X63077Y11558D01*
G01X63085Y11581D01*
G01X63094Y11600D01*
G01X63103Y11615D01*
G01X63113Y11627D01*
G01X63124Y11635D01*
G01X63136Y11639D01*
G01X63148Y11640D01*
G01X63162Y11637D01*
G01X63177Y11630D01*
G01X63193Y11619D01*
G01X63209Y11605D01*
G01X63227Y11587D01*
G01X63246Y11566D01*
G01X63266Y11540D01*
G01X63287Y11511D01*
G01X63310Y11478D01*
G01X63333Y11442D01*
G01X63359Y11401D01*
G01X63385Y11357D01*
G01X63413Y11310D01*
G01X63442Y11258D01*
G01X63473Y11203D01*
G01X63505Y11143D01*
G01X63538Y11081D01*
G01X63574Y11014D01*
G01X63610Y10944D01*
G01X63649Y10870D01*
G01X63688Y10792D01*
G01X63731Y10711D01*
G01X63774Y10625D01*
G01X63819Y10536D01*
G01X63873Y10431D01*
G01X63925Y10330D01*
G01X63976Y10231D01*
G01X64026Y10136D01*
G01X64075Y10045D01*
G01X64123Y9956D01*
G01X64169Y9871D01*
G01X64215Y9789D01*
G01X64259Y9710D01*
G01X64303Y9635D01*
G01X64345Y9562D01*
G01X64386Y9493D01*
G01X64427Y9426D01*
G01X64466Y9363D01*
G01X64504Y9303D01*
G01X64541Y9246D01*
G01X64578Y9192D01*
G01X64614Y9141D01*
G01X64648Y9093D01*
G01X64682Y9047D01*
G01X64715Y9005D01*
G01X64746Y8966D01*
G01X64778Y8929D01*
G01X64808Y8896D01*
G01X64837Y8865D01*
G01X64866Y8837D01*
G01X64893Y8811D01*
G01X64921Y8789D01*
G01X64947Y8769D01*
G01X64973Y8752D01*
G01X64998Y8738D01*
G01X65021Y8726D01*
G01X65045Y8717D01*
G01X65068Y8711D01*
G01X65090Y8707D01*
G01X65111Y8705D01*
G01X65134Y8707D01*
G01X65156Y8712D01*
G01X65176Y8721D01*
G01X65195Y8734D01*
G01X65213Y8750D01*
G01X65230Y8771D01*
G01X65245Y8796D01*
G01X65260Y8824D01*
G01X65273Y8859D01*
G01X65285Y8897D01*
G01X65296Y8940D01*
G01X65307Y8989D01*
G01X65316Y9042D01*
G01X65324Y9100D01*
G01X65332Y9164D01*
G01X65338Y9234D01*
G01X65344Y9310D01*
G01X65349Y9391D01*
G01X65353Y9478D01*
G01X65356Y9572D01*
G01X65359Y9672D01*
G01X65360Y9778D01*
G01X65362Y9891D01*
G01X65362Y10135D01*
G01X65361Y10196D01*
G01X65357Y10312D01*
G01X65355Y10369D01*
G01X65349Y10481D01*
G01X65345Y10535D01*
G01X65340Y10589D01*
G01X65335Y10644D01*
G01X65330Y10697D01*
G01X65324Y10751D01*
G01X65310Y10859D01*
G01X65301Y10913D01*
G01X65283Y11023D01*
G01X65272Y11078D01*
G01X65250Y11192D01*
G01X65237Y11251D01*
G01X65224Y11311D01*
G01X65209Y11371D01*
G01X65194Y11434D01*
G01X65178Y11497D01*
G01X65161Y11563D01*
G01X65143Y11630D01*
G01X65125Y11699D01*
G01X65105Y11770D01*
G01X65084Y11843D01*
G01X65063Y11918D01*
G01X65036Y12009D01*
G01X65009Y12097D01*
G01X64982Y12183D01*
G01X64954Y12267D01*
G01X64926Y12348D01*
G01X64899Y12427D01*
G01X64871Y12503D01*
G01X64843Y12576D01*
G01X64814Y12647D01*
G01X64786Y12715D01*
G01X64758Y12780D01*
G01X64730Y12842D01*
G01X64702Y12901D01*
G01X64675Y12957D01*
G01X64647Y13009D01*
G01X64620Y13059D01*
G01X64593Y13105D01*
G01X64566Y13148D01*
G01X64540Y13187D01*
G01X64514Y13222D01*
G01X64490Y13254D01*
G01X64465Y13282D01*
G01X64441Y13306D01*
G01X64417Y13326D01*
G01X64395Y13343D01*
G01X64373Y13354D01*
G01X64351Y13362D01*
G37*

%LPD*%
G36*
G01X59546Y12798D02*
G01X59498Y12805D01*
G01X59461Y12804D01*
G01X59434Y12793D01*
G01X59416Y12772D01*
G01X59408Y12739D01*
G01X59407Y12692D01*
G01X59413Y12631D01*
G01X59427Y12554D01*
G01X59433Y12522D01*
G01X59442Y12486D01*
G01X59452Y12445D01*
G01X59464Y12400D01*
G01X59478Y12351D01*
G01X59493Y12299D01*
G01X59509Y12244D01*
G01X59526Y12186D01*
G01X59545Y12127D01*
G01X59565Y12066D01*
G01X59584Y12005D01*
G01X59626Y11879D01*
G01X59648Y11817D01*
G01X59669Y11755D01*
G01X59691Y11695D01*
G01X59713Y11634D01*
G01X59733Y11576D01*
G01X59751Y11520D01*
G01X59768Y11467D01*
G01X59783Y11415D01*
G01X59798Y11365D01*
G01X59810Y11316D01*
G01X59821Y11267D01*
G01X59831Y11219D01*
G01X59839Y11170D01*
G01X59846Y11122D01*
G01X59852Y11072D01*
G01X59856Y11022D01*
G01X59859Y10970D01*
G01X59862Y10917D01*
G01X59862Y10804D01*
G01X59861Y10743D01*
G01X59859Y10679D01*
G01X59856Y10612D01*
G01X59852Y10541D01*
G01X59846Y10465D01*
G01X59840Y10386D01*
G01X59834Y10301D01*
G01X59824Y10191D01*
G01X59813Y10085D01*
G01X59802Y9985D01*
G01X59791Y9891D01*
G01X59779Y9805D01*
G01X59768Y9727D01*
G01X59756Y9658D01*
G01X59744Y9600D01*
G01X59733Y9552D01*
G01X59723Y9517D01*
G01X59713Y9496D01*
G01X59704Y9488D01*
G01X59697Y9492D01*
G01X59686Y9501D01*
G01X59672Y9517D01*
G01X59655Y9538D01*
G01X59634Y9564D01*
G01X59611Y9596D01*
G01X59584Y9632D01*
G01X59555Y9673D01*
G01X59523Y9719D01*
G01X59490Y9769D01*
G01X59416Y9880D01*
G01X59376Y9941D01*
G01X59334Y10005D01*
G01X59292Y10072D01*
G01X59248Y10142D01*
G01X59202Y10214D01*
G01X59156Y10288D01*
G01X59109Y10364D01*
G01X59061Y10442D01*
G01X59026Y10499D01*
G01X58990Y10556D01*
G01X58954Y10614D01*
G01X58878Y10732D01*
G01X58839Y10790D01*
G01X58800Y10850D01*
G01X58720Y10968D01*
G01X58640Y11085D01*
G01X58520Y11256D01*
G01X58480Y11311D01*
G01X58440Y11364D01*
G01X58402Y11417D01*
G01X58363Y11469D01*
G01X58326Y11518D01*
G01X58289Y11566D01*
G01X58253Y11612D01*
G01X58218Y11657D01*
G01X58184Y11699D01*
G01X58151Y11739D01*
G01X58120Y11776D01*
G01X58090Y11812D01*
G01X58061Y11844D01*
G01X58034Y11873D01*
G01X57975Y11935D01*
G01X57915Y11995D01*
G01X57854Y12053D01*
G01X57793Y12109D01*
G01X57732Y12162D01*
G01X57671Y12212D01*
G01X57610Y12260D01*
G01X57549Y12305D01*
G01X57490Y12347D01*
G01X57431Y12387D01*
G01X57374Y12422D01*
G01X57318Y12455D01*
G01X57263Y12484D01*
G01X57210Y12509D01*
G01X57160Y12531D01*
G01X57112Y12549D01*
G01X57066Y12563D01*
G01X57024Y12573D01*
G01X56983Y12579D01*
G01X56947Y12580D01*
G01X56913Y12577D01*
G01X56884Y12569D01*
G01X56858Y12557D01*
G01X56837Y12540D01*
G01X56829Y12528D01*
G01X56824Y12511D01*
G01X56821Y12486D01*
G01X56820Y12455D01*
G01X56821Y12418D01*
G01X56823Y12375D01*
G01X56828Y12327D01*
G01X56835Y12273D01*
G01X56844Y12213D01*
G01X56854Y12148D01*
G01X56867Y12078D01*
G01X56881Y12003D01*
G01X56897Y11923D01*
G01X56914Y11839D01*
G01X56934Y11750D01*
G01X56955Y11657D01*
G01X56978Y11559D01*
G01X57002Y11457D01*
G01X57028Y11352D01*
G01X57056Y11243D01*
G01X57072Y11180D01*
G01X57088Y11115D01*
G01X57104Y11049D01*
G01X57120Y10982D01*
G01X57135Y10914D01*
G01X57151Y10845D01*
G01X57166Y10775D01*
G01X57196Y10633D01*
G01X57211Y10561D01*
G01X57225Y10490D01*
G01X57254Y10345D01*
G01X57267Y10273D01*
G01X57281Y10202D01*
G01X57305Y10060D01*
G01X57318Y9990D01*
G01X57329Y9920D01*
G01X57341Y9852D01*
G01X57351Y9785D01*
G01X57361Y9719D01*
G01X57370Y9654D01*
G01X57380Y9590D01*
G01X57396Y9468D01*
G01X57403Y9410D01*
G01X57410Y9354D01*
G01X57415Y9300D01*
G01X57420Y9248D01*
G01X57425Y9198D01*
G01X57428Y9152D01*
G01X57447Y8905D01*
G01X57457Y8799D01*
G01X57466Y8706D01*
G01X57477Y8622D01*
G01X57487Y8549D01*
G01X57498Y8486D01*
G01X57511Y8431D01*
G01X57524Y8384D01*
G01X57539Y8345D01*
G01X57554Y8313D01*
G01X57572Y8288D01*
G01X57590Y8267D01*
G01X57611Y8252D01*
G01X57634Y8242D01*
G01X57659Y8235D01*
G01X57734Y8237D01*
G01X57798Y8271D01*
G01X57849Y8337D01*
G01X57884Y8436D01*
G01X57887Y8451D01*
G01X57890Y8471D01*
G01X57891Y8495D01*
G01X57892Y8523D01*
G01X57893Y8555D01*
G01X57893Y8590D01*
G01X57892Y8629D01*
G01X57890Y8671D01*
G01X57888Y8716D01*
G01X57886Y8765D01*
G01X57883Y8816D01*
G01X57879Y8870D01*
G01X57875Y8927D01*
G01X57870Y8987D01*
G01X57865Y9048D01*
G01X57860Y9111D01*
G01X57854Y9178D01*
G01X57847Y9245D01*
G01X57840Y9315D01*
G01X57833Y9386D01*
G01X57825Y9458D01*
G01X57818Y9532D01*
G01X57809Y9607D01*
G01X57800Y9683D01*
G01X57791Y9760D01*
G01X57782Y9838D01*
G01X57772Y9916D01*
G01X57763Y9995D01*
G01X57752Y10074D01*
G01X57720Y10312D01*
G01X57709Y10391D01*
G01X57687Y10547D01*
G01X57675Y10624D01*
G01X57664Y10701D01*
G01X57652Y10776D01*
G01X57640Y10850D01*
G01X57629Y10923D01*
G01X57616Y10995D01*
G01X57605Y11065D01*
G01X57592Y11133D01*
G01X57580Y11199D01*
G01X57572Y11248D01*
G01X57566Y11290D01*
G01X57562Y11324D01*
G01X57563Y11350D01*
G01X57567Y11368D01*
G01X57576Y11378D01*
G01X57590Y11379D01*
G01X57611Y11370D01*
G01X57638Y11352D01*
G01X57673Y11325D01*
G01X57715Y11287D01*
G01X57765Y11238D01*
G01X57825Y11180D01*
G01X57894Y11109D01*
G01X57973Y11027D01*
G01X58063Y10934D01*
G01X58095Y10900D01*
G01X58129Y10862D01*
G01X58164Y10822D01*
G01X58201Y10780D01*
G01X58238Y10735D01*
G01X58276Y10688D01*
G01X58316Y10640D01*
G01X58355Y10588D01*
G01X58396Y10536D01*
G01X58437Y10482D01*
G01X58479Y10426D01*
G01X58563Y10310D01*
G01X58606Y10251D01*
G01X58648Y10190D01*
G01X58691Y10130D01*
G01X58775Y10006D01*
G01X58816Y9944D01*
G01X58857Y9881D01*
G01X58898Y9819D01*
G01X58938Y9756D01*
G01X58977Y9694D01*
G01X59015Y9633D01*
G01X59052Y9572D01*
G01X59088Y9511D01*
G01X59123Y9452D01*
G01X59156Y9393D01*
G01X59202Y9313D01*
G01X59247Y9235D01*
G01X59292Y9158D01*
G01X59336Y9084D01*
G01X59379Y9012D01*
G01X59421Y8943D01*
G01X59462Y8877D01*
G01X59501Y8815D01*
G01X59539Y8755D01*
G01X59575Y8700D01*
G01X59609Y8649D01*
G01X59641Y8602D01*
G01X59671Y8559D01*
G01X59698Y8522D01*
G01X59723Y8489D01*
G01X59745Y8462D01*
G01X59764Y8440D01*
G01X59780Y8425D01*
G01X59793Y8415D01*
G01X59802Y8412D01*
G01X59819Y8414D01*
G01X59835Y8419D01*
G01X59851Y8428D01*
G01X59866Y8440D01*
G01X59882Y8457D01*
G01X59897Y8477D01*
G01X59913Y8501D01*
G01X59927Y8528D01*
G01X59941Y8560D01*
G01X59956Y8596D01*
G01X59970Y8635D01*
G01X59985Y8679D01*
G01X59998Y8726D01*
G01X60012Y8779D01*
G01X60026Y8835D01*
G01X60039Y8895D01*
G01X60053Y8960D01*
G01X60066Y9029D01*
G01X60079Y9102D01*
G01X60092Y9180D01*
G01X60106Y9262D01*
G01X60119Y9349D01*
G01X60131Y9441D01*
G01X60145Y9537D01*
G01X60157Y9638D01*
G01X60171Y9744D01*
G01X60184Y9854D01*
G01X60197Y9970D01*
G01X60206Y10059D01*
G01X60215Y10149D01*
G01X60222Y10237D01*
G01X60230Y10324D01*
G01X60235Y10410D01*
G01X60240Y10495D01*
G01X60244Y10579D01*
G01X60247Y10661D01*
G01X60249Y10743D01*
G01X60250Y10823D01*
G01X60250Y10903D01*
G01X60249Y10981D01*
G01X60247Y11058D01*
G01X60245Y11133D01*
G01X60242Y11208D01*
G01X60237Y11281D01*
G01X60232Y11352D01*
G01X60226Y11422D01*
G01X60219Y11491D01*
G01X60211Y11558D01*
G01X60203Y11624D01*
G01X60193Y11689D01*
G01X60183Y11752D01*
G01X60172Y11813D01*
G01X60160Y11872D01*
G01X60147Y11931D01*
G01X60133Y11987D01*
G01X60119Y12042D01*
G01X60104Y12095D01*
G01X60088Y12147D01*
G01X60071Y12197D01*
G01X60053Y12245D01*
G01X60035Y12291D01*
G01X60016Y12336D01*
G01X59996Y12378D01*
G01X59975Y12419D01*
G01X59954Y12458D01*
G01X59932Y12495D01*
G01X59908Y12530D01*
G01X59885Y12563D01*
G01X59861Y12594D01*
G01X59836Y12624D01*
G01X59810Y12651D01*
G01X59783Y12676D01*
G01X59756Y12698D01*
G01X59728Y12719D01*
G01X59699Y12738D01*
G01X59670Y12754D01*
G01X59640Y12769D01*
G01X59609Y12781D01*
G01X59578Y12790D01*
G01X59546Y12798D01*
G37*

%LPD*%
G36*
G01X51057Y11936D02*
G01X51025Y11936D01*
G01X50987Y11932D01*
G01X50945Y11922D01*
G01X50898Y11908D01*
G01X50847Y11889D01*
G01X50792Y11865D01*
G01X50733Y11836D01*
G01X50670Y11803D01*
G01X50604Y11766D01*
G01X50535Y11723D01*
G01X50464Y11676D01*
G01X50391Y11625D01*
G01X50362Y11605D01*
G01X50333Y11584D01*
G01X50303Y11562D01*
G01X50272Y11539D01*
G01X50241Y11515D01*
G01X50208Y11490D01*
G01X50174Y11464D01*
G01X50139Y11438D01*
G01X50104Y11410D01*
G01X50067Y11381D01*
G01X50029Y11352D01*
G01X49991Y11321D01*
G01X49951Y11290D01*
G01X49911Y11257D01*
G01X49869Y11224D01*
G01X49826Y11189D01*
G01X49782Y11154D01*
G01X49737Y11117D01*
G01X49691Y11079D01*
G01X49644Y11040D01*
G01X49596Y11001D01*
G01X49546Y10960D01*
G01X49496Y10918D01*
G01X49444Y10875D01*
G01X49392Y10831D01*
G01X49337Y10786D01*
G01X49283Y10739D01*
G01X49226Y10692D01*
G01X49169Y10643D01*
G01X49110Y10594D01*
G01X49050Y10543D01*
G01X48989Y10491D01*
G01X48927Y10437D01*
G01X48864Y10383D01*
G01X48798Y10328D01*
G01X48732Y10271D01*
G01X48665Y10213D01*
G01X48597Y10154D01*
G01X48527Y10093D01*
G01X48456Y10032D01*
G01X48222Y9830D01*
G01X48276Y10783D01*
G01X48282Y10891D01*
G01X48287Y10992D01*
G01X48290Y11087D01*
G01X48293Y11177D01*
G01X48294Y11259D01*
G01X48294Y11337D01*
G01X48293Y11408D01*
G01X48290Y11473D01*
G01X48286Y11533D01*
G01X48281Y11586D01*
G01X48274Y11635D01*
G01X48266Y11677D01*
G01X48257Y11714D01*
G01X48246Y11745D01*
G01X48234Y11771D01*
G01X48221Y11792D01*
G01X48206Y11807D01*
G01X48189Y11817D01*
G01X48171Y11821D01*
G01X48151Y11821D01*
G01X48130Y11816D01*
G01X48107Y11805D01*
G01X48083Y11789D01*
G01X48057Y11769D01*
G01X48029Y11743D01*
G01X47999Y11713D01*
G01X47968Y11678D01*
G01X47935Y11639D01*
G01X47909Y11605D01*
G01X47885Y11569D01*
G01X47863Y11533D01*
G01X47844Y11495D01*
G01X47828Y11454D01*
G01X47814Y11411D01*
G01X47802Y11363D01*
G01X47792Y11312D01*
G01X47784Y11255D01*
G01X47778Y11193D01*
G01X47773Y11125D01*
G01X47771Y11050D01*
G01X47770Y10968D01*
G01X47770Y10877D01*
G01X47772Y10778D01*
G01X47775Y10670D01*
G01X47776Y10618D01*
G01X47777Y10563D01*
G01X47777Y10505D01*
G01X47778Y10446D01*
G01X47777Y10385D01*
G01X47777Y10322D01*
G01X47776Y10257D01*
G01X47775Y10191D01*
G01X47771Y10057D01*
G01X47767Y9921D01*
G01X47764Y9852D01*
G01X47761Y9784D01*
G01X47757Y9716D01*
G01X47754Y9649D01*
G01X47749Y9583D01*
G01X47745Y9517D01*
G01X47741Y9453D01*
G01X47736Y9391D01*
G01X47731Y9330D01*
G01X47726Y9272D01*
G01X47721Y9215D01*
G01X47715Y9161D01*
G01X47632Y8394D01*
G01X47863Y8428D01*
G01X47924Y8440D01*
G01X47976Y8460D01*
G01X48020Y8488D01*
G01X48058Y8525D01*
G01X48090Y8572D01*
G01X48118Y8630D01*
G01X48141Y8701D01*
G01X48160Y8785D01*
G01X48170Y8828D01*
G01X48182Y8871D01*
G01X48195Y8913D01*
G01X48211Y8955D01*
G01X48228Y8997D01*
G01X48248Y9039D01*
G01X48270Y9081D01*
G01X48294Y9123D01*
G01X48320Y9165D01*
G01X48348Y9208D01*
G01X48380Y9251D01*
G01X48413Y9294D01*
G01X48449Y9339D01*
G01X48489Y9383D01*
G01X48530Y9428D01*
G01X48574Y9475D01*
G01X48621Y9521D01*
G01X48671Y9569D01*
G01X48724Y9618D01*
G01X48780Y9668D01*
G01X48839Y9720D01*
G01X48902Y9772D01*
G01X48967Y9826D01*
G01X49036Y9881D01*
G01X49383Y10157D01*
G01X49708Y9555D01*
G01X49753Y9473D01*
G01X49797Y9393D01*
G01X49840Y9317D01*
G01X49883Y9243D01*
G01X49924Y9172D01*
G01X49965Y9104D01*
G01X50005Y9039D01*
G01X50045Y8976D01*
G01X50084Y8916D01*
G01X50122Y8859D01*
G01X50159Y8804D01*
G01X50197Y8751D01*
G01X50233Y8701D01*
G01X50269Y8654D01*
G01X50305Y8609D01*
G01X50340Y8565D01*
G01X50375Y8525D01*
G01X50410Y8486D01*
G01X50444Y8450D01*
G01X50478Y8416D01*
G01X50512Y8384D01*
G01X50547Y8354D01*
G01X50580Y8326D01*
G01X50614Y8300D01*
G01X50647Y8275D01*
G01X50680Y8253D01*
G01X50714Y8233D01*
G01X50747Y8214D01*
G01X50820Y8176D01*
G01X50880Y8149D01*
G01X50929Y8133D01*
G01X50969Y8128D01*
G01X51002Y8133D01*
G01X51031Y8149D01*
G01X51057Y8176D01*
G01X51083Y8214D01*
G01X51090Y8228D01*
G01X51094Y8244D01*
G01X51095Y8264D01*
G01X51093Y8286D01*
G01X51089Y8311D01*
G01X51083Y8339D01*
G01X51074Y8369D01*
G01X51062Y8402D01*
G01X51048Y8438D01*
G01X51031Y8477D01*
G01X51012Y8518D01*
G01X50990Y8562D01*
G01X50966Y8608D01*
G01X50939Y8657D01*
G01X50910Y8709D01*
G01X50878Y8763D01*
G01X50844Y8820D01*
G01X50807Y8879D01*
G01X50768Y8941D01*
G01X50726Y9005D01*
G01X50683Y9072D01*
G01X50636Y9141D01*
G01X50587Y9213D01*
G01X50536Y9287D01*
G01X50483Y9363D01*
G01X50427Y9442D01*
G01X50368Y9523D01*
G01X50307Y9607D01*
G01X50244Y9694D01*
G01X50179Y9782D01*
G01X50111Y9872D01*
G01X50041Y9965D01*
G01X49716Y10395D01*
G01X50354Y10979D01*
G01X50420Y11039D01*
G01X50548Y11161D01*
G01X50610Y11220D01*
G01X50782Y11392D01*
G01X50834Y11446D01*
G01X50882Y11497D01*
G01X50926Y11545D01*
G01X50966Y11590D01*
G01X51002Y11630D01*
G01X51033Y11667D01*
G01X51058Y11699D01*
G01X51077Y11726D01*
G01X51091Y11748D01*
G01X51110Y11790D01*
G01X51123Y11826D01*
G01X51128Y11858D01*
G01X51127Y11884D01*
G01X51119Y11904D01*
G01X51104Y11920D01*
G01X51083Y11930D01*
G01X51057Y11936D01*
G37*

%LPD*%
G36*
G01X54803Y12312D02*
G01X54750Y12312D01*
G01X54694Y12311D01*
G01X54634Y12309D01*
G01X54571Y12306D01*
G01X54504Y12302D01*
G01X54434Y12297D01*
G01X54361Y12290D01*
G01X54285Y12282D01*
G01X54206Y12274D01*
G01X54124Y12264D01*
G01X54040Y12253D01*
G01X53953Y12242D01*
G01X53864Y12229D01*
G01X53773Y12214D01*
G01X53679Y12200D01*
G01X53584Y12183D01*
G01X53487Y12166D01*
G01X53381Y12147D01*
G01X53280Y12127D01*
G01X53182Y12108D01*
G01X53090Y12089D01*
G01X53003Y12071D01*
G01X52925Y12054D01*
G01X52855Y12038D01*
G01X52794Y12022D01*
G01X52744Y12009D01*
G01X52705Y11997D01*
G01X52678Y11988D01*
G01X52664Y11980D01*
G01X52636Y11971D01*
G01X52594Y11980D01*
G01X52542Y12004D01*
G01X52489Y12042D01*
G01X52424Y12085D01*
G01X52373Y12092D01*
G01X52332Y12059D01*
G01X52296Y11988D01*
G01X52293Y11976D01*
G01X52289Y11959D01*
G01X52287Y11937D01*
G01X52285Y11911D01*
G01X52283Y11880D01*
G01X52282Y11845D01*
G01X52280Y11805D01*
G01X52280Y11610D01*
G01X52281Y11553D01*
G01X52282Y11493D01*
G01X52283Y11430D01*
G01X52285Y11363D01*
G01X52287Y11295D01*
G01X52289Y11224D01*
G01X52291Y11151D01*
G01X52294Y11075D01*
G01X52297Y10998D01*
G01X52301Y10919D01*
G01X52304Y10839D01*
G01X52312Y10673D01*
G01X52316Y10589D01*
G01X52320Y10504D01*
G01X52325Y10418D01*
G01X52329Y10332D01*
G01X52334Y10245D01*
G01X52339Y10157D01*
G01X52344Y10071D01*
G01X52349Y9983D01*
G01X52355Y9896D01*
G01X52366Y9725D01*
G01X52372Y9640D01*
G01X52378Y9556D01*
G01X52383Y9473D01*
G01X52390Y9391D01*
G01X52396Y9311D01*
G01X52402Y9233D01*
G01X52408Y9156D01*
G01X52414Y9082D01*
G01X52420Y9009D01*
G01X52426Y8939D01*
G01X52432Y8871D01*
G01X52438Y8806D01*
G01X52444Y8744D01*
G01X52451Y8684D01*
G01X52457Y8628D01*
G01X52463Y8575D01*
G01X52468Y8526D01*
G01X52474Y8480D01*
G01X52480Y8438D01*
G01X52486Y8400D01*
G01X52491Y8366D01*
G01X52497Y8337D01*
G01X52502Y8311D01*
G01X52507Y8291D01*
G01X52512Y8276D01*
G01X52521Y8256D01*
G01X52530Y8238D01*
G01X52540Y8221D01*
G01X52553Y8206D01*
G01X52568Y8193D01*
G01X52586Y8180D01*
G01X52607Y8169D01*
G01X52631Y8159D01*
G01X52661Y8150D01*
G01X52694Y8143D01*
G01X52733Y8137D01*
G01X52778Y8132D01*
G01X52828Y8128D01*
G01X52885Y8125D01*
G01X52948Y8123D01*
G01X53020Y8122D01*
G01X53099Y8121D01*
G01X53186Y8122D01*
G01X53283Y8123D01*
G01X53388Y8126D01*
G01X53503Y8129D01*
G01X53628Y8132D01*
G01X53764Y8137D01*
G01X53911Y8141D01*
G01X54013Y8145D01*
G01X54112Y8148D01*
G01X54207Y8152D01*
G01X54299Y8157D01*
G01X54388Y8162D01*
G01X54473Y8167D01*
G01X54556Y8172D01*
G01X54635Y8177D01*
G01X54713Y8183D01*
G01X54787Y8189D01*
G01X54859Y8196D01*
G01X54928Y8203D01*
G01X54995Y8210D01*
G01X55060Y8218D01*
G01X55122Y8226D01*
G01X55182Y8234D01*
G01X55240Y8243D01*
G01X55296Y8252D01*
G01X55350Y8262D01*
G01X55403Y8272D01*
G01X55454Y8283D01*
G01X55503Y8294D01*
G01X55551Y8306D01*
G01X55597Y8318D01*
G01X55642Y8331D01*
G01X55686Y8344D01*
G01X55729Y8358D01*
G01X55771Y8372D01*
G01X55855Y8403D01*
G01X55933Y8434D01*
G01X56007Y8466D01*
G01X56075Y8498D01*
G01X56138Y8530D01*
G01X56195Y8563D01*
G01X56248Y8596D01*
G01X56294Y8629D01*
G01X56335Y8662D01*
G01X56370Y8695D01*
G01X56400Y8728D01*
G01X56423Y8761D01*
G01X56441Y8794D01*
G01X56453Y8826D01*
G01X56459Y8858D01*
G01X56458Y8890D01*
G01X56452Y8920D01*
G01X56439Y8951D01*
G01X56420Y8980D01*
G01X56394Y9009D01*
G01X56370Y9029D01*
G01X56341Y9043D01*
G01X56306Y9052D01*
G01X56264Y9055D01*
G01X56214Y9052D01*
G01X56155Y9044D01*
G01X56088Y9030D01*
G01X56011Y9009D01*
G01X55922Y8983D01*
G01X55822Y8950D01*
G01X55710Y8911D01*
G01X55584Y8866D01*
G01X55522Y8843D01*
G01X55462Y8821D01*
G01X55405Y8802D01*
G01X55349Y8783D01*
G01X55294Y8765D01*
G01X55241Y8749D01*
G01X55137Y8719D01*
G01X55086Y8706D01*
G01X55035Y8694D01*
G01X54984Y8683D01*
G01X54933Y8673D01*
G01X54881Y8663D01*
G01X54775Y8647D01*
G01X54719Y8641D01*
G01X54663Y8634D01*
G01X54604Y8629D01*
G01X54544Y8624D01*
G01X54481Y8621D01*
G01X54416Y8617D01*
G01X54348Y8614D01*
G01X54277Y8612D01*
G01X54203Y8611D01*
G01X54124Y8609D01*
G01X54043Y8608D01*
G01X52845Y8608D01*
G01X52830Y8999D01*
G01X52824Y9159D01*
G01X52821Y9235D01*
G01X52817Y9307D01*
G01X52814Y9371D01*
G01X52811Y9425D01*
G01X52808Y9469D01*
G01X52806Y9499D01*
G01X52810Y9515D01*
G01X52825Y9535D01*
G01X52850Y9558D01*
G01X52885Y9583D01*
G01X52928Y9611D01*
G01X52978Y9640D01*
G01X53036Y9671D01*
G01X53101Y9702D01*
G01X53170Y9734D01*
G01X53246Y9766D01*
G01X53324Y9797D01*
G01X53407Y9828D01*
G01X53497Y9862D01*
G01X53583Y9894D01*
G01X53664Y9926D01*
G01X53740Y9957D01*
G01X53811Y9988D01*
G01X53876Y10018D01*
G01X53938Y10047D01*
G01X53994Y10076D01*
G01X54046Y10104D01*
G01X54093Y10131D01*
G01X54135Y10158D01*
G01X54173Y10184D01*
G01X54206Y10210D01*
G01X54234Y10236D01*
G01X54258Y10261D01*
G01X54278Y10285D01*
G01X54293Y10309D01*
G01X54304Y10333D01*
G01X54310Y10357D01*
G01X54312Y10380D01*
G01X54307Y10402D01*
G01X54294Y10422D01*
G01X54272Y10437D01*
G01X54242Y10449D01*
G01X54206Y10458D01*
G01X54162Y10463D01*
G01X54113Y10465D01*
G01X54059Y10464D01*
G01X53999Y10460D01*
G01X53936Y10453D01*
G01X53870Y10442D01*
G01X53801Y10430D01*
G01X53729Y10414D01*
G01X53656Y10396D01*
G01X53582Y10375D01*
G01X53508Y10352D01*
G01X53433Y10326D01*
G01X53360Y10298D01*
G01X53289Y10268D01*
G01X53219Y10235D01*
G01X52761Y10011D01*
G01X52698Y11418D01*
G01X53338Y11572D01*
G01X53417Y11591D01*
G01X53496Y11611D01*
G01X53654Y11653D01*
G01X53733Y11675D01*
G01X53811Y11697D01*
G01X53889Y11720D01*
G01X53966Y11743D01*
G01X54042Y11767D01*
G01X54117Y11791D01*
G01X54190Y11815D01*
G01X54262Y11838D01*
G01X54332Y11863D01*
G01X54400Y11887D01*
G01X54466Y11911D01*
G01X54530Y11934D01*
G01X54592Y11958D01*
G01X54651Y11981D01*
G01X54707Y12004D01*
G01X54759Y12026D01*
G01X54809Y12048D01*
G01X54856Y12069D01*
G01X54899Y12090D01*
G01X54938Y12110D01*
G01X54973Y12129D01*
G01X55004Y12147D01*
G01X55031Y12164D01*
G01X55053Y12180D01*
G01X55071Y12195D01*
G01X55084Y12209D01*
G01X55092Y12222D01*
G01X55095Y12233D01*
G01X55092Y12246D01*
G01X55084Y12258D01*
G01X55071Y12269D01*
G01X55053Y12278D01*
G01X55031Y12286D01*
G01X55004Y12294D01*
G01X54972Y12300D01*
G01X54936Y12304D01*
G01X54896Y12308D01*
G01X54851Y12310D01*
G01X54803Y12312D01*
G37*

%LPD*%
G36*
G01X40609Y11638D02*
G01X40569Y11639D01*
G01X40552Y11636D01*
G01X40529Y11627D01*
G01X40500Y11613D01*
G01X40466Y11593D01*
G01X40428Y11568D01*
G01X40385Y11539D01*
G01X40338Y11505D01*
G01X40288Y11467D01*
G01X40235Y11425D01*
G01X40178Y11380D01*
G01X40119Y11331D01*
G01X40059Y11280D01*
G01X39997Y11226D01*
G01X39933Y11170D01*
G01X39869Y11113D01*
G01X39804Y11053D01*
G01X39740Y10993D01*
G01X39677Y10935D01*
G01X39616Y10878D01*
G01X39556Y10824D01*
G01X39500Y10773D01*
G01X39445Y10725D01*
G01X39393Y10680D01*
G01X39346Y10638D01*
G01X39301Y10600D01*
G01X39261Y10566D01*
G01X39225Y10537D01*
G01X39193Y10512D01*
G01X39167Y10492D01*
G01X39146Y10478D01*
G01X39131Y10469D01*
G01X39123Y10466D01*
G01X39107Y10474D01*
G01X39084Y10497D01*
G01X39055Y10533D01*
G01X39019Y10581D01*
G01X38980Y10639D01*
G01X38938Y10705D01*
G01X38894Y10778D01*
G01X38848Y10857D01*
G01X38810Y10922D01*
G01X38774Y10981D01*
G01X38738Y11034D01*
G01X38704Y11082D01*
G01X38671Y11124D01*
G01X38640Y11160D01*
G01X38610Y11191D01*
G01X38582Y11216D01*
G01X38555Y11236D01*
G01X38530Y11251D01*
G01X38507Y11261D01*
G01X38486Y11265D01*
G01X38466Y11265D01*
G01X38449Y11261D01*
G01X38434Y11251D01*
G01X38421Y11237D01*
G01X38410Y11219D01*
G01X38401Y11196D01*
G01X38395Y11169D01*
G01X38392Y11138D01*
G01X38391Y11103D01*
G01X38392Y11063D01*
G01X38397Y11021D01*
G01X38404Y10974D01*
G01X38413Y10924D01*
G01X38427Y10869D01*
G01X38442Y10812D01*
G01X38461Y10751D01*
G01X38484Y10687D01*
G01X38509Y10621D01*
G01X38537Y10551D01*
G01X38569Y10478D01*
G01X38764Y10049D01*
G01X38351Y9597D01*
G01X38295Y9536D01*
G01X38240Y9477D01*
G01X38186Y9420D01*
G01X38136Y9366D01*
G01X38087Y9316D01*
G01X38043Y9271D01*
G01X37967Y9195D01*
G01X37936Y9165D01*
G01X37912Y9142D01*
G01X37893Y9127D01*
G01X37882Y9120D01*
G01X37874Y9121D01*
G01X37865Y9131D01*
G01X37853Y9149D01*
G01X37838Y9174D01*
G01X37822Y9207D01*
G01X37804Y9247D01*
G01X37785Y9292D01*
G01X37763Y9343D01*
G01X37740Y9400D01*
G01X37716Y9462D01*
G01X37692Y9529D01*
G01X37666Y9600D01*
G01X37639Y9674D01*
G01X37612Y9752D01*
G01X37557Y9917D01*
G01X37522Y10023D01*
G01X37487Y10123D01*
G01X37454Y10218D01*
G01X37421Y10307D01*
G01X37388Y10390D01*
G01X37357Y10466D01*
G01X37326Y10537D01*
G01X37296Y10602D01*
G01X37267Y10661D01*
G01X37239Y10715D01*
G01X37212Y10761D01*
G01X37185Y10803D01*
G01X37159Y10837D01*
G01X37134Y10866D01*
G01X37110Y10888D01*
G01X37088Y10905D01*
G01X37066Y10915D01*
G01X37045Y10919D01*
G01X37025Y10917D01*
G01X37006Y10909D01*
G01X36988Y10894D01*
G01X36971Y10873D01*
G01X36955Y10846D01*
G01X36941Y10812D01*
G01X36936Y10795D01*
G01X36934Y10771D01*
G01X36935Y10742D01*
G01X36937Y10707D01*
G01X36941Y10666D01*
G01X36947Y10621D01*
G01X36954Y10572D01*
G01X36964Y10518D01*
G01X36975Y10460D01*
G01X36987Y10399D01*
G01X37002Y10334D01*
G01X37017Y10266D01*
G01X37034Y10196D01*
G01X37051Y10123D01*
G01X37071Y10048D01*
G01X37091Y9972D01*
G01X37111Y9893D01*
G01X37133Y9815D01*
G01X37156Y9735D01*
G01X37178Y9655D01*
G01X37226Y9494D01*
G01X37251Y9414D01*
G01X37276Y9336D01*
G01X37300Y9258D01*
G01X37325Y9182D01*
G01X37351Y9107D01*
G01X37376Y9035D01*
G01X37400Y8965D01*
G01X37425Y8898D01*
G01X37449Y8834D01*
G01X37473Y8773D01*
G01X37497Y8716D01*
G01X37519Y8663D01*
G01X37541Y8615D01*
G01X37563Y8570D01*
G01X37704Y8289D01*
G01X38328Y8907D01*
G01X38392Y8970D01*
G01X38455Y9031D01*
G01X38515Y9089D01*
G01X38573Y9144D01*
G01X38630Y9196D01*
G01X38683Y9245D01*
G01X38733Y9290D01*
G01X38780Y9331D01*
G01X38823Y9368D01*
G01X38863Y9401D01*
G01X38897Y9428D01*
G01X38927Y9450D01*
G01X38951Y9467D01*
G01X38970Y9478D01*
G01X38983Y9483D01*
G01X38991Y9482D01*
G01X39004Y9465D01*
G01X39027Y9431D01*
G01X39059Y9383D01*
G01X39097Y9322D01*
G01X39142Y9252D01*
G01X39191Y9173D01*
G01X39244Y9088D01*
G01X39299Y8999D01*
G01X39350Y8916D01*
G01X39400Y8838D01*
G01X39449Y8764D01*
G01X39498Y8692D01*
G01X39545Y8625D01*
G01X39591Y8562D01*
G01X39637Y8502D01*
G01X39681Y8447D01*
G01X39724Y8396D01*
G01X39766Y8349D01*
G01X39806Y8306D01*
G01X39845Y8267D01*
G01X39883Y8233D01*
G01X39919Y8203D01*
G01X39953Y8177D01*
G01X39986Y8156D01*
G01X40017Y8140D01*
G01X40047Y8128D01*
G01X40075Y8121D01*
G01X40101Y8118D01*
G01X40108Y8120D01*
G01X40119Y8127D01*
G01X40133Y8137D01*
G01X40149Y8151D01*
G01X40169Y8169D01*
G01X40191Y8190D01*
G01X40216Y8214D01*
G01X40244Y8242D01*
G01X40274Y8274D01*
G01X40306Y8308D01*
G01X40340Y8345D01*
G01X40377Y8385D01*
G01X40415Y8428D01*
G01X40456Y8473D01*
G01X40498Y8521D01*
G01X40542Y8570D01*
G01X40587Y8622D01*
G01X40634Y8677D01*
G01X40683Y8733D01*
G01X40732Y8790D01*
G01X40783Y8850D01*
G01X40835Y8911D01*
G01X40887Y8973D01*
G01X40941Y9037D01*
G01X40995Y9102D01*
G01X41050Y9167D01*
G01X41105Y9234D01*
G01X41161Y9302D01*
G01X41218Y9370D01*
G01X41330Y9507D01*
G01X41387Y9577D01*
G01X41500Y9715D01*
G01X41555Y9785D01*
G01X41666Y9922D01*
G01X41721Y9990D01*
G01X41774Y10057D01*
G01X41827Y10123D01*
G01X41879Y10189D01*
G01X41930Y10254D01*
G01X41980Y10317D01*
G01X42028Y10379D01*
G01X42075Y10440D01*
G01X42121Y10499D01*
G01X42165Y10557D01*
G01X42208Y10613D01*
G01X42248Y10666D01*
G01X42287Y10718D01*
G01X42324Y10768D01*
G01X42359Y10815D01*
G01X42392Y10860D01*
G01X42422Y10902D01*
G01X42450Y10941D01*
G01X42475Y10978D01*
G01X42498Y11011D01*
G01X42518Y11042D01*
G01X42535Y11069D01*
G01X42550Y11094D01*
G01X42561Y11114D01*
G01X42569Y11131D01*
G01X42574Y11145D01*
G01X42576Y11154D01*
G01X42573Y11194D01*
G01X42565Y11227D01*
G01X42552Y11253D01*
G01X42533Y11272D01*
G01X42510Y11284D01*
G01X42482Y11288D01*
G01X42448Y11286D01*
G01X42411Y11277D01*
G01X42369Y11261D01*
G01X42322Y11238D01*
G01X42271Y11209D01*
G01X42216Y11172D01*
G01X42157Y11130D01*
G01X42095Y11080D01*
G01X42028Y11024D01*
G01X41958Y10961D01*
G01X41934Y10938D01*
G01X41884Y10890D01*
G01X41806Y10812D01*
G01X41780Y10785D01*
G01X41726Y10727D01*
G01X41670Y10665D01*
G01X41641Y10633D01*
G01X41581Y10565D01*
G01X41551Y10529D01*
G01X41520Y10492D01*
G01X41488Y10454D01*
G01X41455Y10415D01*
G01X41422Y10374D01*
G01X41388Y10333D01*
G01X41354Y10290D01*
G01X41318Y10245D01*
G01X41282Y10199D01*
G01X41245Y10152D01*
G01X41207Y10103D01*
G01X41168Y10053D01*
G01X41129Y10001D01*
G01X41088Y9948D01*
G01X41046Y9893D01*
G01X41004Y9836D01*
G01X40961Y9778D01*
G01X40916Y9718D01*
G01X40870Y9657D01*
G01X40823Y9593D01*
G01X40775Y9528D01*
G01X40726Y9461D01*
G01X40676Y9392D01*
G01X40625Y9321D01*
G01X40572Y9249D01*
G01X40518Y9174D01*
G01X40463Y9098D01*
G01X40406Y9019D01*
G01X40348Y8938D01*
G01X40289Y8856D01*
G01X40266Y8824D01*
G01X40245Y8798D01*
G01X40224Y8778D01*
G01X40204Y8764D01*
G01X40184Y8757D01*
G01X40162Y8758D01*
G01X40140Y8767D01*
G01X40114Y8784D01*
G01X40086Y8810D01*
G01X40055Y8846D01*
G01X40019Y8892D01*
G01X39979Y8949D01*
G01X39932Y9017D01*
G01X39880Y9096D01*
G01X39821Y9188D01*
G01X39755Y9293D01*
G01X39357Y9922D01*
G01X40094Y10680D01*
G01X40177Y10766D01*
G01X40254Y10847D01*
G01X40326Y10924D01*
G01X40391Y10996D01*
G01X40451Y11063D01*
G01X40505Y11127D01*
G01X40554Y11187D01*
G01X40597Y11242D01*
G01X40635Y11293D01*
G01X40667Y11341D01*
G01X40694Y11384D01*
G01X40715Y11424D01*
G01X40731Y11460D01*
G01X40742Y11492D01*
G01X40748Y11521D01*
G01X40748Y11547D01*
G01X40744Y11570D01*
G01X40733Y11589D01*
G01X40719Y11604D01*
G01X40699Y11617D01*
G01X40674Y11627D01*
G01X40644Y11634D01*
G01X40609Y11638D01*
G37*

%LPD*%
G36*
G01X43925Y11523D02*
G01X43892Y11523D01*
G01X43860Y11518D01*
G01X43828Y11508D01*
G01X43797Y11495D01*
G01X43766Y11476D01*
G01X43735Y11454D01*
G01X43703Y11427D01*
G01X43672Y11396D01*
G01X43641Y11361D01*
G01X43610Y11321D01*
G01X43578Y11278D01*
G01X43557Y11247D01*
G01X43534Y11211D01*
G01X43510Y11169D01*
G01X43484Y11123D01*
G01X43458Y11073D01*
G01X43430Y11021D01*
G01X43402Y10964D01*
G01X43373Y10905D01*
G01X43344Y10844D01*
G01X43315Y10781D01*
G01X43286Y10717D01*
G01X43257Y10652D01*
G01X43229Y10587D01*
G01X43202Y10522D01*
G01X43176Y10457D01*
G01X43152Y10394D01*
G01X43112Y10292D01*
G01X43077Y10203D01*
G01X43045Y10124D01*
G01X43015Y10056D01*
G01X42987Y9998D01*
G01X42960Y9948D01*
G01X42933Y9907D01*
G01X42906Y9873D01*
G01X42878Y9846D01*
G01X42849Y9825D01*
G01X42817Y9809D01*
G01X42782Y9798D01*
G01X42744Y9790D01*
G01X42701Y9786D01*
G01X42654Y9784D01*
G01X42601Y9783D01*
G01X42536Y9779D01*
G01X42478Y9770D01*
G01X42426Y9756D01*
G01X42382Y9737D01*
G01X42345Y9715D01*
G01X42315Y9690D01*
G01X42293Y9662D01*
G01X42279Y9632D01*
G01X42273Y9602D01*
G01X42275Y9571D01*
G01X42286Y9541D01*
G01X42306Y9512D01*
G01X42335Y9484D01*
G01X42373Y9459D01*
G01X42421Y9437D01*
G01X42478Y9418D01*
G01X42554Y9396D01*
G01X42617Y9374D01*
G01X42659Y9354D01*
G01X42674Y9339D01*
G01X42669Y9323D01*
G01X42655Y9287D01*
G01X42632Y9234D01*
G01X42602Y9166D01*
G01X42566Y9085D01*
G01X42525Y8994D01*
G01X42479Y8894D01*
G01X42431Y8788D01*
G01X42383Y8684D01*
G01X42341Y8588D01*
G01X42304Y8498D01*
G01X42273Y8416D01*
G01X42247Y8340D01*
G01X42226Y8271D01*
G01X42210Y8208D01*
G01X42200Y8150D01*
G01X42194Y8099D01*
G01X42194Y8052D01*
G01X42199Y8010D01*
G01X42208Y7973D01*
G01X42223Y7941D01*
G01X42243Y7912D01*
G01X42267Y7887D01*
G01X42296Y7866D01*
G01X42316Y7857D01*
G01X42338Y7853D01*
G01X42361Y7854D01*
G01X42385Y7860D01*
G01X42412Y7872D01*
G01X42440Y7890D01*
G01X42470Y7914D01*
G01X42502Y7943D01*
G01X42536Y7978D01*
G01X42572Y8018D01*
G01X42610Y8065D01*
G01X42650Y8117D01*
G01X42692Y8176D01*
G01X42737Y8241D01*
G01X42784Y8311D01*
G01X42834Y8389D01*
G01X42885Y8472D01*
G01X42940Y8563D01*
G01X42997Y8659D01*
G01X43057Y8763D01*
G01X43342Y9260D01*
G01X44108Y9411D01*
G01X44875Y9562D01*
G01X45070Y9330D01*
G01X45116Y9277D01*
G01X45164Y9225D01*
G01X45214Y9175D01*
G01X45265Y9126D01*
G01X45317Y9078D01*
G01X45371Y9033D01*
G01X45424Y8989D01*
G01X45479Y8947D01*
G01X45534Y8907D01*
G01X45589Y8869D01*
G01X45644Y8833D01*
G01X45699Y8799D01*
G01X45754Y8767D01*
G01X45807Y8738D01*
G01X45859Y8712D01*
G01X45911Y8688D01*
G01X45960Y8666D01*
G01X46009Y8648D01*
G01X46055Y8633D01*
G01X46099Y8620D01*
G01X46142Y8611D01*
G01X46181Y8605D01*
G01X46218Y8602D01*
G01X46252Y8603D01*
G01X46282Y8607D01*
G01X46310Y8615D01*
G01X46334Y8626D01*
G01X46353Y8641D01*
G01X46369Y8660D01*
G01X46381Y8683D01*
G01X46388Y8711D01*
G01X46391Y8742D01*
G01X46387Y8764D01*
G01X46375Y8792D01*
G01X46356Y8826D01*
G01X46330Y8865D01*
G01X46298Y8909D01*
G01X46261Y8956D01*
G01X46218Y9006D01*
G01X46172Y9059D01*
G01X46121Y9114D01*
G01X46066Y9170D01*
G01X46009Y9226D01*
G01X45950Y9282D01*
G01X45885Y9343D01*
G01X45827Y9401D01*
G01X45775Y9454D01*
G01X45731Y9504D01*
G01X45692Y9549D01*
G01X45661Y9591D01*
G01X45637Y9628D01*
G01X45620Y9660D01*
G01X45612Y9686D01*
G01X45610Y9707D01*
G01X45617Y9723D01*
G01X45632Y9733D01*
G01X45648Y9739D01*
G01X45671Y9746D01*
G01X45701Y9757D01*
G01X45737Y9769D01*
G01X45778Y9783D01*
G01X45825Y9799D01*
G01X45875Y9817D01*
G01X45931Y9835D01*
G01X45991Y9855D01*
G01X46054Y9877D01*
G01X46188Y9921D01*
G01X46258Y9945D01*
G01X46331Y9970D01*
G01X46404Y9994D01*
G01X46478Y10019D01*
G01X46553Y10044D01*
G01X46626Y10070D01*
G01X46698Y10095D01*
G01X46768Y10121D01*
G01X46835Y10146D01*
G01X46900Y10171D01*
G01X46961Y10195D01*
G01X47019Y10219D01*
G01X47073Y10242D01*
G01X47123Y10263D01*
G01X47167Y10283D01*
G01X47206Y10302D01*
G01X47240Y10320D01*
G01X47267Y10335D01*
G01X47288Y10348D01*
G01X47302Y10360D01*
G01X47325Y10386D01*
G01X47342Y10410D01*
G01X47351Y10432D01*
G01X47354Y10451D01*
G01X47349Y10468D01*
G01X47338Y10483D01*
G01X47321Y10496D01*
G01X47298Y10506D01*
G01X47269Y10515D01*
G01X47233Y10520D01*
G01X47193Y10524D01*
G01X47146Y10526D01*
G01X47095Y10525D01*
G01X47038Y10522D01*
G01X46976Y10517D01*
G01X46909Y10509D01*
G01X46837Y10499D01*
G01X46761Y10487D01*
G01X46681Y10473D01*
G01X46596Y10456D01*
G01X46508Y10437D01*
G01X46415Y10416D01*
G01X46319Y10393D01*
G01X46220Y10367D01*
G01X46134Y10344D01*
G01X46048Y10323D01*
G01X45964Y10301D01*
G01X45883Y10280D01*
G01X45727Y10241D01*
G01X45654Y10224D01*
G01X45586Y10207D01*
G01X45522Y10192D01*
G01X45463Y10178D01*
G01X45410Y10166D01*
G01X45363Y10156D01*
G01X45322Y10147D01*
G01X45289Y10141D01*
G01X45263Y10137D01*
G01X45245Y10134D01*
G01X45229Y10137D01*
G01X45208Y10146D01*
G01X45185Y10162D01*
G01X45157Y10184D01*
G01X45126Y10212D01*
G01X45092Y10245D01*
G01X45055Y10284D01*
G01X45015Y10328D01*
G01X44974Y10376D01*
G01X44931Y10428D01*
G01X44886Y10484D01*
G01X44840Y10543D01*
G01X44793Y10606D01*
G01X44746Y10671D01*
G01X44698Y10738D01*
G01X44651Y10808D01*
G01X44595Y10890D01*
G01X44541Y10967D01*
G01X44490Y11038D01*
G01X44440Y11104D01*
G01X44392Y11166D01*
G01X44346Y11222D01*
G01X44301Y11274D01*
G01X44258Y11320D01*
G01X44217Y11361D01*
G01X44177Y11399D01*
G01X44138Y11430D01*
G01X44100Y11457D01*
G01X44063Y11480D01*
G01X44027Y11498D01*
G01X43993Y11511D01*
G01X43959Y11519D01*
G01X43925Y11523D01*
G37*

%LPC*%
G36*
G01X44310Y10322D02*
G01X44088Y10581D01*
G01X43915Y10217D01*
G01X43881Y10144D01*
G01X43850Y10074D01*
G01X43824Y10009D01*
G01X43802Y9951D01*
G01X43786Y9902D01*
G01X43776Y9863D01*
G01X43772Y9835D01*
G01X43775Y9821D01*
G01X43804Y9809D01*
G01X43854Y9805D01*
G01X43921Y9808D01*
G01X44000Y9817D01*
G01X44088Y9831D01*
G01X44178Y9849D01*
G01X44267Y9869D01*
G01X44350Y9892D01*
G01X44423Y9916D01*
G01X44480Y9940D01*
G01X44519Y9963D01*
G01X44532Y9984D01*
G01X44528Y10006D01*
G01X44515Y10036D01*
G01X44494Y10073D01*
G01X44467Y10116D01*
G01X44434Y10164D01*
G01X44396Y10215D01*
G01X44355Y10269D01*
G01X44310Y10322D01*
G37*

%LPD*%
G36*
G01X33662Y15236D02*
G01X33639Y15239D01*
G01X33613Y15236D01*
G01X33586Y15227D01*
G01X33558Y15213D01*
G01X33529Y15192D01*
G01X33497Y15166D01*
G01X33464Y15134D01*
G01X33429Y15096D01*
G01X33392Y15052D01*
G01X33354Y15002D01*
G01X33314Y14946D01*
G01X33272Y14885D01*
G01X33228Y14818D01*
G01X33136Y14670D01*
G01X33090Y14595D01*
G01X32996Y14449D01*
G01X32903Y14306D01*
G01X32809Y14166D01*
G01X32762Y14098D01*
G01X32715Y14029D01*
G01X32668Y13963D01*
G01X32622Y13897D01*
G01X32575Y13832D01*
G01X32529Y13768D01*
G01X32483Y13705D01*
G01X32436Y13644D01*
G01X32391Y13583D01*
G01X32345Y13524D01*
G01X32300Y13466D01*
G01X32255Y13409D01*
G01X32211Y13353D01*
G01X32167Y13299D01*
G01X32123Y13246D01*
G01X32079Y13194D01*
G01X32037Y13143D01*
G01X31994Y13095D01*
G01X31952Y13047D01*
G01X31911Y13001D01*
G01X31870Y12957D01*
G01X31830Y12914D01*
G01X31791Y12872D01*
G01X31713Y12794D01*
G01X31676Y12758D01*
G01X31639Y12723D01*
G01X31603Y12690D01*
G01X31568Y12659D01*
G01X31534Y12629D01*
G01X31500Y12601D01*
G01X31467Y12576D01*
G01X31436Y12552D01*
G01X31405Y12530D01*
G01X31375Y12510D01*
G01X31346Y12492D01*
G01X31318Y12475D01*
G01X31291Y12461D01*
G01X31265Y12450D01*
G01X31240Y12439D01*
G01X31217Y12432D01*
G01X31194Y12426D01*
G01X31173Y12423D01*
G01X31153Y12422D01*
G01X31086Y12420D01*
G01X31034Y12413D01*
G01X30996Y12400D01*
G01X30970Y12379D01*
G01X30957Y12348D01*
G01X30954Y12307D01*
G01X30961Y12253D01*
G01X30976Y12186D01*
G01X30981Y12162D01*
G01X30984Y12137D01*
G01X30985Y12111D01*
G01X30983Y12084D01*
G01X30978Y12056D01*
G01X30971Y12027D01*
G01X30961Y11996D01*
G01X30947Y11963D01*
G01X30930Y11927D01*
G01X30910Y11889D01*
G01X30886Y11849D01*
G01X30857Y11805D01*
G01X30825Y11758D01*
G01X30789Y11707D01*
G01X30749Y11652D01*
G01X30703Y11594D01*
G01X30653Y11530D01*
G01X30598Y11463D01*
G01X30538Y11390D01*
G01X30473Y11312D01*
G01X30402Y11229D01*
G01X30326Y11139D01*
G01X30243Y11045D01*
G01X30155Y10943D01*
G01X30095Y10875D01*
G01X30037Y10806D01*
G01X29979Y10739D01*
G01X29922Y10672D01*
G01X29867Y10607D01*
G01X29814Y10543D01*
G01X29762Y10480D01*
G01X29712Y10419D01*
G01X29664Y10360D01*
G01X29618Y10303D01*
G01X29575Y10248D01*
G01X29534Y10195D01*
G01X29496Y10145D01*
G01X29459Y10098D01*
G01X29426Y10053D01*
G01X29396Y10012D01*
G01X29369Y9974D01*
G01X29345Y9939D01*
G01X29324Y9907D01*
G01X29307Y9880D01*
G01X29293Y9856D01*
G01X29284Y9836D01*
G01X29278Y9821D01*
G01X29276Y9810D01*
G01X29277Y9785D01*
G01X29279Y9762D01*
G01X29283Y9743D01*
G01X29289Y9726D01*
G01X29297Y9712D01*
G01X29306Y9701D01*
G01X29318Y9693D01*
G01X29331Y9688D01*
G01X29346Y9686D01*
G01X29363Y9687D01*
G01X29382Y9691D01*
G01X29403Y9698D01*
G01X29426Y9707D01*
G01X29451Y9721D01*
G01X29479Y9737D01*
G01X29508Y9756D01*
G01X29539Y9779D01*
G01X29573Y9804D01*
G01X29609Y9833D01*
G01X29647Y9866D01*
G01X29688Y9901D01*
G01X29731Y9940D01*
G01X29776Y9982D01*
G01X29823Y10027D01*
G01X29873Y10076D01*
G01X29981Y10184D01*
G01X30038Y10243D01*
G01X30098Y10306D01*
G01X30160Y10372D01*
G01X30226Y10442D01*
G01X30294Y10515D01*
G01X30364Y10592D01*
G01X30437Y10672D01*
G01X30514Y10756D01*
G01X30592Y10844D01*
G01X31631Y12005D01*
G01X32665Y12074D01*
G01X32750Y12079D01*
G01X32834Y12085D01*
G01X32916Y12091D01*
G01X32997Y12098D01*
G01X33075Y12104D01*
G01X33152Y12110D01*
G01X33225Y12117D01*
G01X33296Y12123D01*
G01X33364Y12129D01*
G01X33428Y12135D01*
G01X33488Y12141D01*
G01X33545Y12147D01*
G01X33597Y12153D01*
G01X33644Y12158D01*
G01X33687Y12164D01*
G01X33723Y12169D01*
G01X33755Y12174D01*
G01X33780Y12178D01*
G01X33799Y12183D01*
G01X33812Y12186D01*
G01X33822Y12187D01*
G01X33832Y12183D01*
G01X33844Y12175D01*
G01X33857Y12161D01*
G01X33870Y12143D01*
G01X33885Y12120D01*
G01X33900Y12092D01*
G01X33917Y12059D01*
G01X33934Y12022D01*
G01X33953Y11981D01*
G01X33972Y11934D01*
G01X33992Y11884D01*
G01X34013Y11828D01*
G01X34034Y11769D01*
G01X34057Y11705D01*
G01X34080Y11637D01*
G01X34105Y11564D01*
G01X34129Y11487D01*
G01X34155Y11406D01*
G01X34182Y11321D01*
G01X34209Y11232D01*
G01X34237Y11139D01*
G01X34265Y11041D01*
G01X34294Y10940D01*
G01X34323Y10840D01*
G01X34351Y10742D01*
G01X34380Y10646D01*
G01X34408Y10550D01*
G01X34437Y10456D01*
G01X34465Y10364D01*
G01X34493Y10273D01*
G01X34522Y10183D01*
G01X34550Y10095D01*
G01X34578Y10009D01*
G01X34605Y9923D01*
G01X34633Y9839D01*
G01X34661Y9757D01*
G01X34689Y9676D01*
G01X34717Y9597D01*
G01X34744Y9519D01*
G01X34772Y9443D01*
G01X34826Y9295D01*
G01X34880Y9153D01*
G01X34908Y9085D01*
G01X34934Y9018D01*
G01X34961Y8952D01*
G01X34988Y8887D01*
G01X35014Y8825D01*
G01X35041Y8764D01*
G01X35067Y8705D01*
G01X35093Y8647D01*
G01X35119Y8590D01*
G01X35145Y8535D01*
G01X35171Y8482D01*
G01X35222Y8380D01*
G01X35248Y8332D01*
G01X35273Y8284D01*
G01X35298Y8239D01*
G01X35348Y8153D01*
G01X35373Y8113D01*
G01X35397Y8074D01*
G01X35422Y8036D01*
G01X35470Y7966D01*
G01X35494Y7933D01*
G01X35518Y7902D01*
G01X35566Y7846D01*
G01X35589Y7820D01*
G01X35612Y7795D01*
G01X35635Y7772D01*
G01X35658Y7752D01*
G01X35680Y7732D01*
G01X35703Y7714D01*
G01X35726Y7698D01*
G01X35747Y7684D01*
G01X35770Y7671D01*
G01X35791Y7660D01*
G01X35813Y7651D01*
G01X35834Y7643D01*
G01X35856Y7637D01*
G01X35876Y7633D01*
G01X35898Y7630D01*
G01X35961Y7630D01*
G01X36000Y7633D01*
G01X36034Y7639D01*
G01X36063Y7646D01*
G01X36088Y7658D01*
G01X36107Y7672D01*
G01X36122Y7691D01*
G01X36132Y7713D01*
G01X36137Y7740D01*
G01X36137Y7771D01*
G01X36133Y7808D01*
G01X36123Y7851D01*
G01X36108Y7899D01*
G01X36089Y7954D01*
G01X36064Y8016D01*
G01X36034Y8084D01*
G01X36000Y8160D01*
G01X35960Y8243D01*
G01X35916Y8335D01*
G01X35865Y8435D01*
G01X35830Y8506D01*
G01X35794Y8578D01*
G01X35759Y8650D01*
G01X35723Y8723D01*
G01X35688Y8797D01*
G01X35652Y8871D01*
G01X35616Y8946D01*
G01X35546Y9096D01*
G01X35511Y9172D01*
G01X35477Y9248D01*
G01X35408Y9400D01*
G01X35340Y9552D01*
G01X35306Y9629D01*
G01X35273Y9704D01*
G01X35240Y9781D01*
G01X35207Y9856D01*
G01X35143Y10007D01*
G01X35112Y10081D01*
G01X35081Y10156D01*
G01X35050Y10230D01*
G01X35021Y10303D01*
G01X34962Y10449D01*
G01X34933Y10520D01*
G01X34905Y10591D01*
G01X34878Y10661D01*
G01X34824Y10799D01*
G01X34799Y10866D01*
G01X34749Y10998D01*
G01X34725Y11062D01*
G01X34703Y11125D01*
G01X34680Y11187D01*
G01X34658Y11248D01*
G01X34637Y11307D01*
G01X34618Y11365D01*
G01X34598Y11422D01*
G01X34580Y11477D01*
G01X34562Y11531D01*
G01X34530Y11633D01*
G01X34515Y11682D01*
G01X34501Y11729D01*
G01X34488Y11774D01*
G01X34475Y11818D01*
G01X34464Y11859D01*
G01X34454Y11899D01*
G01X34445Y11936D01*
G01X34437Y11972D01*
G01X34430Y12006D01*
G01X34424Y12037D01*
G01X34419Y12066D01*
G01X34414Y12093D01*
G01X34412Y12118D01*
G01X34410Y12140D01*
G01X34410Y12160D01*
G01X34411Y12177D01*
G01X34413Y12192D01*
G01X34416Y12204D01*
G01X34421Y12214D01*
G01X34427Y12221D01*
G01X34434Y12226D01*
G01X34442Y12227D01*
G01X34453Y12228D01*
G01X34473Y12229D01*
G01X34501Y12232D01*
G01X34536Y12235D01*
G01X34578Y12239D01*
G01X34627Y12244D01*
G01X34682Y12250D01*
G01X34743Y12257D01*
G01X34809Y12264D01*
G01X34879Y12271D01*
G01X34954Y12280D01*
G01X35033Y12289D01*
G01X35114Y12298D01*
G01X35199Y12307D01*
G01X35286Y12317D01*
G01X35374Y12327D01*
G01X35479Y12339D01*
G01X35579Y12352D01*
G01X35674Y12365D01*
G01X35764Y12378D01*
G01X35849Y12391D01*
G01X35930Y12405D01*
G01X36006Y12419D01*
G01X36077Y12433D01*
G01X36143Y12448D01*
G01X36205Y12462D01*
G01X36262Y12478D01*
G01X36314Y12493D01*
G01X36363Y12509D01*
G01X36406Y12525D01*
G01X36446Y12542D01*
G01X36481Y12559D01*
G01X36511Y12577D01*
G01X36538Y12594D01*
G01X36560Y12613D01*
G01X36579Y12631D01*
G01X36593Y12651D01*
G01X36602Y12671D01*
G01X36609Y12691D01*
G01X36611Y12712D01*
G01X36609Y12734D01*
G01X36602Y12753D01*
G01X36593Y12771D01*
G01X36579Y12787D01*
G01X36560Y12802D01*
G01X36537Y12815D01*
G01X36510Y12827D01*
G01X36478Y12837D01*
G01X36442Y12845D01*
G01X36402Y12851D01*
G01X36356Y12856D01*
G01X36305Y12860D01*
G01X36250Y12862D01*
G01X36189Y12862D01*
G01X36123Y12860D01*
G01X36053Y12857D01*
G01X35977Y12852D01*
G01X35895Y12846D01*
G01X35808Y12838D01*
G01X35715Y12829D01*
G01X35617Y12817D01*
G01X35513Y12805D01*
G01X35403Y12790D01*
G01X35287Y12775D01*
G01X35187Y12760D01*
G01X35091Y12748D01*
G01X34997Y12735D01*
G01X34907Y12723D01*
G01X34820Y12712D01*
G01X34739Y12702D01*
G01X34662Y12693D01*
G01X34592Y12684D01*
G01X34527Y12677D01*
G01X34469Y12671D01*
G01X34418Y12665D01*
G01X34375Y12662D01*
G01X34340Y12659D01*
G01X34314Y12658D01*
G01X34297Y12658D01*
G01X34289Y12659D01*
G01X34286Y12664D01*
G01X34282Y12676D01*
G01X34277Y12695D01*
G01X34264Y12750D01*
G01X34255Y12786D01*
G01X34245Y12827D01*
G01X34235Y12873D01*
G01X34224Y12924D01*
G01X34212Y12979D01*
G01X34199Y13038D01*
G01X34185Y13101D01*
G01X34172Y13167D01*
G01X34157Y13236D01*
G01X34142Y13308D01*
G01X34126Y13382D01*
G01X34111Y13458D01*
G01X34094Y13536D01*
G01X34078Y13616D01*
G01X34061Y13696D01*
G01X34045Y13778D01*
G01X34028Y13860D01*
G01X34012Y13943D01*
G01X33995Y14025D01*
G01X33979Y14107D01*
G01X33963Y14187D01*
G01X33948Y14268D01*
G01X33932Y14346D01*
G01X33917Y14424D01*
G01X33903Y14499D01*
G01X33889Y14571D01*
G01X33875Y14642D01*
G01X33863Y14709D01*
G01X33851Y14774D01*
G01X33840Y14834D01*
G01X33830Y14891D01*
G01X33819Y14951D01*
G01X33806Y15006D01*
G01X33792Y15055D01*
G01X33777Y15098D01*
G01X33761Y15135D01*
G01X33744Y15167D01*
G01X33726Y15193D01*
G01X33706Y15213D01*
G01X33685Y15227D01*
G01X33662Y15236D01*
G37*

%LPC*%
G36*
G01X33471Y14219D02*
G01X33465Y14231D01*
G01X33458Y14230D01*
G01X33445Y14219D01*
G01X33425Y14201D01*
G01X33400Y14175D01*
G01X33370Y14141D01*
G01X33333Y14100D01*
G01X33293Y14052D01*
G01X33248Y13997D01*
G01X33199Y13937D01*
G01X33091Y13802D01*
G01X33032Y13727D01*
G01X32970Y13648D01*
G01X32906Y13566D01*
G01X32841Y13480D01*
G01X32773Y13391D01*
G01X32114Y12520D01*
G01X32626Y12521D01*
G01X32699Y12521D01*
G01X32775Y12523D01*
G01X32853Y12526D01*
G01X32932Y12529D01*
G01X33012Y12533D01*
G01X33091Y12538D01*
G01X33167Y12544D01*
G01X33241Y12550D01*
G01X33312Y12557D01*
G01X33377Y12564D01*
G01X33436Y12571D01*
G01X33487Y12580D01*
G01X33836Y12637D01*
G01X33667Y13417D01*
G01X33644Y13523D01*
G01X33621Y13626D01*
G01X33599Y13723D01*
G01X33577Y13815D01*
G01X33557Y13900D01*
G01X33538Y13978D01*
G01X33520Y14048D01*
G01X33505Y14107D01*
G01X33491Y14156D01*
G01X33480Y14194D01*
G01X33471Y14219D01*
G37*

%LPD*%
G36*
G01X48444Y6407D02*
G01X48406Y6419D01*
G01X48375Y6405D01*
G01X48354Y6369D01*
G01X48346Y6315D01*
G01X48354Y6256D01*
G01X48375Y6207D01*
G01X48406Y6175D01*
G01X48444Y6163D01*
G01X48482Y6170D01*
G01X48514Y6189D01*
G01X48534Y6219D01*
G01X48542Y6255D01*
G01X48534Y6295D01*
G01X48514Y6337D01*
G01X48482Y6376D01*
G01X48444Y6407D01*
G37*

%LPD*%
G36*
G01X48383Y5859D02*
G01X48333Y5860D01*
G01X48273Y5858D01*
G01X48173Y5850D01*
G01X48123Y5837D01*
G01X48123Y5821D01*
G01X48175Y5802D01*
G01X48220Y5785D01*
G01X48257Y5759D01*
G01X48286Y5723D01*
G01X48310Y5675D01*
G01X48327Y5613D01*
G01X48338Y5536D01*
G01X48344Y5442D01*
G01X48346Y5330D01*
G01X48346Y5240D01*
G01X48343Y5163D01*
G01X48339Y5098D01*
G01X48331Y5044D01*
G01X48320Y5000D01*
G01X48304Y4965D01*
G01X48283Y4936D01*
G01X48256Y4914D01*
G01X48223Y4897D01*
G01X48183Y4884D01*
G01X48135Y4873D01*
G01X48078Y4864D01*
G01X48047Y4858D01*
G01X48029Y4852D01*
G01X48023Y4847D01*
G01X48029Y4843D01*
G01X48046Y4839D01*
G01X48074Y4835D01*
G01X48113Y4831D01*
G01X48161Y4828D01*
G01X48218Y4826D01*
G01X48285Y4824D01*
G01X48361Y4823D01*
G01X48444Y4822D01*
G01X48528Y4823D01*
G01X48603Y4824D01*
G01X48670Y4826D01*
G01X48727Y4828D01*
G01X48776Y4831D01*
G01X48814Y4835D01*
G01X48842Y4839D01*
G01X48859Y4843D01*
G01X48865Y4847D01*
G01X48859Y4852D01*
G01X48842Y4858D01*
G01X48811Y4864D01*
G01X48753Y4873D01*
G01X48703Y4884D01*
G01X48663Y4898D01*
G01X48629Y4916D01*
G01X48603Y4939D01*
G01X48582Y4970D01*
G01X48567Y5009D01*
G01X48556Y5059D01*
G01X48549Y5120D01*
G01X48544Y5194D01*
G01X48542Y5282D01*
G01X48542Y5387D01*
G01X48541Y5494D01*
G01X48540Y5583D01*
G01X48536Y5658D01*
G01X48530Y5718D01*
G01X48520Y5764D01*
G01X48504Y5800D01*
G01X48484Y5826D01*
G01X48458Y5844D01*
G01X48424Y5854D01*
G01X48383Y5859D01*
G37*

%LPD*%
G36*
G01X53582Y5949D02*
G01X53536Y5957D01*
G01X53484Y5948D01*
G01X53423Y5921D01*
G01X53349Y5877D01*
G01X53258Y5815D01*
G01X53173Y5763D01*
G01X53104Y5736D01*
G01X53058Y5737D01*
G01X53041Y5766D01*
G01X53024Y5805D01*
G01X52976Y5835D01*
G01X52906Y5854D01*
G01X52821Y5858D01*
G01X52725Y5850D01*
G01X52686Y5839D01*
G01X52702Y5824D01*
G01X52772Y5802D01*
G01X52816Y5785D01*
G01X52853Y5759D01*
G01X52883Y5723D01*
G01X52906Y5675D01*
G01X52923Y5613D01*
G01X52935Y5536D01*
G01X52941Y5443D01*
G01X52943Y5331D01*
G01X52941Y5208D01*
G01X52935Y5109D01*
G01X52923Y5032D01*
G01X52904Y4974D01*
G01X52875Y4931D01*
G01X52837Y4900D01*
G01X52786Y4878D01*
G01X52723Y4863D01*
G01X52690Y4854D01*
G01X52680Y4846D01*
G01X52692Y4839D01*
G01X52725Y4833D01*
G01X52778Y4828D01*
G01X52849Y4824D01*
G01X52937Y4822D01*
G01X53041Y4821D01*
G01X53143Y4822D01*
G01X53228Y4825D01*
G01X53295Y4829D01*
G01X53342Y4834D01*
G01X53367Y4840D01*
G01X53372Y4847D01*
G01X53353Y4855D01*
G01X53310Y4864D01*
G01X53231Y4878D01*
G01X53170Y4896D01*
G01X53123Y4921D01*
G01X53088Y4955D01*
G01X53065Y5001D01*
G01X53050Y5061D01*
G01X53043Y5138D01*
G01X53041Y5234D01*
G01X53045Y5303D01*
G01X53056Y5370D01*
G01X53074Y5435D01*
G01X53098Y5498D01*
G01X53127Y5557D01*
G01X53160Y5612D01*
G01X53197Y5663D01*
G01X53237Y5707D01*
G01X53280Y5745D01*
G01X53323Y5776D01*
G01X53367Y5800D01*
G01X53411Y5815D01*
G01X53454Y5820D01*
G01X53495Y5815D01*
G01X53534Y5798D01*
G01X53570Y5770D01*
G01X53627Y5722D01*
G01X53678Y5690D01*
G01X53723Y5675D01*
G01X53756Y5677D01*
G01X53776Y5693D01*
G01X53779Y5723D01*
G01X53764Y5765D01*
G01X53726Y5820D01*
G01X53673Y5881D01*
G01X53626Y5923D01*
G01X53582Y5949D01*
G37*

%LPD*%
G36*
G01X47322Y5949D02*
G01X47277Y5957D01*
G01X47225Y5948D01*
G01X47164Y5921D01*
G01X47090Y5877D01*
G01X46999Y5815D01*
G01X46914Y5763D01*
G01X46845Y5736D01*
G01X46798Y5737D01*
G01X46782Y5766D01*
G01X46764Y5805D01*
G01X46717Y5835D01*
G01X46647Y5854D01*
G01X46562Y5858D01*
G01X46466Y5850D01*
G01X46427Y5839D01*
G01X46443Y5824D01*
G01X46512Y5802D01*
G01X46557Y5785D01*
G01X46594Y5759D01*
G01X46624Y5723D01*
G01X46647Y5675D01*
G01X46664Y5613D01*
G01X46676Y5536D01*
G01X46682Y5443D01*
G01X46684Y5331D01*
G01X46682Y5208D01*
G01X46676Y5109D01*
G01X46664Y5032D01*
G01X46644Y4974D01*
G01X46616Y4931D01*
G01X46578Y4900D01*
G01X46527Y4878D01*
G01X46464Y4863D01*
G01X46431Y4854D01*
G01X46421Y4846D01*
G01X46433Y4839D01*
G01X46466Y4833D01*
G01X46519Y4828D01*
G01X46590Y4824D01*
G01X46678Y4822D01*
G01X46782Y4821D01*
G01X46884Y4822D01*
G01X46969Y4825D01*
G01X47036Y4829D01*
G01X47082Y4834D01*
G01X47108Y4840D01*
G01X47112Y4847D01*
G01X47094Y4855D01*
G01X47050Y4864D01*
G01X46972Y4878D01*
G01X46910Y4896D01*
G01X46863Y4921D01*
G01X46829Y4956D01*
G01X46805Y5002D01*
G01X46791Y5062D01*
G01X46784Y5140D01*
G01X46782Y5237D01*
G01X46785Y5327D01*
G01X46794Y5405D01*
G01X46812Y5475D01*
G01X46838Y5536D01*
G01X46873Y5593D01*
G01X46918Y5644D01*
G01X46975Y5694D01*
G01X47043Y5742D01*
G01X47110Y5785D01*
G01X47167Y5816D01*
G01X47215Y5837D01*
G01X47255Y5848D01*
G01X47287Y5849D01*
G01X47312Y5840D01*
G01X47331Y5822D01*
G01X47345Y5794D01*
G01X47368Y5747D01*
G01X47403Y5709D01*
G01X47444Y5683D01*
G01X47486Y5673D01*
G01X47519Y5684D01*
G01X47527Y5713D01*
G01X47509Y5760D01*
G01X47466Y5820D01*
G01X47414Y5881D01*
G01X47367Y5923D01*
G01X47322Y5949D01*
G37*

%LPD*%
G36*
G01X39189Y6260D02*
G01X38922Y6260D01*
G01X38811Y6259D01*
G01X38720Y6256D01*
G01X38647Y6249D01*
G01X38590Y6240D01*
G01X38547Y6225D01*
G01X38517Y6205D01*
G01X38496Y6179D01*
G01X38485Y6145D01*
G01X38480Y6103D01*
G01X38479Y6052D01*
G01X38482Y5991D01*
G01X38486Y5915D01*
G01X38490Y5860D01*
G01X38495Y5825D01*
G01X38500Y5809D01*
G01X38507Y5814D01*
G01X38515Y5838D01*
G01X38525Y5881D01*
G01X38538Y5943D01*
G01X38568Y6035D01*
G01X38619Y6104D01*
G01X38687Y6147D01*
G01X38769Y6163D01*
G01X38808Y6161D01*
G01X38841Y6154D01*
G01X38869Y6143D01*
G01X38892Y6123D01*
G01X38911Y6095D01*
G01X38926Y6057D01*
G01X38937Y6007D01*
G01X38946Y5944D01*
G01X38951Y5867D01*
G01X38955Y5773D01*
G01X38957Y5663D01*
G01X38958Y5534D01*
G01X38957Y5413D01*
G01X38955Y5308D01*
G01X38951Y5216D01*
G01X38944Y5138D01*
G01X38936Y5072D01*
G01X38925Y5018D01*
G01X38911Y4973D01*
G01X38894Y4937D01*
G01X38873Y4909D01*
G01X38848Y4887D01*
G01X38819Y4872D01*
G01X38786Y4861D01*
G01X38761Y4852D01*
G01X38755Y4843D01*
G01X38767Y4836D01*
G01X38795Y4829D01*
G01X38839Y4823D01*
G01X38898Y4819D01*
G01X38971Y4817D01*
G01X39056Y4816D01*
G01X39140Y4817D01*
G01X39213Y4819D01*
G01X39272Y4823D01*
G01X39316Y4829D01*
G01X39345Y4836D01*
G01X39356Y4843D01*
G01X39350Y4852D01*
G01X39324Y4861D01*
G01X39291Y4872D01*
G01X39263Y4887D01*
G01X39238Y4909D01*
G01X39218Y4937D01*
G01X39200Y4973D01*
G01X39186Y5018D01*
G01X39175Y5072D01*
G01X39166Y5138D01*
G01X39160Y5216D01*
G01X39156Y5308D01*
G01X39154Y5413D01*
G01X39153Y5534D01*
G01X39154Y5663D01*
G01X39156Y5773D01*
G01X39159Y5867D01*
G01X39165Y5944D01*
G01X39173Y6007D01*
G01X39185Y6057D01*
G01X39200Y6095D01*
G01X39219Y6123D01*
G01X39242Y6143D01*
G01X39270Y6154D01*
G01X39303Y6161D01*
G01X39342Y6163D01*
G01X39424Y6147D01*
G01X39492Y6104D01*
G01X39543Y6035D01*
G01X39573Y5943D01*
G01X39585Y5881D01*
G01X39596Y5838D01*
G01X39604Y5814D01*
G01X39610Y5809D01*
G01X39616Y5825D01*
G01X39620Y5860D01*
G01X39625Y5915D01*
G01X39629Y5991D01*
G01X39632Y6052D01*
G01X39631Y6103D01*
G01X39626Y6145D01*
G01X39614Y6179D01*
G01X39595Y6205D01*
G01X39564Y6225D01*
G01X39521Y6240D01*
G01X39464Y6249D01*
G01X39391Y6256D01*
G01X39299Y6259D01*
G01X39189Y6260D01*
G37*

%LPD*%
G36*
G01X44863Y5861D02*
G01X44816Y5863D01*
G01X44778Y5862D01*
G01X44747Y5856D01*
G01X44725Y5845D01*
G01X44710Y5826D01*
G01X44702Y5798D01*
G01X44702Y5759D01*
G01X44710Y5706D01*
G01X44724Y5639D01*
G01X44745Y5555D01*
G01X44772Y5453D01*
G01X44806Y5331D01*
G01X44836Y5227D01*
G01X44864Y5134D01*
G01X44891Y5054D01*
G01X44917Y4985D01*
G01X44942Y4927D01*
G01X44965Y4881D01*
G01X44987Y4846D01*
G01X45009Y4823D01*
G01X45029Y4811D01*
G01X45049Y4811D01*
G01X45069Y4821D01*
G01X45088Y4843D01*
G01X45106Y4875D01*
G01X45124Y4919D01*
G01X45141Y4973D01*
G01X45159Y5038D01*
G01X45191Y5133D01*
G01X45230Y5211D01*
G01X45273Y5263D01*
G01X45315Y5282D01*
G01X45356Y5263D01*
G01X45399Y5211D01*
G01X45439Y5133D01*
G01X45470Y5038D01*
G01X45488Y4973D01*
G01X45506Y4919D01*
G01X45523Y4875D01*
G01X45542Y4843D01*
G01X45560Y4821D01*
G01X45580Y4811D01*
G01X45600Y4811D01*
G01X45620Y4823D01*
G01X45642Y4846D01*
G01X45664Y4881D01*
G01X45687Y4927D01*
G01X45712Y4985D01*
G01X45738Y5054D01*
G01X45765Y5134D01*
G01X45793Y5227D01*
G01X45823Y5331D01*
G01X45857Y5453D01*
G01X45885Y5555D01*
G01X45905Y5639D01*
G01X45920Y5706D01*
G01X45927Y5759D01*
G01X45927Y5798D01*
G01X45919Y5826D01*
G01X45904Y5845D01*
G01X45882Y5856D01*
G01X45852Y5862D01*
G01X45813Y5863D01*
G01X45766Y5861D01*
G01X45695Y5855D01*
G01X45656Y5842D01*
G01X45650Y5824D01*
G01X45681Y5804D01*
G01X45729Y5766D01*
G01X45756Y5700D01*
G01X45760Y5609D01*
G01X45742Y5495D01*
G01X45719Y5404D01*
G01X45695Y5328D01*
G01X45671Y5264D01*
G01X45647Y5215D01*
G01X45623Y5180D01*
G01X45600Y5158D01*
G01X45576Y5150D01*
G01X45553Y5156D01*
G01X45532Y5177D01*
G01X45510Y5211D01*
G01X45490Y5260D01*
G01X45472Y5324D01*
G01X45440Y5422D01*
G01X45399Y5502D01*
G01X45356Y5556D01*
G01X45315Y5576D01*
G01X45273Y5556D01*
G01X45230Y5502D01*
G01X45189Y5422D01*
G01X45157Y5324D01*
G01X45139Y5260D01*
G01X45119Y5211D01*
G01X45098Y5177D01*
G01X45076Y5156D01*
G01X45053Y5150D01*
G01X45030Y5158D01*
G01X45006Y5180D01*
G01X44982Y5215D01*
G01X44958Y5264D01*
G01X44934Y5328D01*
G01X44910Y5404D01*
G01X44887Y5495D01*
G01X44869Y5609D01*
G01X44874Y5700D01*
G01X44900Y5766D01*
G01X44948Y5804D01*
G01X44979Y5824D01*
G01X44973Y5842D01*
G01X44934Y5855D01*
G01X44863Y5861D01*
G37*

%LPD*%
G36*
G01X51586Y5921D02*
G01X51529Y5922D01*
G01X51473Y5918D01*
G01X51416Y5909D01*
G01X51361Y5894D01*
G01X51308Y5875D01*
G01X51256Y5849D01*
G01X51207Y5818D01*
G01X51166Y5785D01*
G01X51130Y5747D01*
G01X51097Y5704D01*
G01X51069Y5657D01*
G01X51045Y5607D01*
G01X51026Y5555D01*
G01X51010Y5500D01*
G01X50999Y5444D01*
G01X50992Y5386D01*
G01X50988Y5328D01*
G01X50988Y5271D01*
G01X50992Y5214D01*
G01X51000Y5158D01*
G01X51011Y5104D01*
G01X51027Y5053D01*
G01X51045Y5005D01*
G01X51067Y4960D01*
G01X51093Y4919D01*
G01X51122Y4883D01*
G01X51154Y4852D01*
G01X51190Y4828D01*
G01X51228Y4809D01*
G01X51270Y4798D01*
G01X51315Y4793D01*
G01X51338Y4808D01*
G01X51333Y4846D01*
G01X51302Y4903D01*
G01X51247Y4972D01*
G01X51203Y5021D01*
G01X51168Y5064D01*
G01X51139Y5103D01*
G01X51119Y5136D01*
G01X51107Y5166D01*
G01X51104Y5191D01*
G01X51109Y5212D01*
G01X51124Y5230D01*
G01X51148Y5245D01*
G01X51183Y5256D01*
G01X51228Y5265D01*
G01X51284Y5273D01*
G01X51351Y5277D01*
G01X51430Y5280D01*
G01X51520Y5282D01*
G01X51622Y5282D01*
G01X51723Y5283D01*
G01X51812Y5287D01*
G01X51890Y5292D01*
G01X51958Y5301D01*
G01X52016Y5313D01*
G01X52063Y5327D01*
G01X52100Y5345D01*
G01X52128Y5367D01*
G01X52147Y5392D01*
G01X52156Y5421D01*
G01X52156Y5454D01*
G01X52148Y5492D01*
G01X52130Y5535D01*
G01X52105Y5582D01*
G01X52071Y5634D01*
G01X52029Y5692D01*
G01X51992Y5736D01*
G01X51950Y5775D01*
G01X51905Y5811D01*
G01X51857Y5841D01*
G01X51806Y5867D01*
G01X51753Y5888D01*
G01X51699Y5904D01*
G01X51643Y5915D01*
G01X51586Y5921D01*
G37*

%LPC*%
G36*
G01X51597Y5851D02*
G01X51545Y5858D01*
G01X51494Y5854D01*
G01X51444Y5840D01*
G01X51393Y5815D01*
G01X51341Y5778D01*
G01X51287Y5731D01*
G01X51231Y5673D01*
G01X51191Y5627D01*
G01X51158Y5585D01*
G01X51132Y5548D01*
G01X51115Y5515D01*
G01X51106Y5487D01*
G01X51106Y5463D01*
G01X51115Y5442D01*
G01X51133Y5425D01*
G01X51160Y5411D01*
G01X51197Y5401D01*
G01X51243Y5394D01*
G01X51301Y5390D01*
G01X51368Y5388D01*
G01X51447Y5389D01*
G01X51536Y5393D01*
G01X51637Y5399D01*
G01X52112Y5429D01*
G01X51892Y5649D01*
G01X51826Y5711D01*
G01X51764Y5763D01*
G01X51706Y5803D01*
G01X51650Y5832D01*
G01X51597Y5851D01*
G37*

%LPD*%
G36*
G01X43767Y5922D02*
G01X43709Y5923D01*
G01X43651Y5919D01*
G01X43594Y5909D01*
G01X43538Y5894D01*
G01X43484Y5875D01*
G01X43432Y5849D01*
G01X43383Y5818D01*
G01X43330Y5775D01*
G01X43284Y5729D01*
G01X43247Y5678D01*
G01X43216Y5622D01*
G01X43192Y5560D01*
G01X43176Y5493D01*
G01X43166Y5419D01*
G01X43163Y5338D01*
G01X43165Y5257D01*
G01X43172Y5184D01*
G01X43185Y5118D01*
G01X43203Y5059D01*
G01X43228Y5005D01*
G01X43259Y4958D01*
G01X43298Y4915D01*
G01X43344Y4876D01*
G01X43398Y4842D01*
G01X43461Y4810D01*
G01X43533Y4781D01*
G01X43615Y4754D01*
G01X43658Y4745D01*
G01X43708Y4740D01*
G01X43764Y4740D01*
G01X43825Y4744D01*
G01X43888Y4751D01*
G01X43952Y4762D01*
G01X44016Y4776D01*
G01X44077Y4791D01*
G01X44136Y4809D01*
G01X44189Y4828D01*
G01X44235Y4847D01*
G01X44274Y4868D01*
G01X44302Y4888D01*
G01X44319Y4908D01*
G01X44324Y4928D01*
G01X44314Y4946D01*
G01X44275Y4957D01*
G01X44204Y4948D01*
G01X44113Y4922D01*
G01X44011Y4881D01*
G01X43938Y4850D01*
G01X43873Y4830D01*
G01X43815Y4819D01*
G01X43759Y4819D01*
G01X43703Y4830D01*
G01X43644Y4851D01*
G01X43581Y4884D01*
G01X43509Y4929D01*
G01X43455Y4965D01*
G01X43409Y4999D01*
G01X43368Y5032D01*
G01X43336Y5062D01*
G01X43310Y5090D01*
G01X43292Y5116D01*
G01X43281Y5139D01*
G01X43277Y5161D01*
G01X43280Y5182D01*
G01X43290Y5199D01*
G01X43308Y5216D01*
G01X43332Y5230D01*
G01X43365Y5243D01*
G01X43405Y5253D01*
G01X43452Y5262D01*
G01X43506Y5269D01*
G01X43568Y5275D01*
G01X43637Y5279D01*
G01X43714Y5282D01*
G01X43799Y5282D01*
G01X43899Y5284D01*
G01X43988Y5287D01*
G01X44067Y5293D01*
G01X44136Y5303D01*
G01X44194Y5314D01*
G01X44242Y5329D01*
G01X44281Y5348D01*
G01X44309Y5371D01*
G01X44329Y5396D01*
G01X44339Y5426D01*
G01X44340Y5460D01*
G01X44332Y5499D01*
G01X44315Y5541D01*
G01X44290Y5589D01*
G01X44256Y5641D01*
G01X44214Y5698D01*
G01X44177Y5741D01*
G01X44136Y5781D01*
G01X44091Y5815D01*
G01X44042Y5845D01*
G01X43991Y5869D01*
G01X43937Y5890D01*
G01X43881Y5906D01*
G01X43824Y5916D01*
G01X43767Y5922D01*
G37*

%LPC*%
G36*
G01X43773Y5851D02*
G01X43722Y5858D01*
G01X43671Y5854D01*
G01X43620Y5840D01*
G01X43569Y5815D01*
G01X43517Y5778D01*
G01X43463Y5731D01*
G01X43407Y5673D01*
G01X43366Y5627D01*
G01X43333Y5585D01*
G01X43309Y5548D01*
G01X43291Y5515D01*
G01X43283Y5487D01*
G01X43282Y5463D01*
G01X43291Y5442D01*
G01X43309Y5425D01*
G01X43336Y5411D01*
G01X43373Y5401D01*
G01X43420Y5394D01*
G01X43477Y5390D01*
G01X43544Y5388D01*
G01X43622Y5389D01*
G01X43712Y5393D01*
G01X43812Y5399D01*
G01X44288Y5429D01*
G01X44067Y5649D01*
G01X44002Y5711D01*
G01X43940Y5763D01*
G01X43882Y5803D01*
G01X43827Y5832D01*
G01X43773Y5851D01*
G37*

%LPD*%
G36*
G01X49752Y6243D02*
G01X49746Y6253D01*
G01X49741Y6244D01*
G01X49737Y6215D01*
G01X49733Y6166D01*
G01X49729Y6097D01*
G01X49710Y6010D01*
G01X49669Y5933D01*
G01X49612Y5873D01*
G01X49544Y5839D01*
G01X49453Y5814D01*
G01X49422Y5799D01*
G01X49453Y5790D01*
G01X49544Y5783D01*
G01X49591Y5775D01*
G01X49630Y5756D01*
G01X49660Y5725D01*
G01X49682Y5678D01*
G01X49698Y5613D01*
G01X49708Y5527D01*
G01X49714Y5418D01*
G01X49715Y5284D01*
G01X49716Y5185D01*
G01X49718Y5100D01*
G01X49723Y5027D01*
G01X49730Y4965D01*
G01X49740Y4914D01*
G01X49754Y4872D01*
G01X49772Y4837D01*
G01X49794Y4809D01*
G01X49821Y4787D01*
G01X49854Y4769D01*
G01X49893Y4754D01*
G01X49938Y4741D01*
G01X49988Y4732D01*
G01X50044Y4727D01*
G01X50104Y4726D01*
G01X50166Y4730D01*
G01X50229Y4738D01*
G01X50291Y4749D01*
G01X50349Y4764D01*
G01X50403Y4782D01*
G01X50472Y4811D01*
G01X50519Y4833D01*
G01X50541Y4849D01*
G01X50539Y4860D01*
G01X50510Y4865D01*
G01X50454Y4867D01*
G01X50369Y4865D01*
G01X50253Y4861D01*
G01X49862Y4842D01*
G01X49833Y5300D01*
G01X49826Y5404D01*
G01X49822Y5491D01*
G01X49822Y5563D01*
G01X49825Y5622D01*
G01X49834Y5668D01*
G01X49849Y5704D01*
G01X49871Y5731D01*
G01X49902Y5752D01*
G01X49941Y5767D01*
G01X49992Y5779D01*
G01X50053Y5789D01*
G01X50126Y5798D01*
G01X50449Y5838D01*
G01X50138Y5854D01*
G01X50056Y5860D01*
G01X49987Y5871D01*
G01X49930Y5889D01*
G01X49884Y5913D01*
G01X49848Y5944D01*
G01X49820Y5983D01*
G01X49799Y6031D01*
G01X49785Y6089D01*
G01X49771Y6161D01*
G01X49760Y6212D01*
G01X49752Y6243D01*
G37*

%LPD*%
G36*
G01X52144Y4976D02*
G01X52124Y4980D01*
G01X52094Y4977D01*
G01X52054Y4968D01*
G01X52005Y4952D01*
G01X51946Y4931D01*
G01X51879Y4903D01*
G01X51803Y4870D01*
G01X51721Y4830D01*
G01X51427Y4687D01*
G01X51721Y4747D01*
G01X51781Y4761D01*
G01X51842Y4778D01*
G01X51900Y4796D01*
G01X51955Y4816D01*
G01X52004Y4837D01*
G01X52048Y4858D01*
G01X52082Y4879D01*
G01X52107Y4898D01*
G01X52134Y4928D01*
G01X52149Y4950D01*
G01X52152Y4967D01*
G01X52144Y4976D01*
G37*

%LPD*%
G36*
G01X42275Y5955D02*
G01X42231Y5959D01*
G01X42187Y5956D01*
G01X42143Y5947D01*
G01X42098Y5930D01*
G01X42052Y5908D01*
G01X42003Y5880D01*
G01X41935Y5850D01*
G01X41848Y5831D01*
G01X41753Y5825D01*
G01X41661Y5833D01*
G01X41589Y5844D01*
G01X41549Y5843D01*
G01X41543Y5833D01*
G01X41574Y5813D01*
G01X41593Y5799D01*
G01X41611Y5776D01*
G01X41627Y5745D01*
G01X41641Y5705D01*
G01X41654Y5657D01*
G01X41665Y5600D01*
G01X41674Y5535D01*
G01X41682Y5462D01*
G01X41688Y5380D01*
G01X41693Y5290D01*
G01X41695Y5192D01*
G01X41696Y5087D01*
G01X41695Y4980D01*
G01X41693Y4882D01*
G01X41689Y4792D01*
G01X41682Y4711D01*
G01X41675Y4638D01*
G01X41665Y4574D01*
G01X41654Y4518D01*
G01X41641Y4471D01*
G01X41627Y4433D01*
G01X41611Y4403D01*
G01X41593Y4382D01*
G01X41574Y4369D01*
G01X41553Y4351D01*
G01X41588Y4335D01*
G01X41671Y4326D01*
G01X41794Y4324D01*
G01X41913Y4328D01*
G01X41985Y4339D01*
G01X42004Y4354D01*
G01X41965Y4372D01*
G01X41895Y4407D01*
G01X41841Y4468D01*
G01X41806Y4550D01*
G01X41794Y4648D01*
G01X41796Y4716D01*
G01X41804Y4769D01*
G01X41820Y4807D01*
G01X41847Y4832D01*
G01X41887Y4845D01*
G01X41943Y4848D01*
G01X42017Y4842D01*
G01X42112Y4829D01*
G01X42184Y4821D01*
G01X42255Y4818D01*
G01X42326Y4821D01*
G01X42393Y4831D01*
G01X42456Y4844D01*
G01X42515Y4864D01*
G01X42567Y4887D01*
G01X42613Y4916D01*
G01X42658Y4955D01*
G01X42696Y4999D01*
G01X42728Y5049D01*
G01X42753Y5102D01*
G01X42773Y5159D01*
G01X42785Y5218D01*
G01X42792Y5280D01*
G01X42793Y5342D01*
G01X42787Y5405D01*
G01X42776Y5467D01*
G01X42757Y5528D01*
G01X42733Y5588D01*
G01X42704Y5644D01*
G01X42667Y5697D01*
G01X42626Y5746D01*
G01X42578Y5790D01*
G01X42520Y5835D01*
G01X42465Y5873D01*
G01X42414Y5904D01*
G01X42366Y5928D01*
G01X42319Y5945D01*
G01X42275Y5955D01*
G37*

%LPC*%
G36*
G01X42282Y5858D02*
G01X42237Y5861D01*
G01X42191Y5854D01*
G01X42146Y5839D01*
G01X42099Y5815D01*
G01X42052Y5782D01*
G01X42004Y5741D01*
G01X41956Y5690D01*
G01X41913Y5639D01*
G01X41877Y5586D01*
G01X41849Y5532D01*
G01X41826Y5477D01*
G01X41810Y5423D01*
G01X41801Y5369D01*
G01X41797Y5315D01*
G01X41799Y5263D01*
G01X41807Y5213D01*
G01X41821Y5164D01*
G01X41840Y5118D01*
G01X41865Y5075D01*
G01X41894Y5035D01*
G01X41929Y5000D01*
G01X41968Y4968D01*
G01X42013Y4942D01*
G01X42062Y4920D01*
G01X42115Y4904D01*
G01X42172Y4895D01*
G01X42234Y4891D01*
G01X42285Y4894D01*
G01X42333Y4902D01*
G01X42379Y4914D01*
G01X42422Y4931D01*
G01X42462Y4951D01*
G01X42499Y4976D01*
G01X42533Y5004D01*
G01X42563Y5036D01*
G01X42590Y5070D01*
G01X42614Y5107D01*
G01X42634Y5146D01*
G01X42651Y5187D01*
G01X42663Y5229D01*
G01X42672Y5274D01*
G01X42677Y5318D01*
G01X42677Y5364D01*
G01X42674Y5410D01*
G01X42665Y5455D01*
G01X42653Y5502D01*
G01X42636Y5546D01*
G01X42615Y5591D01*
G01X42588Y5634D01*
G01X42557Y5676D01*
G01X42520Y5716D01*
G01X42471Y5761D01*
G01X42423Y5799D01*
G01X42375Y5827D01*
G01X42329Y5847D01*
G01X42282Y5858D01*
G37*

%LPD*%
G36*
G01X41105Y5867D02*
G01X41071Y5867D01*
G01X40994Y5862D01*
G01X40951Y5847D01*
G01X40945Y5824D01*
G01X40977Y5794D01*
G01X41002Y5771D01*
G01X41017Y5738D01*
G01X41021Y5696D01*
G01X41014Y5642D01*
G01X40996Y5577D01*
G01X40968Y5500D01*
G01X40928Y5409D01*
G01X40876Y5304D01*
G01X40662Y4885D01*
G01X40450Y5322D01*
G01X40399Y5431D01*
G01X40359Y5525D01*
G01X40331Y5604D01*
G01X40314Y5669D01*
G01X40308Y5721D01*
G01X40313Y5760D01*
G01X40329Y5788D01*
G01X40356Y5806D01*
G01X40385Y5825D01*
G01X40377Y5842D01*
G01X40335Y5855D01*
G01X40263Y5861D01*
G01X40216Y5863D01*
G01X40178Y5861D01*
G01X40149Y5856D01*
G01X40129Y5844D01*
G01X40119Y5825D01*
G01X40119Y5796D01*
G01X40129Y5757D01*
G01X40150Y5705D01*
G01X40181Y5638D01*
G01X40223Y5555D01*
G01X40277Y5455D01*
G01X40342Y5335D01*
G01X40387Y5249D01*
G01X40427Y5166D01*
G01X40461Y5089D01*
G01X40490Y5015D01*
G01X40514Y4946D01*
G01X40532Y4882D01*
G01X40545Y4821D01*
G01X40552Y4764D01*
G01X40553Y4711D01*
G01X40549Y4662D01*
G01X40539Y4618D01*
G01X40525Y4576D01*
G01X40504Y4538D01*
G01X40478Y4504D01*
G01X40446Y4474D01*
G01X40409Y4448D01*
G01X40367Y4424D01*
G01X40318Y4404D01*
G01X40264Y4387D01*
G01X40205Y4373D01*
G01X40170Y4365D01*
G01X40154Y4356D01*
G01X40157Y4347D01*
G01X40179Y4340D01*
G01X40217Y4333D01*
G01X40271Y4327D01*
G01X40341Y4323D01*
G01X40425Y4319D01*
G01X40518Y4318D01*
G01X40597Y4320D01*
G01X40661Y4325D01*
G01X40710Y4333D01*
G01X40743Y4343D01*
G01X40758Y4356D01*
G01X40756Y4371D01*
G01X40737Y4389D01*
G01X40719Y4402D01*
G01X40706Y4418D01*
G01X40696Y4437D01*
G01X40689Y4461D01*
G01X40687Y4488D01*
G01X40688Y4519D01*
G01X40694Y4556D01*
G01X40704Y4597D01*
G01X40717Y4645D01*
G01X40736Y4699D01*
G01X40758Y4758D01*
G01X40786Y4826D01*
G01X40817Y4900D01*
G01X40854Y4981D01*
G01X40896Y5071D01*
G01X40942Y5169D01*
G01X40999Y5288D01*
G01X41048Y5392D01*
G01X41090Y5483D01*
G01X41125Y5562D01*
G01X41154Y5629D01*
G01X41175Y5686D01*
G01X41191Y5732D01*
G01X41200Y5770D01*
G01X41204Y5801D01*
G01X41201Y5824D01*
G01X41193Y5842D01*
G01X41178Y5853D01*
G01X41159Y5861D01*
G01X41135Y5865D01*
G01X41105Y5867D01*
G37*

%LPD*%
G54D21*
G01X30894Y95046D02*
G01X30894Y91084D01*
G01X34754Y95046D02*
G01X34754Y91084D01*
G01X37802Y87325D02*
G01X23985Y87325D01*
G01X23985Y91084D02*
G01X23985Y84681D01*
G01X37802Y84681D02*
G01X37802Y91084D01*
G01X37802Y91084D02*
G01X23985Y91084D01*
G01X23985Y84681D02*
G01X37802Y84681D01*
G54D10*
G01X67437Y94996D02*
G01X67437Y94996D01*
G01X92837Y94996D01*
G01X92837Y32131D01*
G01X85852Y32131D01*
G01X78867Y32131D01*
G01X78867Y36576D01*
G01X86487Y36576D01*
G01X86487Y32131D01*
G01X78867Y32131D01*
G01X67437Y32131D01*
G01X67437Y94996D01*
G54D22*
G01X67437Y39116D02*
G01X67437Y34036D01*
G01X73787Y34036D01*
G01X73787Y39116D01*
G01X70612Y39116D01*
G01X68072Y39116D01*
G01X67437Y39116D01*
G01X89027Y49276D02*
G01X89027Y39116D01*
G01X92837Y39116D01*
G01X92837Y49276D01*
G01X92202Y49276D01*
G01X89662Y49276D01*
G01X89027Y49276D01*
G01X67437Y46736D02*
G01X67437Y41656D01*
G01X71247Y41656D01*
G01X71247Y46736D01*
G01X70612Y46736D01*
G01X68072Y46736D01*
G01X67437Y46736D01*
G54D10*
G01X128249Y83352D02*
G01X128249Y60952D01*
G01X135448Y60952D01*
G01X135448Y83352D01*
G01X128249Y83352D01*
G01X9558Y54597D02*
G01X52992Y54597D01*
G01X52992Y74917D01*
G01X9558Y74917D01*
G01X9558Y54597D01*
G01X120804Y13708D02*
G01X121386Y8661D01*
G01X123240Y8661D01*
G01X123825Y13716D01*
G01X128295Y13766D02*
G01X127711Y8712D01*
G01X125857Y8712D01*
G01X125275Y13759D01*
G01X137922Y49530D02*
G01X137922Y11430D01*
G01X111252Y11430D01*
G01X111252Y49530D01*
G01X137922Y49530D01*
G01X131191Y21209D02*
G01X131191Y7112D01*
G01X117983Y7112D01*
G01X117983Y21209D01*
G01X131191Y21209D01*
G54D13*
G01X138430Y64018D02*
G01X138430Y62928D01*
G01X138430Y64018D02*
G01X138897Y64018D01*
G01X139052Y63967D01*
G01X139105Y63914D01*
G01X139156Y63809D01*
G01X139156Y63705D01*
G01X139105Y63601D01*
G01X139052Y63550D01*
G01X138897Y63500D01*
G01X138430Y63500D02*
G01X138897Y63500D01*
G01X139052Y63446D01*
G01X139105Y63395D01*
G01X139156Y63291D01*
G01X139156Y63134D01*
G01X139105Y63030D01*
G01X139052Y62979D01*
G01X138897Y62928D01*
G01X138430Y62928D01*
G01X139499Y64018D02*
G01X139499Y63238D01*
G01X139552Y63083D01*
G01X139656Y62979D01*
G01X139811Y62928D01*
G01X139915Y62928D01*
G01X140070Y62979D01*
G01X140174Y63083D01*
G01X140228Y63238D01*
G01X140228Y64018D01*
G01X141297Y63863D02*
G01X141193Y63967D01*
G01X141038Y64018D01*
G01X140830Y64018D01*
G01X140675Y63967D01*
G01X140571Y63863D01*
G01X140571Y63759D01*
G01X140622Y63654D01*
G01X140675Y63601D01*
G01X140779Y63550D01*
G01X141089Y63446D01*
G01X141193Y63395D01*
G01X141246Y63342D01*
G01X141297Y63238D01*
G01X141297Y63083D01*
G01X141193Y62979D01*
G01X141038Y62928D01*
G01X140830Y62928D01*
G01X140675Y62979D01*
G01X140571Y63083D01*
G01X141640Y64018D02*
G01X142057Y63500D01*
G01X142057Y62928D01*
G01X142471Y64018D02*
G01X142057Y63500D01*
G01X138557Y66558D02*
G01X138557Y65468D01*
G01X138557Y66558D02*
G01X139024Y66558D01*
G01X139179Y66507D01*
G01X139232Y66454D01*
G01X139283Y66349D01*
G01X139283Y66245D01*
G01X139232Y66141D01*
G01X139179Y66090D01*
G01X139024Y66040D01*
G01X138557Y66040D01*
G01X138920Y66040D02*
G01X139283Y65468D01*
G01X140355Y66403D02*
G01X140251Y66507D01*
G01X140093Y66558D01*
G01X139887Y66558D01*
G01X139730Y66507D01*
G01X139626Y66403D01*
G01X139626Y66299D01*
G01X139679Y66194D01*
G01X139730Y66141D01*
G01X139834Y66090D01*
G01X140147Y65986D01*
G01X140251Y65935D01*
G01X140301Y65882D01*
G01X140355Y65778D01*
G01X140355Y65623D01*
G01X140251Y65519D01*
G01X140093Y65468D01*
G01X139887Y65468D01*
G01X139730Y65519D01*
G01X139626Y65623D01*
G01X141061Y66558D02*
G01X141061Y65468D01*
G01X140698Y66558D02*
G01X141424Y66558D01*
G01X138557Y68971D02*
G01X138557Y67881D01*
G01X138557Y68971D02*
G01X138920Y68971D01*
G01X139077Y68920D01*
G01X139179Y68816D01*
G01X139232Y68712D01*
G01X139283Y68554D01*
G01X139283Y68295D01*
G01X139232Y68140D01*
G01X139179Y68036D01*
G01X139077Y67932D01*
G01X138920Y67881D01*
G01X138557Y67881D01*
G01X140406Y68712D02*
G01X140355Y68816D01*
G01X140251Y68920D01*
G01X140147Y68971D01*
G01X139938Y68971D01*
G01X139834Y68920D01*
G01X139730Y68816D01*
G01X139679Y68712D01*
G01X139626Y68554D01*
G01X139626Y68295D01*
G01X139679Y68140D01*
G01X139730Y68036D01*
G01X139834Y67932D01*
G01X139938Y67881D01*
G01X140147Y67881D01*
G01X140251Y67932D01*
G01X140355Y68036D01*
G01X140406Y68140D01*
G01X139209Y71252D02*
G01X139156Y71356D01*
G01X139052Y71460D01*
G01X138950Y71511D01*
G01X138742Y71511D01*
G01X138638Y71460D01*
G01X138534Y71356D01*
G01X138480Y71252D01*
G01X138430Y71094D01*
G01X138430Y70835D01*
G01X138480Y70680D01*
G01X138534Y70576D01*
G01X138638Y70472D01*
G01X138742Y70421D01*
G01X138950Y70421D01*
G01X139052Y70472D01*
G01X139156Y70576D01*
G01X139209Y70680D01*
G01X140279Y71356D02*
G01X140174Y71460D01*
G01X140020Y71511D01*
G01X139811Y71511D01*
G01X139656Y71460D01*
G01X139552Y71356D01*
G01X139552Y71252D01*
G01X139603Y71147D01*
G01X139656Y71094D01*
G01X139760Y71043D01*
G01X140070Y70939D01*
G01X140174Y70888D01*
G01X140228Y70835D01*
G01X140279Y70731D01*
G01X140279Y70576D01*
G01X140174Y70472D01*
G01X140020Y70421D01*
G01X139811Y70421D01*
G01X139656Y70472D01*
G01X139552Y70576D01*
G01X139082Y73665D02*
G01X139029Y73769D01*
G01X138925Y73873D01*
G01X138823Y73924D01*
G01X138615Y73924D01*
G01X138511Y73873D01*
G01X138407Y73769D01*
G01X138353Y73665D01*
G01X138303Y73507D01*
G01X138303Y73248D01*
G01X138353Y73093D01*
G01X138407Y72989D01*
G01X138511Y72885D01*
G01X138615Y72834D01*
G01X138823Y72834D01*
G01X138925Y72885D01*
G01X139029Y72989D01*
G01X139082Y73093D01*
G01X139425Y73924D02*
G01X139425Y72834D01*
G01X139425Y72834D02*
G01X140047Y72834D01*
G01X140390Y73924D02*
G01X140390Y72834D01*
G01X141119Y73924D02*
G01X140390Y73197D01*
G01X140652Y73456D02*
G01X141119Y72834D01*
G01X138303Y76464D02*
G01X138303Y75374D01*
G01X138303Y76464D02*
G01X138666Y76464D01*
G01X138823Y76413D01*
G01X138925Y76309D01*
G01X138978Y76205D01*
G01X139029Y76047D01*
G01X139029Y75788D01*
G01X138978Y75633D01*
G01X138925Y75529D01*
G01X138823Y75425D01*
G01X138666Y75374D01*
G01X138303Y75374D01*
G01X139372Y76464D02*
G01X139372Y75374D01*
G01X139715Y76464D02*
G01X139715Y75374D01*
G01X139715Y76464D02*
G01X140444Y75374D01*
G01X140444Y76464D02*
G01X140444Y75374D01*
G01X139082Y78618D02*
G01X139029Y78722D01*
G01X138925Y78826D01*
G01X138823Y78877D01*
G01X138615Y78877D01*
G01X138511Y78826D01*
G01X138407Y78722D01*
G01X138353Y78618D01*
G01X138303Y78460D01*
G01X138303Y78201D01*
G01X138353Y78046D01*
G01X138407Y77942D01*
G01X138511Y77838D01*
G01X138615Y77787D01*
G01X138823Y77787D01*
G01X138925Y77838D01*
G01X139029Y77942D01*
G01X139082Y78046D01*
G01X139082Y78201D01*
G01X138823Y78201D02*
G01X139082Y78201D01*
G01X139425Y78877D02*
G01X139425Y77787D01*
G01X139425Y78877D02*
G01X140152Y77787D01*
G01X140152Y78877D02*
G01X140152Y77787D01*
G01X140495Y78877D02*
G01X140495Y77787D01*
G01X140495Y78877D02*
G01X140858Y78877D01*
G01X141015Y78826D01*
G01X141119Y78722D01*
G01X141170Y78618D01*
G01X141224Y78460D01*
G01X141224Y78201D01*
G01X141170Y78046D01*
G01X141119Y77942D01*
G01X141015Y77838D01*
G01X140858Y77787D01*
G01X140495Y77787D01*
G01X138407Y81290D02*
G01X138978Y81290D01*
G01X138666Y80873D01*
G01X138823Y80873D01*
G01X138925Y80822D01*
G01X138978Y80772D01*
G01X139029Y80614D01*
G01X139029Y80510D01*
G01X138978Y80355D01*
G01X138874Y80251D01*
G01X138719Y80200D01*
G01X138562Y80200D01*
G01X138407Y80251D01*
G01X138353Y80302D01*
G01X138303Y80406D01*
G01X139425Y80459D02*
G01X139372Y80406D01*
G01X139425Y80355D01*
G01X139476Y80406D01*
G01X139425Y80459D01*
G01X139923Y81290D02*
G01X140495Y81290D01*
G01X140182Y80873D01*
G01X140340Y80873D01*
G01X140444Y80822D01*
G01X140495Y80772D01*
G01X140548Y80614D01*
G01X140548Y80510D01*
G01X140495Y80355D01*
G01X140390Y80251D01*
G01X140235Y80200D01*
G01X140081Y80200D01*
G01X139923Y80251D01*
G01X139872Y80302D01*
G01X139819Y80406D01*
G01X140891Y81290D02*
G01X141305Y80200D01*
G01X141721Y81290D02*
G01X141305Y80200D01*
G01X22479Y25410D02*
G01X22479Y24630D01*
G01X22529Y24475D01*
G01X22633Y24371D01*
G01X22791Y24320D01*
G01X22895Y24320D01*
G01X23050Y24371D01*
G01X23154Y24475D01*
G01X23205Y24630D01*
G01X23205Y25410D01*
G01X23652Y25410D02*
G01X24223Y25410D01*
G01X23914Y24993D01*
G01X24069Y24993D01*
G01X24173Y24942D01*
G01X24223Y24892D01*
G01X24277Y24734D01*
G01X24277Y24630D01*
G01X24223Y24475D01*
G01X24119Y24371D01*
G01X23964Y24320D01*
G01X23809Y24320D01*
G01X23652Y24371D01*
G01X23601Y24422D01*
G01X23548Y24526D01*
G01X22987Y45857D02*
G01X22987Y45077D01*
G01X23037Y44922D01*
G01X23141Y44818D01*
G01X23299Y44767D01*
G01X23403Y44767D01*
G01X23558Y44818D01*
G01X23662Y44922D01*
G01X23713Y45077D01*
G01X23713Y45857D01*
G01X24109Y45598D02*
G01X24109Y45648D01*
G01X24160Y45753D01*
G01X24213Y45806D01*
G01X24317Y45857D01*
G01X24523Y45857D01*
G01X24627Y45806D01*
G01X24681Y45753D01*
G01X24731Y45648D01*
G01X24731Y45544D01*
G01X24681Y45440D01*
G01X24577Y45285D01*
G01X24056Y44767D01*
G01X24785Y44767D01*
G01X30167Y81412D02*
G01X30271Y81307D01*
G01X30426Y81257D01*
G01X30634Y81257D01*
G01X30789Y81307D01*
G01X30894Y81412D01*
G01X30894Y81516D01*
G01X30843Y81620D01*
G01X30789Y81673D01*
G01X30685Y81724D01*
G01X30373Y81828D01*
G01X30271Y81879D01*
G01X30218Y81932D01*
G01X30167Y82036D01*
G01X30167Y82191D01*
G01X30271Y82296D01*
G01X30426Y82346D01*
G01X30634Y82346D01*
G01X30789Y82296D01*
G01X30894Y82191D01*
G01X29824Y81257D02*
G01X29563Y82346D01*
G01X29303Y81257D02*
G01X29563Y82346D01*
G01X29303Y81257D02*
G01X29044Y82346D01*
G01X28785Y81257D02*
G01X29044Y82346D01*
G01X28442Y81465D02*
G01X28338Y81412D01*
G01X28181Y81257D01*
G01X28181Y82346D01*
G01X74803Y13091D02*
G01X75219Y12001D01*
G01X75633Y13091D02*
G01X75219Y12001D01*
G01X76756Y12832D02*
G01X76705Y12936D01*
G01X76601Y13040D01*
G01X76497Y13091D01*
G01X76288Y13091D01*
G01X76184Y13040D01*
G01X76080Y12936D01*
G01X76029Y12832D01*
G01X75976Y12674D01*
G01X75976Y12415D01*
G01X76029Y12260D01*
G01X76080Y12156D01*
G01X76184Y12052D01*
G01X76288Y12001D01*
G01X76497Y12001D01*
G01X76601Y12052D01*
G01X76705Y12156D01*
G01X76756Y12260D01*
G01X77878Y12832D02*
G01X77825Y12936D01*
G01X77724Y13040D01*
G01X77619Y13091D01*
G01X77411Y13091D01*
G01X77307Y13040D01*
G01X77203Y12936D01*
G01X77152Y12832D01*
G01X77099Y12674D01*
G01X77099Y12415D01*
G01X77152Y12260D01*
G01X77203Y12156D01*
G01X77307Y12052D01*
G01X77411Y12001D01*
G01X77619Y12001D01*
G01X77724Y12052D01*
G01X77825Y12156D01*
G01X77878Y12260D01*
G01X53721Y36459D02*
G01X53721Y35369D01*
G01X53721Y36459D02*
G01X54188Y36459D01*
G01X54343Y36408D01*
G01X54396Y36355D01*
G01X54447Y36250D01*
G01X54447Y36146D01*
G01X54396Y36042D01*
G01X54343Y35991D01*
G01X54188Y35941D01*
G01X53721Y35941D02*
G01X54188Y35941D01*
G01X54343Y35887D01*
G01X54396Y35836D01*
G01X54447Y35732D01*
G01X54447Y35575D01*
G01X54396Y35471D01*
G01X54343Y35420D01*
G01X54188Y35369D01*
G01X53721Y35369D01*
G01X54790Y35836D02*
G01X55727Y35836D01*
G01X53848Y40904D02*
G01X53848Y39814D01*
G01X53848Y40904D02*
G01X54315Y40904D01*
G01X54470Y40853D01*
G01X54523Y40800D01*
G01X54574Y40695D01*
G01X54574Y40591D01*
G01X54523Y40487D01*
G01X54470Y40436D01*
G01X54315Y40386D01*
G01X53848Y40386D02*
G01X54315Y40386D01*
G01X54470Y40332D01*
G01X54523Y40281D01*
G01X54574Y40177D01*
G01X54574Y40020D01*
G01X54523Y39916D01*
G01X54470Y39865D01*
G01X54315Y39814D01*
G01X53848Y39814D01*
G01X55384Y40749D02*
G01X55384Y39814D01*
G01X54917Y40281D02*
G01X55854Y40281D01*
G01X78994Y11440D02*
G01X78994Y10350D01*
G01X78994Y11440D02*
G01X79357Y11440D01*
G01X79514Y11389D01*
G01X79616Y11285D01*
G01X79669Y11181D01*
G01X79720Y11023D01*
G01X79720Y10764D01*
G01X79669Y10609D01*
G01X79616Y10505D01*
G01X79514Y10401D01*
G01X79357Y10350D01*
G01X78994Y10350D01*
G01X80063Y10817D02*
G01X81000Y10817D01*
G01X83566Y11313D02*
G01X83566Y10223D01*
G01X83566Y11313D02*
G01X83929Y11313D01*
G01X84086Y11262D01*
G01X84188Y11158D01*
G01X84241Y11054D01*
G01X84292Y10896D01*
G01X84292Y10637D01*
G01X84241Y10482D01*
G01X84188Y10378D01*
G01X84086Y10274D01*
G01X83929Y10223D01*
G01X83566Y10223D01*
G01X85102Y11158D02*
G01X85102Y10223D01*
G01X84635Y10690D02*
G01X85572Y10690D01*
G01X88409Y13086D02*
G01X88356Y13190D01*
G01X88252Y13294D01*
G01X88150Y13345D01*
G01X87942Y13345D01*
G01X87838Y13294D01*
G01X87734Y13190D01*
G01X87680Y13086D01*
G01X87630Y12928D01*
G01X87630Y12669D01*
G01X87680Y12514D01*
G01X87734Y12410D01*
G01X87838Y12306D01*
G01X87942Y12255D01*
G01X88150Y12255D01*
G01X88252Y12306D01*
G01X88356Y12410D01*
G01X88409Y12514D01*
G01X88409Y12669D01*
G01X88150Y12669D02*
G01X88409Y12669D01*
G01X88752Y13345D02*
G01X88752Y12255D01*
G01X88752Y13345D02*
G01X89479Y12255D01*
G01X89479Y13345D02*
G01X89479Y12255D01*
G01X89822Y13345D02*
G01X89822Y12255D01*
G01X89822Y13345D02*
G01X90185Y13345D01*
G01X90342Y13294D01*
G01X90446Y13190D01*
G01X90497Y13086D01*
G01X90551Y12928D01*
G01X90551Y12669D01*
G01X90497Y12514D01*
G01X90446Y12410D01*
G01X90342Y12306D01*
G01X90185Y12255D01*
G01X89822Y12255D01*
G01X80137Y96657D02*
G01X80137Y95877D01*
G01X80187Y95722D01*
G01X80291Y95618D01*
G01X80449Y95567D01*
G01X80553Y95567D01*
G01X80708Y95618D01*
G01X80812Y95722D01*
G01X80863Y95877D01*
G01X80863Y96657D01*
G01X81206Y96448D02*
G01X81310Y96502D01*
G01X81467Y96657D01*
G01X81467Y95567D01*
G01X88795Y61976D02*
G01X88392Y61409D01*
G01X88999Y61409D01*
G01X88795Y61976D02*
G01X88795Y61127D01*
G01X88633Y60071D02*
G01X88513Y60030D01*
G01X88432Y59908D01*
G01X88392Y59707D01*
G01X88392Y59585D01*
G01X88432Y59382D01*
G01X88513Y59263D01*
G01X88633Y59222D01*
G01X88714Y59222D01*
G01X88836Y59263D01*
G01X88917Y59382D01*
G01X88958Y59585D01*
G01X88958Y59707D01*
G01X88917Y59908D01*
G01X88836Y60030D01*
G01X88714Y60071D01*
G01X88633Y60071D01*
G01X87757Y67691D02*
G01X87757Y66842D01*
G01X87757Y67691D02*
G01X88323Y66842D01*
G01X88323Y67691D02*
G01X88323Y66842D01*
G01X89194Y67487D02*
G01X89154Y67569D01*
G01X89075Y67650D01*
G01X88993Y67691D01*
G01X88831Y67691D01*
G01X88750Y67650D01*
G01X88671Y67569D01*
G01X88630Y67487D01*
G01X88590Y67368D01*
G01X88590Y67165D01*
G01X88630Y67043D01*
G01X88671Y66964D01*
G01X88750Y66883D01*
G01X88831Y66842D01*
G01X88993Y66842D01*
G01X89075Y66883D01*
G01X89154Y66964D01*
G01X89194Y67043D01*
G01X89461Y67528D02*
G01X89542Y67569D01*
G01X89664Y67691D01*
G01X89664Y66842D01*
G01X87757Y65151D02*
G01X87757Y64302D01*
G01X87757Y65151D02*
G01X88323Y64302D01*
G01X88323Y65151D02*
G01X88323Y64302D01*
G01X89194Y64947D02*
G01X89154Y65029D01*
G01X89075Y65110D01*
G01X88993Y65151D01*
G01X88831Y65151D01*
G01X88750Y65110D01*
G01X88671Y65029D01*
G01X88630Y64947D01*
G01X88590Y64828D01*
G01X88590Y64625D01*
G01X88630Y64503D01*
G01X88671Y64424D01*
G01X88750Y64343D01*
G01X88831Y64302D01*
G01X88993Y64302D01*
G01X89075Y64343D01*
G01X89154Y64424D01*
G01X89194Y64503D01*
G01X89501Y64947D02*
G01X89501Y64988D01*
G01X89542Y65069D01*
G01X89583Y65110D01*
G01X89664Y65151D01*
G01X89827Y65151D01*
G01X89905Y65110D01*
G01X89946Y65069D01*
G01X89987Y64988D01*
G01X89987Y64907D01*
G01X89946Y64828D01*
G01X89865Y64706D01*
G01X89461Y64302D01*
G01X90027Y64302D01*
G01X87729Y51612D02*
G01X87688Y51694D01*
G01X87607Y51775D01*
G01X87525Y51816D01*
G01X87363Y51816D01*
G01X87284Y51775D01*
G01X87203Y51694D01*
G01X87162Y51612D01*
G01X87122Y51493D01*
G01X87122Y51290D01*
G01X87162Y51168D01*
G01X87203Y51089D01*
G01X87284Y51008D01*
G01X87363Y50967D01*
G01X87525Y50967D01*
G01X87607Y51008D01*
G01X87688Y51089D01*
G01X87729Y51168D01*
G01X87729Y51290D01*
G01X87525Y51290D02*
G01X87729Y51290D01*
G01X87995Y51816D02*
G01X87995Y50967D01*
G01X87995Y51816D02*
G01X88559Y50967D01*
G01X88559Y51816D02*
G01X88559Y50967D01*
G01X88826Y51816D02*
G01X88826Y50967D01*
G01X88826Y51816D02*
G01X89110Y51816D01*
G01X89230Y51775D01*
G01X89311Y51694D01*
G01X89352Y51612D01*
G01X89392Y51493D01*
G01X89392Y51290D01*
G01X89352Y51168D01*
G01X89311Y51089D01*
G01X89230Y51008D01*
G01X89110Y50967D01*
G01X88826Y50967D01*
G01X83243Y69946D02*
G01X83162Y70027D01*
G01X83040Y70068D01*
G01X82880Y70068D01*
G01X82758Y70027D01*
G01X82677Y69946D01*
G01X82677Y69865D01*
G01X82717Y69786D01*
G01X82758Y69745D01*
G01X82839Y69705D01*
G01X83080Y69623D01*
G01X83162Y69583D01*
G01X83202Y69542D01*
G01X83243Y69461D01*
G01X83243Y69342D01*
G01X83162Y69260D01*
G01X83040Y69220D01*
G01X82880Y69220D01*
G01X82758Y69260D01*
G01X82677Y69342D01*
G01X84074Y69946D02*
G01X83995Y70027D01*
G01X83873Y70068D01*
G01X83710Y70068D01*
G01X83591Y70027D01*
G01X83510Y69946D01*
G01X83510Y69865D01*
G01X83550Y69786D01*
G01X83591Y69745D01*
G01X83670Y69705D01*
G01X83913Y69623D01*
G01X83995Y69583D01*
G01X84035Y69542D01*
G01X84074Y69461D01*
G01X84074Y69342D01*
G01X83995Y69260D01*
G01X83873Y69220D01*
G01X83710Y69220D01*
G01X83591Y69260D01*
G01X83510Y69342D01*
G01X85069Y70231D02*
G01X84340Y68935D01*
G01X85821Y70068D02*
G01X85417Y70068D01*
G01X85377Y69705D01*
G01X85417Y69745D01*
G01X85537Y69786D01*
G01X85658Y69786D01*
G01X85780Y69745D01*
G01X85862Y69664D01*
G01X85902Y69542D01*
G01X85902Y69461D01*
G01X85862Y69342D01*
G01X85780Y69260D01*
G01X85658Y69220D01*
G01X85537Y69220D01*
G01X85417Y69260D01*
G01X85377Y69301D01*
G01X85336Y69380D01*
G01X86895Y70231D02*
G01X86169Y68935D01*
G01X87162Y70068D02*
G01X87162Y69220D01*
G01X87162Y69220D02*
G01X87647Y69220D01*
G01X87914Y70068D02*
G01X87914Y69220D01*
G01X87914Y70068D02*
G01X88440Y70068D01*
G01X87914Y69664D02*
G01X88237Y69664D01*
G01X87914Y69220D02*
G01X88440Y69220D01*
G01X88706Y70068D02*
G01X88706Y69220D01*
G01X88706Y70068D02*
G01X88988Y70068D01*
G01X89110Y70027D01*
G01X89192Y69946D01*
G01X89230Y69865D01*
G01X89270Y69745D01*
G01X89270Y69542D01*
G01X89230Y69420D01*
G01X89192Y69342D01*
G01X89110Y69260D01*
G01X88988Y69220D01*
G01X88706Y69220D01*
G01X85148Y72486D02*
G01X85067Y72567D01*
G01X84945Y72608D01*
G01X84785Y72608D01*
G01X84663Y72567D01*
G01X84582Y72486D01*
G01X84582Y72405D01*
G01X84622Y72326D01*
G01X84663Y72285D01*
G01X84744Y72245D01*
G01X84985Y72163D01*
G01X85067Y72123D01*
G01X85107Y72082D01*
G01X85148Y72001D01*
G01X85148Y71882D01*
G01X85067Y71800D01*
G01X84945Y71760D01*
G01X84785Y71760D01*
G01X84663Y71800D01*
G01X84582Y71882D01*
G01X86019Y72405D02*
G01X85979Y72486D01*
G01X85900Y72567D01*
G01X85818Y72608D01*
G01X85656Y72608D01*
G01X85575Y72567D01*
G01X85496Y72486D01*
G01X85455Y72405D01*
G01X85415Y72285D01*
G01X85415Y72082D01*
G01X85455Y71960D01*
G01X85496Y71882D01*
G01X85575Y71800D01*
G01X85656Y71760D01*
G01X85818Y71760D01*
G01X85900Y71800D01*
G01X85979Y71882D01*
G01X86019Y71960D01*
G01X86286Y72608D02*
G01X86286Y71760D01*
G01X86852Y72608D02*
G01X86286Y72042D01*
G01X86489Y72245D02*
G01X86852Y71760D01*
G01X87845Y72771D02*
G01X87119Y71475D01*
G01X88112Y72445D02*
G01X88193Y72486D01*
G01X88315Y72608D01*
G01X88315Y71760D01*
G01X88785Y72608D02*
G01X88663Y72567D01*
G01X88623Y72486D01*
G01X88623Y72405D01*
G01X88663Y72326D01*
G01X88745Y72285D01*
G01X88905Y72245D01*
G01X89027Y72204D01*
G01X89108Y72123D01*
G01X89148Y72042D01*
G01X89148Y71920D01*
G01X89108Y71841D01*
G01X89067Y71800D01*
G01X88945Y71760D01*
G01X88785Y71760D01*
G01X88663Y71800D01*
G01X88623Y71841D01*
G01X88582Y71920D01*
G01X88582Y72042D01*
G01X88623Y72123D01*
G01X88704Y72204D01*
G01X88823Y72245D01*
G01X88986Y72285D01*
G01X89067Y72326D01*
G01X89108Y72405D01*
G01X89108Y72486D01*
G01X89067Y72567D01*
G01X88945Y72608D01*
G01X88785Y72608D01*
G01X83947Y87848D02*
G01X83947Y87000D01*
G01X83947Y87848D02*
G01X84269Y87000D01*
G01X84594Y87848D02*
G01X84269Y87000D01*
G01X84594Y87848D02*
G01X84594Y87000D01*
G01X85102Y87848D02*
G01X85021Y87807D01*
G01X84940Y87726D01*
G01X84899Y87645D01*
G01X84861Y87525D01*
G01X84861Y87322D01*
G01X84899Y87200D01*
G01X84940Y87122D01*
G01X85021Y87040D01*
G01X85102Y87000D01*
G01X85265Y87000D01*
G01X85344Y87040D01*
G01X85425Y87122D01*
G01X85465Y87200D01*
G01X85506Y87322D01*
G01X85506Y87525D01*
G01X85465Y87645D01*
G01X85425Y87726D01*
G01X85344Y87807D01*
G01X85265Y87848D01*
G01X85102Y87848D01*
G01X86339Y87726D02*
G01X86258Y87807D01*
G01X86136Y87848D01*
G01X85976Y87848D01*
G01X85854Y87807D01*
G01X85773Y87726D01*
G01X85773Y87645D01*
G01X85813Y87566D01*
G01X85854Y87525D01*
G01X85935Y87485D01*
G01X86177Y87403D01*
G01X86258Y87363D01*
G01X86299Y87322D01*
G01X86339Y87241D01*
G01X86339Y87122D01*
G01X86258Y87040D01*
G01X86136Y87000D01*
G01X85976Y87000D01*
G01X85854Y87040D01*
G01X85773Y87122D01*
G01X86606Y87848D02*
G01X86606Y87000D01*
G01X87599Y88011D02*
G01X86873Y86715D01*
G01X87906Y87645D02*
G01X87906Y87685D01*
G01X87947Y87767D01*
G01X87988Y87807D01*
G01X88069Y87848D01*
G01X88229Y87848D01*
G01X88310Y87807D01*
G01X88351Y87767D01*
G01X88392Y87685D01*
G01X88392Y87604D01*
G01X88351Y87525D01*
G01X88270Y87403D01*
G01X87866Y87000D01*
G01X88432Y87000D01*
G01X88780Y87848D02*
G01X89225Y87848D01*
G01X88981Y87525D01*
G01X89103Y87525D01*
G01X89184Y87485D01*
G01X89225Y87444D01*
G01X89265Y87322D01*
G01X89265Y87241D01*
G01X89225Y87122D01*
G01X89143Y87040D01*
G01X89021Y87000D01*
G01X88900Y87000D01*
G01X88780Y87040D01*
G01X88739Y87081D01*
G01X88699Y87160D01*
G01X84582Y75148D02*
G01X84582Y74300D01*
G01X84582Y75148D02*
G01X84904Y74300D01*
G01X85229Y75148D02*
G01X84904Y74300D01*
G01X85229Y75148D02*
G01X85229Y74300D01*
G01X85496Y75148D02*
G01X85496Y74300D01*
G01X86326Y75026D02*
G01X86245Y75107D01*
G01X86126Y75148D01*
G01X85963Y75148D01*
G01X85841Y75107D01*
G01X85763Y75026D01*
G01X85763Y74945D01*
G01X85801Y74866D01*
G01X85841Y74825D01*
G01X85923Y74785D01*
G01X86166Y74703D01*
G01X86245Y74663D01*
G01X86286Y74622D01*
G01X86326Y74541D01*
G01X86326Y74422D01*
G01X86245Y74340D01*
G01X86126Y74300D01*
G01X85963Y74300D01*
G01X85841Y74340D01*
G01X85763Y74422D01*
G01X86837Y75148D02*
G01X86756Y75107D01*
G01X86674Y75026D01*
G01X86634Y74945D01*
G01X86593Y74825D01*
G01X86593Y74622D01*
G01X86634Y74500D01*
G01X86674Y74422D01*
G01X86756Y74340D01*
G01X86837Y74300D01*
G01X86997Y74300D01*
G01X87078Y74340D01*
G01X87160Y74422D01*
G01X87200Y74500D01*
G01X87241Y74622D01*
G01X87241Y74825D01*
G01X87200Y74945D01*
G01X87160Y75026D01*
G01X87078Y75107D01*
G01X86997Y75148D01*
G01X86837Y75148D01*
G01X88234Y75311D02*
G01X87508Y74015D01*
G01X88501Y74985D02*
G01X88582Y75026D01*
G01X88704Y75148D01*
G01X88704Y74300D01*
G01X89496Y74866D02*
G01X89456Y74744D01*
G01X89374Y74663D01*
G01X89253Y74622D01*
G01X89212Y74622D01*
G01X89090Y74663D01*
G01X89011Y74744D01*
G01X88971Y74866D01*
G01X88971Y74904D01*
G01X89011Y75026D01*
G01X89090Y75107D01*
G01X89212Y75148D01*
G01X89253Y75148D01*
G01X89374Y75107D01*
G01X89456Y75026D01*
G01X89496Y74866D01*
G01X89496Y74663D01*
G01X89456Y74460D01*
G01X89374Y74340D01*
G01X89253Y74300D01*
G01X89171Y74300D01*
G01X89052Y74340D01*
G01X89011Y74422D01*
G01X70612Y54991D02*
G01X70612Y54383D01*
G01X70652Y54264D01*
G01X70733Y54183D01*
G01X70853Y54142D01*
G01X70934Y54142D01*
G01X71056Y54183D01*
G01X71137Y54264D01*
G01X71178Y54383D01*
G01X71178Y54991D01*
G01X72009Y54869D02*
G01X71930Y54950D01*
G01X71808Y54991D01*
G01X71645Y54991D01*
G01X71526Y54950D01*
G01X71445Y54869D01*
G01X71445Y54787D01*
G01X71485Y54709D01*
G01X71526Y54668D01*
G01X71605Y54627D01*
G01X71848Y54546D01*
G01X71930Y54505D01*
G01X71970Y54465D01*
G01X72009Y54383D01*
G01X72009Y54264D01*
G01X71930Y54183D01*
G01X71808Y54142D01*
G01X71645Y54142D01*
G01X71526Y54183D01*
G01X71445Y54264D01*
G01X72275Y54991D02*
G01X72275Y54142D01*
G01X72275Y54991D02*
G01X72641Y54991D01*
G01X72760Y54950D01*
G01X72801Y54909D01*
G01X72842Y54828D01*
G01X72842Y54747D01*
G01X72801Y54668D01*
G01X72760Y54627D01*
G01X72641Y54587D01*
G01X72275Y54587D02*
G01X72641Y54587D01*
G01X72760Y54546D01*
G01X72801Y54505D01*
G01X72842Y54424D01*
G01X72842Y54302D01*
G01X72801Y54223D01*
G01X72760Y54183D01*
G01X72641Y54142D01*
G01X72275Y54142D01*
G01X88432Y57327D02*
G01X88432Y57368D01*
G01X88473Y57449D01*
G01X88513Y57490D01*
G01X88595Y57531D01*
G01X88755Y57531D01*
G01X88836Y57490D01*
G01X88877Y57449D01*
G01X88917Y57368D01*
G01X88917Y57287D01*
G01X88877Y57208D01*
G01X88795Y57086D01*
G01X88392Y56682D01*
G01X88958Y56682D01*
G01X85402Y77579D02*
G01X85321Y77660D01*
G01X85199Y77701D01*
G01X85039Y77701D01*
G01X84917Y77660D01*
G01X84836Y77579D01*
G01X84836Y77497D01*
G01X84876Y77419D01*
G01X84917Y77378D01*
G01X84998Y77337D01*
G01X85239Y77256D01*
G01X85321Y77216D01*
G01X85361Y77175D01*
G01X85402Y77094D01*
G01X85402Y76974D01*
G01X85321Y76893D01*
G01X85199Y76852D01*
G01X85039Y76852D01*
G01X84917Y76893D01*
G01X84836Y76974D01*
G01X85669Y77701D02*
G01X85669Y76852D01*
G01X85669Y77701D02*
G01X85951Y77701D01*
G01X86072Y77660D01*
G01X86154Y77579D01*
G01X86194Y77497D01*
G01X86233Y77378D01*
G01X86233Y77175D01*
G01X86194Y77053D01*
G01X86154Y76974D01*
G01X86072Y76893D01*
G01X85951Y76852D01*
G01X85669Y76852D01*
G01X86824Y77701D02*
G01X86499Y76852D01*
G01X86824Y77701D02*
G01X87147Y76852D01*
G01X86621Y77134D02*
G01X87025Y77134D01*
G01X88140Y77863D02*
G01X87414Y76568D01*
G01X88447Y77497D02*
G01X88447Y77538D01*
G01X88488Y77619D01*
G01X88529Y77660D01*
G01X88610Y77701D01*
G01X88773Y77701D01*
G01X88851Y77660D01*
G01X88892Y77619D01*
G01X88933Y77538D01*
G01X88933Y77457D01*
G01X88892Y77378D01*
G01X88811Y77256D01*
G01X88407Y76852D01*
G01X88973Y76852D01*
G01X89240Y77538D02*
G01X89321Y77579D01*
G01X89443Y77701D01*
G01X89443Y76852D01*
G01X85148Y85186D02*
G01X85067Y85267D01*
G01X84945Y85308D01*
G01X84785Y85308D01*
G01X84663Y85267D01*
G01X84582Y85186D01*
G01X84582Y85105D01*
G01X84622Y85026D01*
G01X84663Y84985D01*
G01X84744Y84945D01*
G01X84985Y84863D01*
G01X85067Y84823D01*
G01X85107Y84782D01*
G01X85148Y84701D01*
G01X85148Y84582D01*
G01X85067Y84500D01*
G01X84945Y84460D01*
G01X84785Y84460D01*
G01X84663Y84500D01*
G01X84582Y84582D01*
G01X86019Y85105D02*
G01X85979Y85186D01*
G01X85900Y85267D01*
G01X85818Y85308D01*
G01X85656Y85308D01*
G01X85575Y85267D01*
G01X85496Y85186D01*
G01X85455Y85105D01*
G01X85415Y84985D01*
G01X85415Y84782D01*
G01X85455Y84660D01*
G01X85496Y84582D01*
G01X85575Y84500D01*
G01X85656Y84460D01*
G01X85818Y84460D01*
G01X85900Y84500D01*
G01X85979Y84582D01*
G01X86019Y84660D01*
G01X86286Y85308D02*
G01X86286Y84460D01*
G01X86286Y84460D02*
G01X86771Y84460D01*
G01X87767Y85471D02*
G01X87038Y84175D01*
G01X88074Y85105D02*
G01X88074Y85145D01*
G01X88112Y85227D01*
G01X88153Y85267D01*
G01X88234Y85308D01*
G01X88397Y85308D01*
G01X88478Y85267D01*
G01X88519Y85227D01*
G01X88557Y85145D01*
G01X88557Y85064D01*
G01X88519Y84985D01*
G01X88437Y84863D01*
G01X88033Y84460D01*
G01X88597Y84460D01*
G01X88905Y85105D02*
G01X88905Y85145D01*
G01X88945Y85227D01*
G01X88986Y85267D01*
G01X89067Y85308D01*
G01X89230Y85308D01*
G01X89308Y85267D01*
G01X89349Y85227D01*
G01X89390Y85145D01*
G01X89390Y85064D01*
G01X89349Y84985D01*
G01X89268Y84863D01*
G01X88864Y84460D01*
G01X89430Y84460D01*
G01X86487Y80228D02*
G01X86487Y79380D01*
G01X86487Y80228D02*
G01X86850Y80228D01*
G01X86972Y80187D01*
G01X87012Y80147D01*
G01X87053Y80065D01*
G01X87053Y79984D01*
G01X87012Y79905D01*
G01X86972Y79865D01*
G01X86850Y79824D01*
G01X86487Y79824D01*
G01X86768Y79824D02*
G01X87053Y79380D01*
G01X87320Y80228D02*
G01X87884Y79380D01*
G01X87884Y80228D02*
G01X87320Y79380D01*
G01X88879Y80391D02*
G01X88150Y79095D01*
G01X89227Y80228D02*
G01X89672Y80228D01*
G01X89428Y79905D01*
G01X89550Y79905D01*
G01X89631Y79865D01*
G01X89672Y79824D01*
G01X89712Y79702D01*
G01X89712Y79621D01*
G01X89672Y79502D01*
G01X89590Y79420D01*
G01X89468Y79380D01*
G01X89347Y79380D01*
G01X89227Y79420D01*
G01X89187Y79461D01*
G01X89146Y79540D01*
G01X86768Y82768D02*
G01X86768Y81920D01*
G01X86487Y82768D02*
G01X87053Y82768D01*
G01X87320Y82768D02*
G01X87884Y81920D01*
G01X87884Y82768D02*
G01X87320Y81920D01*
G01X88879Y82931D02*
G01X88150Y81635D01*
G01X89146Y82605D02*
G01X89227Y82646D01*
G01X89347Y82768D01*
G01X89347Y81920D01*
G01X87856Y90197D02*
G01X87815Y90279D01*
G01X87734Y90360D01*
G01X87652Y90401D01*
G01X87490Y90401D01*
G01X87411Y90360D01*
G01X87330Y90279D01*
G01X87289Y90197D01*
G01X87249Y90078D01*
G01X87249Y89875D01*
G01X87289Y89753D01*
G01X87330Y89674D01*
G01X87411Y89593D01*
G01X87490Y89552D01*
G01X87652Y89552D01*
G01X87734Y89593D01*
G01X87815Y89674D01*
G01X87856Y89753D01*
G01X87856Y89875D01*
G01X87652Y89875D02*
G01X87856Y89875D01*
G01X88122Y90401D02*
G01X88122Y89552D01*
G01X88122Y90401D02*
G01X88686Y89552D01*
G01X88686Y90401D02*
G01X88686Y89552D01*
G01X88953Y90401D02*
G01X88953Y89552D01*
G01X88953Y90401D02*
G01X89237Y90401D01*
G01X89357Y90360D01*
G01X89438Y90279D01*
G01X89479Y90197D01*
G01X89519Y90078D01*
G01X89519Y89875D01*
G01X89479Y89753D01*
G01X89438Y89674D01*
G01X89357Y89593D01*
G01X89237Y89552D01*
G01X88953Y89552D01*
G01X70693Y90401D02*
G01X71137Y90401D01*
G01X70893Y90078D01*
G01X71015Y90078D01*
G01X71097Y90037D01*
G01X71137Y89997D01*
G01X71178Y89875D01*
G01X71178Y89794D01*
G01X71137Y89674D01*
G01X71056Y89593D01*
G01X70934Y89552D01*
G01X70815Y89552D01*
G01X70693Y89593D01*
G01X70652Y89634D01*
G01X70612Y89712D01*
G01X71445Y90401D02*
G01X71767Y89552D01*
G01X72090Y90401D02*
G01X71767Y89552D01*
G01X72438Y90401D02*
G01X72882Y90401D01*
G01X72641Y90078D01*
G01X72760Y90078D01*
G01X72842Y90037D01*
G01X72882Y89997D01*
G01X72923Y89875D01*
G01X72923Y89794D01*
G01X72882Y89674D01*
G01X72801Y89593D01*
G01X72682Y89552D01*
G01X72560Y89552D01*
G01X72438Y89593D01*
G01X72397Y89634D01*
G01X72356Y89712D01*
G01X70612Y87861D02*
G01X70612Y87012D01*
G01X70612Y87861D02*
G01X70975Y87861D01*
G01X71097Y87820D01*
G01X71137Y87779D01*
G01X71178Y87698D01*
G01X71178Y87617D01*
G01X71137Y87538D01*
G01X71097Y87497D01*
G01X70975Y87457D01*
G01X70612Y87457D01*
G01X70893Y87457D02*
G01X71178Y87012D01*
G01X72009Y87739D02*
G01X71930Y87820D01*
G01X71808Y87861D01*
G01X71645Y87861D01*
G01X71526Y87820D01*
G01X71445Y87739D01*
G01X71445Y87657D01*
G01X71485Y87579D01*
G01X71526Y87538D01*
G01X71605Y87497D01*
G01X71848Y87416D01*
G01X71930Y87376D01*
G01X71970Y87335D01*
G01X72009Y87254D01*
G01X72009Y87134D01*
G01X71930Y87053D01*
G01X71808Y87012D01*
G01X71645Y87012D01*
G01X71526Y87053D01*
G01X71445Y87134D01*
G01X72560Y87861D02*
G01X72560Y87012D01*
G01X72275Y87861D02*
G01X72842Y87861D01*
G01X70693Y85321D02*
G01X71137Y85321D01*
G01X70893Y84998D01*
G01X71015Y84998D01*
G01X71097Y84957D01*
G01X71137Y84917D01*
G01X71178Y84795D01*
G01X71178Y84714D01*
G01X71137Y84594D01*
G01X71056Y84513D01*
G01X70934Y84472D01*
G01X70815Y84472D01*
G01X70693Y84513D01*
G01X70652Y84554D01*
G01X70612Y84632D01*
G01X71930Y85199D02*
G01X71889Y85280D01*
G01X71767Y85321D01*
G01X71686Y85321D01*
G01X71564Y85280D01*
G01X71485Y85158D01*
G01X71445Y84957D01*
G01X71445Y84754D01*
G01X71485Y84594D01*
G01X71564Y84513D01*
G01X71686Y84472D01*
G01X71727Y84472D01*
G01X71848Y84513D01*
G01X71930Y84594D01*
G01X71970Y84714D01*
G01X71970Y84754D01*
G01X71930Y84876D01*
G01X71848Y84957D01*
G01X71727Y84998D01*
G01X71686Y84998D01*
G01X71564Y84957D01*
G01X71485Y84876D01*
G01X71445Y84754D01*
G01X70693Y82781D02*
G01X71137Y82781D01*
G01X70893Y82458D01*
G01X71015Y82458D01*
G01X71097Y82417D01*
G01X71137Y82377D01*
G01X71178Y82255D01*
G01X71178Y82174D01*
G01X71137Y82054D01*
G01X71056Y81973D01*
G01X70934Y81932D01*
G01X70815Y81932D01*
G01X70693Y81973D01*
G01X70652Y82014D01*
G01X70612Y82092D01*
G01X71970Y82499D02*
G01X71930Y82377D01*
G01X71848Y82296D01*
G01X71727Y82255D01*
G01X71686Y82255D01*
G01X71564Y82296D01*
G01X71485Y82377D01*
G01X71445Y82499D01*
G01X71445Y82537D01*
G01X71485Y82659D01*
G01X71564Y82740D01*
G01X71686Y82781D01*
G01X71727Y82781D01*
G01X71848Y82740D01*
G01X71930Y82659D01*
G01X71970Y82499D01*
G01X71970Y82296D01*
G01X71930Y82092D01*
G01X71848Y81973D01*
G01X71727Y81932D01*
G01X71645Y81932D01*
G01X71526Y81973D01*
G01X71485Y82054D01*
G01X70693Y80241D02*
G01X71137Y80241D01*
G01X70893Y79918D01*
G01X71015Y79918D01*
G01X71097Y79877D01*
G01X71137Y79837D01*
G01X71178Y79715D01*
G01X71178Y79634D01*
G01X71137Y79514D01*
G01X71056Y79433D01*
G01X70934Y79392D01*
G01X70815Y79392D01*
G01X70693Y79433D01*
G01X70652Y79474D01*
G01X70612Y79552D01*
G01X71848Y80241D02*
G01X71445Y79674D01*
G01X72049Y79674D01*
G01X71848Y80241D02*
G01X71848Y79392D01*
G01X70693Y77701D02*
G01X71137Y77701D01*
G01X70893Y77378D01*
G01X71015Y77378D01*
G01X71097Y77337D01*
G01X71137Y77297D01*
G01X71178Y77175D01*
G01X71178Y77094D01*
G01X71137Y76974D01*
G01X71056Y76893D01*
G01X70934Y76852D01*
G01X70815Y76852D01*
G01X70693Y76893D01*
G01X70652Y76934D01*
G01X70612Y77012D01*
G01X71485Y77497D02*
G01X71485Y77538D01*
G01X71526Y77619D01*
G01X71564Y77660D01*
G01X71645Y77701D01*
G01X71808Y77701D01*
G01X71889Y77660D01*
G01X71930Y77619D01*
G01X71970Y77538D01*
G01X71970Y77457D01*
G01X71930Y77378D01*
G01X71848Y77256D01*
G01X71445Y76852D01*
G01X72009Y76852D01*
G01X70693Y75161D02*
G01X71137Y75161D01*
G01X70893Y74838D01*
G01X71015Y74838D01*
G01X71097Y74797D01*
G01X71137Y74757D01*
G01X71178Y74635D01*
G01X71178Y74554D01*
G01X71137Y74434D01*
G01X71056Y74353D01*
G01X70934Y74312D01*
G01X70815Y74312D01*
G01X70693Y74353D01*
G01X70652Y74394D01*
G01X70612Y74472D01*
G01X71526Y75161D02*
G01X71970Y75161D01*
G01X71727Y74838D01*
G01X71848Y74838D01*
G01X71930Y74797D01*
G01X71970Y74757D01*
G01X72009Y74635D01*
G01X72009Y74554D01*
G01X71970Y74434D01*
G01X71889Y74353D01*
G01X71767Y74312D01*
G01X71645Y74312D01*
G01X71526Y74353D01*
G01X71485Y74394D01*
G01X71445Y74472D01*
G01X87757Y54193D02*
G01X87838Y54234D01*
G01X87960Y54356D01*
G01X87960Y53507D01*
G01X88709Y54356D02*
G01X88305Y54356D01*
G01X88265Y53992D01*
G01X88305Y54033D01*
G01X88427Y54074D01*
G01X88549Y54074D01*
G01X88671Y54033D01*
G01X88750Y53952D01*
G01X88790Y53830D01*
G01X88790Y53748D01*
G01X88750Y53629D01*
G01X88671Y53548D01*
G01X88549Y53507D01*
G01X88427Y53507D01*
G01X88305Y53548D01*
G01X88265Y53588D01*
G01X88226Y53667D01*
G01X70612Y57381D02*
G01X70612Y56532D01*
G01X70612Y57381D02*
G01X71137Y57381D01*
G01X70612Y56977D02*
G01X70934Y56977D01*
G01X70612Y56532D02*
G01X71137Y56532D01*
G01X71404Y57381D02*
G01X71404Y56532D01*
G01X71404Y57381D02*
G01X71970Y56532D01*
G01X71970Y57381D02*
G01X71970Y56532D01*
G01X70612Y59758D02*
G01X70693Y59799D01*
G01X70815Y59921D01*
G01X70815Y59072D01*
G01X71160Y59921D02*
G01X71605Y59921D01*
G01X71363Y59598D01*
G01X71485Y59598D01*
G01X71564Y59557D01*
G01X71605Y59517D01*
G01X71645Y59395D01*
G01X71645Y59314D01*
G01X71605Y59194D01*
G01X71526Y59113D01*
G01X71404Y59072D01*
G01X71282Y59072D01*
G01X71160Y59113D01*
G01X71120Y59154D01*
G01X71081Y59232D01*
G01X70612Y62298D02*
G01X70693Y62339D01*
G01X70815Y62461D01*
G01X70815Y61612D01*
G01X71120Y62257D02*
G01X71120Y62298D01*
G01X71160Y62379D01*
G01X71201Y62420D01*
G01X71282Y62461D01*
G01X71445Y62461D01*
G01X71526Y62420D01*
G01X71564Y62379D01*
G01X71605Y62298D01*
G01X71605Y62217D01*
G01X71564Y62138D01*
G01X71485Y62016D01*
G01X71081Y61612D01*
G01X71645Y61612D01*
G01X70612Y64838D02*
G01X70693Y64879D01*
G01X70815Y65001D01*
G01X70815Y64152D01*
G01X71485Y65001D02*
G01X71081Y64434D01*
G01X71686Y64434D01*
G01X71485Y65001D02*
G01X71485Y64152D01*
G01X70652Y67337D02*
G01X70652Y67378D01*
G01X70693Y67459D01*
G01X70733Y67500D01*
G01X70815Y67541D01*
G01X70975Y67541D01*
G01X71056Y67500D01*
G01X71097Y67459D01*
G01X71137Y67378D01*
G01X71137Y67297D01*
G01X71097Y67218D01*
G01X71015Y67096D01*
G01X70612Y66692D01*
G01X71178Y66692D01*
G01X72009Y67541D02*
G01X71605Y66692D01*
G01X71445Y67541D02*
G01X72009Y67541D01*
G01X70652Y69877D02*
G01X70652Y69918D01*
G01X70693Y69999D01*
G01X70733Y70040D01*
G01X70815Y70081D01*
G01X70975Y70081D01*
G01X71056Y70040D01*
G01X71097Y69999D01*
G01X71137Y69918D01*
G01X71137Y69837D01*
G01X71097Y69758D01*
G01X71015Y69636D01*
G01X70612Y69232D01*
G01X71178Y69232D01*
G01X71930Y69959D02*
G01X71889Y70040D01*
G01X71767Y70081D01*
G01X71686Y70081D01*
G01X71564Y70040D01*
G01X71485Y69918D01*
G01X71445Y69717D01*
G01X71445Y69514D01*
G01X71485Y69354D01*
G01X71564Y69273D01*
G01X71686Y69232D01*
G01X71727Y69232D01*
G01X71848Y69273D01*
G01X71930Y69354D01*
G01X71970Y69474D01*
G01X71970Y69514D01*
G01X71930Y69636D01*
G01X71848Y69717D01*
G01X71727Y69758D01*
G01X71686Y69758D01*
G01X71564Y69717D01*
G01X71485Y69636D01*
G01X71445Y69514D01*
G01X70652Y72417D02*
G01X70652Y72458D01*
G01X70693Y72539D01*
G01X70733Y72580D01*
G01X70815Y72621D01*
G01X70975Y72621D01*
G01X71056Y72580D01*
G01X71097Y72539D01*
G01X71137Y72458D01*
G01X71137Y72377D01*
G01X71097Y72298D01*
G01X71015Y72176D01*
G01X70612Y71772D01*
G01X71178Y71772D01*
G01X71930Y72621D02*
G01X71526Y72621D01*
G01X71485Y72257D01*
G01X71526Y72298D01*
G01X71645Y72339D01*
G01X71767Y72339D01*
G01X71889Y72298D01*
G01X71970Y72217D01*
G01X72009Y72095D01*
G01X72009Y72014D01*
G01X71970Y71894D01*
G01X71889Y71813D01*
G01X71767Y71772D01*
G01X71645Y71772D01*
G01X71526Y71813D01*
G01X71485Y71854D01*
G01X71445Y71932D01*
G01X81407Y34671D02*
G01X81407Y34063D01*
G01X81447Y33944D01*
G01X81528Y33863D01*
G01X81648Y33822D01*
G01X81729Y33822D01*
G01X81851Y33863D01*
G01X81932Y33944D01*
G01X81973Y34063D01*
G01X81973Y34671D01*
G01X82804Y34549D02*
G01X82725Y34630D01*
G01X82603Y34671D01*
G01X82440Y34671D01*
G01X82321Y34630D01*
G01X82240Y34549D01*
G01X82240Y34467D01*
G01X82280Y34389D01*
G01X82321Y34348D01*
G01X82400Y34307D01*
G01X82643Y34226D01*
G01X82725Y34185D01*
G01X82765Y34145D01*
G01X82804Y34063D01*
G01X82804Y33944D01*
G01X82725Y33863D01*
G01X82603Y33822D01*
G01X82440Y33822D01*
G01X82321Y33863D01*
G01X82240Y33944D01*
G01X83070Y34671D02*
G01X83070Y33822D01*
G01X83070Y34671D02*
G01X83436Y34671D01*
G01X83555Y34630D01*
G01X83596Y34589D01*
G01X83637Y34508D01*
G01X83637Y34427D01*
G01X83596Y34348D01*
G01X83555Y34307D01*
G01X83436Y34267D01*
G01X83070Y34267D02*
G01X83436Y34267D01*
G01X83555Y34226D01*
G01X83596Y34185D01*
G01X83637Y34104D01*
G01X83637Y33982D01*
G01X83596Y33903D01*
G01X83555Y33863D01*
G01X83436Y33822D01*
G01X83070Y33822D01*
G01X68707Y37211D02*
G01X68707Y36362D01*
G01X68707Y37211D02*
G01X69070Y37211D01*
G01X69192Y37170D01*
G01X69232Y37129D01*
G01X69273Y37048D01*
G01X69273Y36967D01*
G01X69232Y36888D01*
G01X69192Y36847D01*
G01X69070Y36807D01*
G01X68707Y36807D02*
G01X69070Y36807D01*
G01X69192Y36766D01*
G01X69232Y36725D01*
G01X69273Y36644D01*
G01X69273Y36522D01*
G01X69232Y36443D01*
G01X69192Y36403D01*
G01X69070Y36362D01*
G01X68707Y36362D01*
G01X69862Y37211D02*
G01X69540Y36362D01*
G01X69862Y37211D02*
G01X70185Y36362D01*
G01X69659Y36644D02*
G01X70065Y36644D01*
G01X70736Y37211D02*
G01X70736Y36362D01*
G01X70451Y37211D02*
G01X71018Y37211D01*
G01X71567Y37211D02*
G01X71567Y36362D01*
G01X71285Y37211D02*
G01X71851Y37211D01*
G01X70612Y52301D02*
G01X70612Y51452D01*
G01X70612Y52301D02*
G01X70975Y52301D01*
G01X71097Y52260D01*
G01X71137Y52219D01*
G01X71178Y52138D01*
G01X71178Y52057D01*
G01X71137Y51978D01*
G01X71097Y51937D01*
G01X70975Y51897D01*
G01X70612Y51897D02*
G01X70975Y51897D01*
G01X71097Y51856D01*
G01X71137Y51816D01*
G01X71178Y51734D01*
G01X71178Y51612D01*
G01X71137Y51534D01*
G01X71097Y51493D01*
G01X70975Y51452D01*
G01X70612Y51452D01*
G01X71767Y52301D02*
G01X71445Y51452D01*
G01X71767Y52301D02*
G01X72090Y51452D01*
G01X71564Y51734D02*
G01X71970Y51734D01*
G01X72641Y52301D02*
G01X72641Y51452D01*
G01X72356Y52301D02*
G01X72923Y52301D01*
G01X69342Y43126D02*
G01X70190Y43126D01*
G01X69545Y43434D02*
G01X69504Y43434D01*
G01X69423Y43474D01*
G01X69382Y43515D01*
G01X69342Y43596D01*
G01X69342Y43756D01*
G01X69382Y43837D01*
G01X69423Y43878D01*
G01X69504Y43919D01*
G01X69585Y43919D01*
G01X69664Y43878D01*
G01X69786Y43797D01*
G01X70190Y43393D01*
G01X70190Y43959D01*
G01X69545Y44831D02*
G01X69463Y44790D01*
G01X69382Y44711D01*
G01X69342Y44630D01*
G01X69342Y44467D01*
G01X69382Y44386D01*
G01X69463Y44307D01*
G01X69545Y44267D01*
G01X69664Y44226D01*
G01X69867Y44226D01*
G01X69989Y44267D01*
G01X70068Y44307D01*
G01X70149Y44386D01*
G01X70190Y44467D01*
G01X70190Y44630D01*
G01X70149Y44711D01*
G01X70068Y44790D01*
G01X69989Y44831D01*
G01X90578Y48641D02*
G01X90578Y47792D01*
G01X90297Y48641D02*
G01X90863Y48641D01*
G01X91130Y48641D02*
G01X91130Y47792D01*
G01X91130Y48641D02*
G01X91655Y48641D01*
G01X91130Y48237D02*
G01X91452Y48237D01*
G01X90972Y40685D02*
G01X91821Y40685D01*
G01X90972Y40685D02*
G01X91821Y41008D01*
G01X90972Y41333D02*
G01X91821Y41008D01*
G01X90972Y41333D02*
G01X91821Y41333D01*
G01X90972Y41600D02*
G01X91013Y41638D01*
G01X90972Y41678D01*
G01X90932Y41638D01*
G01X90972Y41600D01*
G01X91254Y41638D02*
G01X91821Y41638D01*
G01X91376Y42430D02*
G01X91295Y42349D01*
G01X91254Y42270D01*
G01X91254Y42148D01*
G01X91295Y42067D01*
G01X91376Y41986D01*
G01X91498Y41945D01*
G01X91579Y41945D01*
G01X91699Y41986D01*
G01X91780Y42067D01*
G01X91821Y42148D01*
G01X91821Y42270D01*
G01X91780Y42349D01*
G01X91699Y42430D01*
G01X91254Y42697D02*
G01X91821Y42697D01*
G01X91498Y42697D02*
G01X91376Y42738D01*
G01X91295Y42819D01*
G01X91254Y42900D01*
G01X91254Y43022D01*
G01X91254Y43489D02*
G01X91295Y43408D01*
G01X91376Y43327D01*
G01X91498Y43289D01*
G01X91579Y43289D01*
G01X91699Y43327D01*
G01X91780Y43408D01*
G01X91821Y43489D01*
G01X91821Y43611D01*
G01X91780Y43693D01*
G01X91699Y43771D01*
G01X91579Y43812D01*
G01X91498Y43812D01*
G01X91376Y43771D01*
G01X91295Y43693D01*
G01X91254Y43611D01*
G01X91254Y43489D01*
G01X91094Y45267D02*
G01X91013Y45186D01*
G01X90972Y45067D01*
G01X90972Y44904D01*
G01X91013Y44782D01*
G01X91094Y44701D01*
G01X91175Y44701D01*
G01X91254Y44742D01*
G01X91295Y44782D01*
G01X91335Y44864D01*
G01X91417Y45105D01*
G01X91457Y45186D01*
G01X91498Y45227D01*
G01X91579Y45267D01*
G01X91699Y45267D01*
G01X91780Y45186D01*
G01X91821Y45067D01*
G01X91821Y44904D01*
G01X91780Y44782D01*
G01X91699Y44701D01*
G01X90972Y45534D02*
G01X91821Y45534D01*
G01X90972Y45534D02*
G01X90972Y45816D01*
G01X91013Y45938D01*
G01X91094Y46019D01*
G01X91175Y46060D01*
G01X91295Y46101D01*
G01X91498Y46101D01*
G01X91620Y46060D01*
G01X91699Y46019D01*
G01X91780Y45938D01*
G01X91821Y45816D01*
G01X91821Y45534D01*
G01X95156Y92326D02*
G01X95882Y91236D01*
G01X95882Y92326D02*
G01X95156Y91236D01*
G01X96225Y92118D02*
G01X96329Y92171D01*
G01X96486Y92326D01*
G01X96486Y91236D01*
G01X31148Y76324D02*
G01X31148Y75544D01*
G01X31198Y75389D01*
G01X31302Y75285D01*
G01X31460Y75234D01*
G01X31564Y75234D01*
G01X31719Y75285D01*
G01X31823Y75389D01*
G01X31874Y75544D01*
G01X31874Y76324D01*
G01X32738Y76324D02*
G01X32217Y75598D01*
G01X32997Y75598D01*
G01X32738Y76324D02*
G01X32738Y75234D01*
G54D12*
G01X50689Y71238D02*
G01X50689Y69576D01*
G01X49858Y70407D02*
G01X51520Y70407D01*
G01X11228Y71347D02*
G01X11228Y69686D01*
G01X10398Y70517D02*
G01X12059Y70517D01*
G01X10487Y58937D02*
G01X12151Y58937D01*
G01X49797Y59056D02*
G01X51461Y59056D01*
G01X10309Y63587D02*
G01X12250Y63587D01*
G01X10957Y64196D02*
G01X12250Y64196D01*
G01X11325Y64196D02*
G01X11048Y64473D01*
G01X10957Y64659D01*
G01X10957Y64935D01*
G01X11048Y65121D01*
G01X11325Y65212D01*
G01X12250Y65212D01*
G54D23*
G01X49679Y62902D02*
G01X49771Y62716D01*
G01X49956Y62531D01*
G01X50142Y62440D01*
G01X50419Y62348D01*
G01X50881Y62348D01*
G01X51158Y62440D01*
G01X51341Y62531D01*
G01X51526Y62716D01*
G01X51620Y62902D01*
G01X51620Y63270D01*
G01X51526Y63456D01*
G01X51341Y63641D01*
G01X51158Y63732D01*
G01X50881Y63824D01*
G01X50419Y63824D01*
G01X50142Y63732D01*
G01X49956Y63641D01*
G01X49771Y63456D01*
G01X49679Y63270D01*
G01X49679Y62902D01*
G01X50325Y64433D02*
G01X51249Y64433D01*
G01X51526Y64527D01*
G01X51620Y64710D01*
G01X51620Y64990D01*
G01X51526Y65173D01*
G01X51249Y65449D01*
G01X50325Y65449D02*
G01X51620Y65449D01*
G01X49679Y66336D02*
G01X51249Y66336D01*
G01X51526Y66430D01*
G01X51620Y66615D01*
G01X51620Y66798D01*
G01X50325Y66059D02*
G01X50325Y66707D01*
G54D13*
G01X139329Y32512D02*
G01X138549Y32512D01*
G01X138394Y32461D01*
G01X138290Y32357D01*
G01X138239Y32199D01*
G01X138239Y32095D01*
G01X138290Y31940D01*
G01X138394Y31836D01*
G01X138549Y31785D01*
G01X139329Y31785D01*
G01X139329Y30817D02*
G01X139329Y31338D01*
G01X138861Y31389D01*
G01X138912Y31338D01*
G01X138965Y31181D01*
G01X138965Y31026D01*
G01X138912Y30871D01*
G01X138811Y30767D01*
G01X138653Y30713D01*
G01X138549Y30713D01*
G01X138394Y30767D01*
G01X138290Y30871D01*
G01X138239Y31026D01*
G01X138239Y31181D01*
G01X138290Y31338D01*
G01X138341Y31389D01*
G01X138445Y31442D01*
G54D21*
G75*
G01X34755Y95046D02*
G03X30894Y95046I-1931J-1931D01*
G01*
M00*
M02*
