G04 Layer: BottomSolderMaskLayer*
G04 EasyEDA v6.3.43, 2020-05-15T22:20:22+02:00*
G04 2a45f1baba6d49658d6ac03e146227c1,5baed10d790843e69a81d1d62c5cb733,10*
G04 Gerber Generator version 0.2*
G04 Scale: 100 percent, Rotated: No, Reflected: No *
G04 Dimensions in millimeters *
G04 leading zeros omitted , absolute positions ,3 integer and 3 decimal *
%FSLAX33Y33*%
%MOMM*%
G90*
G71D02*

%ADD24C,1.473200*%
%ADD25C,1.727200*%
%ADD26C,2.703195*%
%ADD27C,2.403196*%
%ADD28C,2.203196*%
%ADD29C,2.903220*%

%LPD*%
G54D24*
G01X91059Y59436D02*
G01X92075Y59436D01*
G01X91059Y61976D02*
G01X92075Y61976D01*
G01X91059Y64516D02*
G01X92075Y64516D01*
G01X91059Y67056D02*
G01X92075Y67056D01*
G01X91059Y51816D02*
G01X92075Y51816D01*
G01X91059Y69596D02*
G01X92075Y69596D01*
G01X91059Y72136D02*
G01X92075Y72136D01*
G01X91059Y87376D02*
G01X92075Y87376D01*
G01X91059Y74676D02*
G01X92075Y74676D01*
G01X68199Y54356D02*
G01X69215Y54356D01*
G01X91059Y56896D02*
G01X92075Y56896D01*
G01X91059Y77216D02*
G01X92075Y77216D01*
G01X91059Y84836D02*
G01X92075Y84836D01*
G01X91059Y79756D02*
G01X92075Y79756D01*
G01X91059Y82296D02*
G01X92075Y82296D01*
G01X91059Y89916D02*
G01X92075Y89916D01*
G01X68199Y89916D02*
G01X69215Y89916D01*
G01X68199Y87376D02*
G01X69215Y87376D01*
G01X68199Y84836D02*
G01X69215Y84836D01*
G01X68199Y82296D02*
G01X69215Y82296D01*
G01X68199Y79756D02*
G01X69215Y79756D01*
G01X68199Y77216D02*
G01X69215Y77216D01*
G01X68199Y74676D02*
G01X69215Y74676D01*
G01X91059Y54356D02*
G01X92075Y54356D01*
G01X68199Y56896D02*
G01X69215Y56896D01*
G01X68199Y59436D02*
G01X69215Y59436D01*
G01X68199Y61976D02*
G01X69215Y61976D01*
G01X68199Y64516D02*
G01X69215Y64516D01*
G01X68199Y67056D02*
G01X69215Y67056D01*
G01X68199Y69596D02*
G01X69215Y69596D01*
G01X68199Y72136D02*
G01X69215Y72136D01*
G01X68199Y51816D02*
G01X69215Y51816D01*
G54D25*
G01X26035Y21717D03*
G01X26035Y19177D03*
G01X26035Y16637D03*
G01X26035Y14097D03*
G01X26035Y11557D03*
G01X26543Y42164D03*
G01X26543Y39624D03*
G01X26543Y37084D03*
G01X26543Y34544D03*
G01X26543Y32004D03*
G54D26*
G01X33893Y84046D03*
G01X30894Y84046D03*
G01X27894Y84046D03*
G54D27*
G01X74803Y10414D03*
G01X53721Y33782D03*
G01X53848Y38227D03*
G01X78994Y8763D03*
G01X83566Y8636D03*
G01X87630Y10668D03*
G54D28*
G01X135645Y63439D03*
G01X135645Y65939D03*
G01X135645Y68441D03*
G01X135645Y70940D03*
G01X135645Y73439D03*
G01X135645Y75939D03*
G01X135645Y80940D03*
G01X135645Y78441D03*
G54D29*
G01X11076Y56116D03*
G36*
G01X9657Y71744D02*
G01X9657Y74648D01*
G01X12560Y74648D01*
G01X12560Y71744D01*
G01X9657Y71744D01*
G37*
G36*
G01X49253Y71686D02*
G01X49253Y74589D01*
G01X52156Y74589D01*
G01X52156Y71686D01*
G01X49253Y71686D01*
G37*
G01X50706Y56121D03*
G54D25*
G01X116967Y46355D03*
G01X119507Y46355D03*
G01X122047Y46355D03*
G01X124587Y46355D03*
G01X127127Y46355D03*
G01X129667Y46355D03*
G01X132207Y46355D03*
G01X134747Y46355D03*
G01X114427Y46355D03*
M00*
M02*
